<?xml version="1.0" encoding="UTF-8"?>
<!DOCTYPE svg PUBLIC "-//W3C//DTD SVG 1.1//EN" "http://www.w3.org/Graphics/SVG/1.1/DTD/svg11.dtd">
<svg width="476mm" height="224mm" viewBox="0 0 47600 22400" version="1.1" xmlns="http://www.w3.org/2000/svg" xmlns:xlink="http://www.w3.org/1999/xlink" stroke-width="28.222" stroke-linejoin="round" xml:space="preserve">
 <path fill="rgb(255,255,255)" stroke="none" d="M 23803,22391 L 3,22391 3,0 47602,0 47602,22391 23803,22391 Z"/>
 <path fill="none" stroke="rgb(179,179,179)" stroke-linejoin="round" d="M 24038,21012 L 2173,21012 2173,685 45904,685 45904,21012 24038,21012 Z"/>
 <path fill="none" stroke="rgb(179,179,179)" stroke-linejoin="round" d="M 2173,684 L 2173,21011"/>
 <path fill="none" stroke="rgb(179,179,179)" stroke-linejoin="round" d="M 15869,684 L 15869,21011"/>
 <path fill="none" stroke="rgb(179,179,179)" stroke-linejoin="round" d="M 29565,684 L 29565,21011"/>
 <path fill="none" stroke="rgb(179,179,179)" stroke-linejoin="round" d="M 43262,684 L 43262,21011"/>
 <path fill="none" stroke="rgb(221,221,221)" stroke-linejoin="round" d="M 6296,684 L 6296,21011"/>
 <path fill="none" stroke="rgb(221,221,221)" stroke-linejoin="round" d="M 8708,684 L 8708,21011"/>
 <path fill="none" stroke="rgb(221,221,221)" stroke-linejoin="round" d="M 10419,684 L 10419,21011"/>
 <path fill="none" stroke="rgb(221,221,221)" stroke-linejoin="round" d="M 11746,684 L 11746,21011"/>
 <path fill="none" stroke="rgb(221,221,221)" stroke-linejoin="round" d="M 12831,684 L 12831,21011"/>
 <path fill="none" stroke="rgb(221,221,221)" stroke-linejoin="round" d="M 13748,684 L 13748,21011"/>
 <path fill="none" stroke="rgb(221,221,221)" stroke-linejoin="round" d="M 14542,684 L 14542,21011"/>
 <path fill="none" stroke="rgb(221,221,221)" stroke-linejoin="round" d="M 15243,684 L 15243,21011"/>
 <path fill="none" stroke="rgb(221,221,221)" stroke-linejoin="round" d="M 19993,684 L 19993,21011"/>
 <path fill="none" stroke="rgb(221,221,221)" stroke-linejoin="round" d="M 22404,684 L 22404,21011"/>
 <path fill="none" stroke="rgb(221,221,221)" stroke-linejoin="round" d="M 24115,684 L 24115,21011"/>
 <path fill="none" stroke="rgb(221,221,221)" stroke-linejoin="round" d="M 25442,684 L 25442,21011"/>
 <path fill="none" stroke="rgb(221,221,221)" stroke-linejoin="round" d="M 26527,684 L 26527,21011"/>
 <path fill="none" stroke="rgb(221,221,221)" stroke-linejoin="round" d="M 27444,684 L 27444,21011"/>
 <path fill="none" stroke="rgb(221,221,221)" stroke-linejoin="round" d="M 28238,684 L 28238,21011"/>
 <path fill="none" stroke="rgb(221,221,221)" stroke-linejoin="round" d="M 28939,684 L 28939,21011"/>
 <path fill="none" stroke="rgb(221,221,221)" stroke-linejoin="round" d="M 33688,684 L 33688,21011"/>
 <path fill="none" stroke="rgb(221,221,221)" stroke-linejoin="round" d="M 36100,684 L 36100,21011"/>
 <path fill="none" stroke="rgb(221,221,221)" stroke-linejoin="round" d="M 37812,684 L 37812,21011"/>
 <path fill="none" stroke="rgb(221,221,221)" stroke-linejoin="round" d="M 39139,684 L 39139,21011"/>
 <path fill="none" stroke="rgb(221,221,221)" stroke-linejoin="round" d="M 40223,684 L 40223,21011"/>
 <path fill="none" stroke="rgb(221,221,221)" stroke-linejoin="round" d="M 41140,684 L 41140,21011"/>
 <path fill="none" stroke="rgb(221,221,221)" stroke-linejoin="round" d="M 41935,684 L 41935,21011"/>
 <path fill="none" stroke="rgb(221,221,221)" stroke-linejoin="round" d="M 42635,684 L 42635,21011"/>
 <path fill="none" stroke="rgb(179,179,179)" stroke-linejoin="round" d="M 45904,21011 L 2173,21011"/>
 <path fill="none" stroke="rgb(179,179,179)" stroke-linejoin="round" d="M 45904,18978 L 2173,18978"/>
 <path fill="none" stroke="rgb(179,179,179)" stroke-linejoin="round" d="M 45904,16945 L 2173,16945"/>
 <path fill="none" stroke="rgb(179,179,179)" stroke-linejoin="round" d="M 45904,14912 L 2173,14912"/>
 <path fill="none" stroke="rgb(179,179,179)" stroke-linejoin="round" d="M 45904,12879 L 2173,12879"/>
 <path fill="none" stroke="rgb(179,179,179)" stroke-linejoin="round" d="M 45904,10848 L 2173,10848"/>
 <path fill="none" stroke="rgb(179,179,179)" stroke-linejoin="round" d="M 45904,8815 L 2173,8815"/>
 <path fill="none" stroke="rgb(179,179,179)" stroke-linejoin="round" d="M 45904,6782 L 2173,6782"/>
 <path fill="none" stroke="rgb(179,179,179)" stroke-linejoin="round" d="M 45904,4749 L 2173,4749"/>
 <path fill="none" stroke="rgb(179,179,179)" stroke-linejoin="round" d="M 45904,2716 L 2173,2716"/>
 <path fill="none" stroke="rgb(179,179,179)" stroke-linejoin="round" d="M 45904,684 L 2173,684"/>
 <path fill="none" stroke="rgb(221,221,221)" stroke-linejoin="round" d="M 45904,20604 L 2173,20604"/>
 <path fill="none" stroke="rgb(221,221,221)" stroke-linejoin="round" d="M 45904,20197 L 2173,20197"/>
 <path fill="none" stroke="rgb(221,221,221)" stroke-linejoin="round" d="M 45904,19791 L 2173,19791"/>
 <path fill="none" stroke="rgb(221,221,221)" stroke-linejoin="round" d="M 45904,19384 L 2173,19384"/>
 <path fill="none" stroke="rgb(221,221,221)" stroke-linejoin="round" d="M 45904,18571 L 2173,18571"/>
 <path fill="none" stroke="rgb(221,221,221)" stroke-linejoin="round" d="M 45904,18165 L 2173,18165"/>
 <path fill="none" stroke="rgb(221,221,221)" stroke-linejoin="round" d="M 45904,17758 L 2173,17758"/>
 <path fill="none" stroke="rgb(221,221,221)" stroke-linejoin="round" d="M 45904,17351 L 2173,17351"/>
 <path fill="none" stroke="rgb(221,221,221)" stroke-linejoin="round" d="M 45904,16538 L 2173,16538"/>
 <path fill="none" stroke="rgb(221,221,221)" stroke-linejoin="round" d="M 45904,16132 L 2173,16132"/>
 <path fill="none" stroke="rgb(221,221,221)" stroke-linejoin="round" d="M 45904,15725 L 2173,15725"/>
 <path fill="none" stroke="rgb(221,221,221)" stroke-linejoin="round" d="M 45904,15319 L 2173,15319"/>
 <path fill="none" stroke="rgb(221,221,221)" stroke-linejoin="round" d="M 45904,14506 L 2173,14506"/>
 <path fill="none" stroke="rgb(221,221,221)" stroke-linejoin="round" d="M 45904,14099 L 2173,14099"/>
 <path fill="none" stroke="rgb(221,221,221)" stroke-linejoin="round" d="M 45904,13692 L 2173,13692"/>
 <path fill="none" stroke="rgb(221,221,221)" stroke-linejoin="round" d="M 45904,13286 L 2173,13286"/>
 <path fill="none" stroke="rgb(221,221,221)" stroke-linejoin="round" d="M 45904,12473 L 2173,12473"/>
 <path fill="none" stroke="rgb(221,221,221)" stroke-linejoin="round" d="M 45904,12066 L 2173,12066"/>
 <path fill="none" stroke="rgb(221,221,221)" stroke-linejoin="round" d="M 45904,11660 L 2173,11660"/>
 <path fill="none" stroke="rgb(221,221,221)" stroke-linejoin="round" d="M 45904,11253 L 2173,11253"/>
 <path fill="none" stroke="rgb(221,221,221)" stroke-linejoin="round" d="M 45904,10441 L 2173,10441"/>
 <path fill="none" stroke="rgb(221,221,221)" stroke-linejoin="round" d="M 45904,10034 L 2173,10034"/>
 <path fill="none" stroke="rgb(221,221,221)" stroke-linejoin="round" d="M 45904,9628 L 2173,9628"/>
 <path fill="none" stroke="rgb(221,221,221)" stroke-linejoin="round" d="M 45904,9221 L 2173,9221"/>
 <path fill="none" stroke="rgb(221,221,221)" stroke-linejoin="round" d="M 45904,8408 L 2173,8408"/>
 <path fill="none" stroke="rgb(221,221,221)" stroke-linejoin="round" d="M 45904,8002 L 2173,8002"/>
 <path fill="none" stroke="rgb(221,221,221)" stroke-linejoin="round" d="M 45904,7595 L 2173,7595"/>
 <path fill="none" stroke="rgb(221,221,221)" stroke-linejoin="round" d="M 45904,7188 L 2173,7188"/>
 <path fill="none" stroke="rgb(221,221,221)" stroke-linejoin="round" d="M 45904,6375 L 2173,6375"/>
 <path fill="none" stroke="rgb(221,221,221)" stroke-linejoin="round" d="M 45904,5969 L 2173,5969"/>
 <path fill="none" stroke="rgb(221,221,221)" stroke-linejoin="round" d="M 45904,5562 L 2173,5562"/>
 <path fill="none" stroke="rgb(221,221,221)" stroke-linejoin="round" d="M 45904,5156 L 2173,5156"/>
 <path fill="none" stroke="rgb(221,221,221)" stroke-linejoin="round" d="M 45904,4343 L 2173,4343"/>
 <path fill="none" stroke="rgb(221,221,221)" stroke-linejoin="round" d="M 45904,3936 L 2173,3936"/>
 <path fill="none" stroke="rgb(221,221,221)" stroke-linejoin="round" d="M 45904,3529 L 2173,3529"/>
 <path fill="none" stroke="rgb(221,221,221)" stroke-linejoin="round" d="M 45904,3123 L 2173,3123"/>
 <path fill="none" stroke="rgb(221,221,221)" stroke-linejoin="round" d="M 45904,2310 L 2173,2310"/>
 <path fill="none" stroke="rgb(221,221,221)" stroke-linejoin="round" d="M 45904,1903 L 2173,1903"/>
 <path fill="none" stroke="rgb(221,221,221)" stroke-linejoin="round" d="M 45904,1497 L 2173,1497"/>
 <path fill="none" stroke="rgb(221,221,221)" stroke-linejoin="round" d="M 45904,1090 L 2173,1090"/>
 <path fill="none" stroke="rgb(179,179,179)" stroke-linejoin="round" d="M 2173,21161 L 2173,21011"/>
 <path fill="none" stroke="rgb(179,179,179)" stroke-linejoin="round" d="M 2173,21161 L 2173,21011"/>
 <path fill="none" stroke="rgb(179,179,179)" stroke-linejoin="round" d="M 15869,21161 L 15869,21011"/>
 <path fill="none" stroke="rgb(179,179,179)" stroke-linejoin="round" d="M 15869,21161 L 15869,21011"/>
 <path fill="none" stroke="rgb(179,179,179)" stroke-linejoin="round" d="M 29565,21161 L 29565,21011"/>
 <path fill="none" stroke="rgb(179,179,179)" stroke-linejoin="round" d="M 29565,21161 L 29565,21011"/>
 <path fill="none" stroke="rgb(179,179,179)" stroke-linejoin="round" d="M 43262,21161 L 43262,21011"/>
 <path fill="none" stroke="rgb(179,179,179)" stroke-linejoin="round" d="M 43262,21161 L 43262,21011"/>
 <path fill="none" stroke="rgb(179,179,179)" stroke-linejoin="round" d="M 2173,21011 L 45904,21011"/>
 <path fill="none" stroke="rgb(179,179,179)" stroke-linejoin="round" d="M 2023,21011 L 2173,21011"/>
 <path fill="none" stroke="rgb(179,179,179)" stroke-linejoin="round" d="M 2023,21011 L 2173,21011"/>
 <path fill="none" stroke="rgb(179,179,179)" stroke-linejoin="round" d="M 2023,18978 L 2173,18978"/>
 <path fill="none" stroke="rgb(179,179,179)" stroke-linejoin="round" d="M 2023,18978 L 2173,18978"/>
 <path fill="none" stroke="rgb(179,179,179)" stroke-linejoin="round" d="M 2023,16945 L 2173,16945"/>
 <path fill="none" stroke="rgb(179,179,179)" stroke-linejoin="round" d="M 2023,16945 L 2173,16945"/>
 <path fill="none" stroke="rgb(179,179,179)" stroke-linejoin="round" d="M 2023,14912 L 2173,14912"/>
 <path fill="none" stroke="rgb(179,179,179)" stroke-linejoin="round" d="M 2023,14912 L 2173,14912"/>
 <path fill="none" stroke="rgb(179,179,179)" stroke-linejoin="round" d="M 2023,12879 L 2173,12879"/>
 <path fill="none" stroke="rgb(179,179,179)" stroke-linejoin="round" d="M 2023,12879 L 2173,12879"/>
 <path fill="none" stroke="rgb(179,179,179)" stroke-linejoin="round" d="M 2023,10848 L 2173,10848"/>
 <path fill="none" stroke="rgb(179,179,179)" stroke-linejoin="round" d="M 2023,10848 L 2173,10848"/>
 <path fill="none" stroke="rgb(179,179,179)" stroke-linejoin="round" d="M 2023,8815 L 2173,8815"/>
 <path fill="none" stroke="rgb(179,179,179)" stroke-linejoin="round" d="M 2023,8815 L 2173,8815"/>
 <path fill="none" stroke="rgb(179,179,179)" stroke-linejoin="round" d="M 2023,6782 L 2173,6782"/>
 <path fill="none" stroke="rgb(179,179,179)" stroke-linejoin="round" d="M 2023,6782 L 2173,6782"/>
 <path fill="none" stroke="rgb(179,179,179)" stroke-linejoin="round" d="M 2023,4749 L 2173,4749"/>
 <path fill="none" stroke="rgb(179,179,179)" stroke-linejoin="round" d="M 2023,4749 L 2173,4749"/>
 <path fill="none" stroke="rgb(179,179,179)" stroke-linejoin="round" d="M 2023,2716 L 2173,2716"/>
 <path fill="none" stroke="rgb(179,179,179)" stroke-linejoin="round" d="M 2023,2716 L 2173,2716"/>
 <path fill="none" stroke="rgb(179,179,179)" stroke-linejoin="round" d="M 2023,684 L 2173,684"/>
 <path fill="none" stroke="rgb(179,179,179)" stroke-linejoin="round" d="M 2023,684 L 2173,684"/>
 <path fill="none" stroke="rgb(179,179,179)" stroke-linejoin="round" d="M 2173,21011 L 2173,684"/>
 <path fill="none" stroke="rgb(0,69,134)" stroke-linejoin="round" d="M 2173,18590 L 6296,17396 8708,16508 10419,15651 11746,14932 12831,14346 13748,13846 14542,13354 15243,12867 15869,12473 16436,12090 16954,11716 17430,11361 17871,11008 18281,10674 18665,10348 19026,10072 19366,9845 19687,9636 19993,9431 20283,9229 20559,9031 20824,8848 21077,8671 21320,8505 21553,8342 21778,8190 21994,8042 22203,7904 22404,7772 22599,7649 22788,7526 22971,7407 23149,7290 23321,7180 23489,7079 23652,6987 23810,6897 23964,6806 24115,6718 24262,6640 24405,6562 24545,6485 24682,6413 24815,6341 24946,6270 25074,6200 25199,6133 25322,6070 25442,6011 25560,5951 25675,5893 25789,5836 25900,5778 26009,5721 26116,5665 26221,5609 26325,5554 26427,5498 26527,5443 26625,5391 26722,5341 26817,5292 26911,5243 27003,5195 27094,5146 27183,5098 27271,5050 27358,5003 27444,4956 27528,4913 27611,4870 27693,4828 27774,4786 27854,4746 27933,4707 28011,4668 28087,4630 28163,4593 28238,4557 28312,4521 28385,4487 28457,4454 28528,4421 28599,4389 28668,4356 28737,4325 28805,4294 28872,4264 28939,4234 29004,4204 29069,4176 29134,4149 29197,4122 29260,4095 29322,4069 29384,4043 29445,4017 29505,3991 29565,3966 29624,3941 29683,3916 29741,3891 29799,3867 29855,3843 29912,3819 29968,3795 30023,3771 30078,3748 30132,3725 30186,3702 30239,3679 30292,3656 30345,3633 30397,3611 30448,3588 30499,3567 30550,3545 30600,3524 30650,3502 30699,3481 30748,3461 30797,3440 30845,3420 30893,3401 30940,3381 30987,3361 31034,3342 31080,3323 31126,3305 31171,3287 31217,3269 31262,3251 31306,3234 31350,3217 31394,3200 31438,3184 31481,3167 31524,3151 31567,3135 31609,3119 31651,3103 31693,3087 31734,3072 31775,3056 31816,3040 31857,3025 31897,3010 31937,2994 31977,2979 32017,2964 32056,2950 32095,2935 32134,2920 32172,2905 32210,2891 32248,2876 32286,2862 32324,2847 32361,2833 32398,2819 32435,2805 32472,2791 32508,2777 32544,2763 32580,2750 32616,2736 32651,2723 32687,2710 32722,2697 32757,2684 32791,2671 32826,2658 32860,2645 32894,2632 32928,2619 32962,2607 32995,2594 33029,2582 33062,2570 33095,2558 33127,2545 33160,2534 33192,2522 33225,2510 33257,2498 33289,2487 33320,2475 33352,2464 33383,2452 33415,2441 33446,2429 33476,2418 33507,2407 33538,2396 33568,2385 33599,2374 33629,2363 33659,2352 33688,2341 33718,2331 33748,2320 33777,2310 33806,2299 33835,2289 33864,2279 33893,2269 33922,2259 33950,2249 33979,2239 34007,2229 34035,2220 34063,2210 34091,2201 34119,2191 34146,2182 34174,2173 34201,2164 34228,2156 34255,2147 34282,2138 34309,2129 34336,2121 34363,2112 34389,2104 34415,2096 34442,2088 34468,2080 34494,2072 34520,2064 34546,2056 34571,2049 34597,2041 34622,2034 34648,2027 34673,2019 34698,2012 34723,2005 34748,1998 34773,1991 34798,1984 34822,1978 34847,1971 34871,1964 34896,1957 34920,1950 34944,1943 34968,1937 34992,1930 35016,1924 35040,1917 35063,1911 35087,1905 35110,1898 35134,1892 35157,1886 35180,1880 35203,1874 35226,1868 35249,1862 35272,1855 35295,1849 35317,1843 35340,1838 35362,1832 35385,1826 35407,1821 35429,1815 35452,1810 35474,1804 35496,1799 35517,1794 35539,1788 35561,1783 35583,1778 35604,1772 35626,1767 35647,1762 35669,1757 35711,1747 35732,1742 35753,1737 35774,1732 35795,1727 35816,1722 35837,1717 35857,1712 35899,1702 35919,1697 35940,1692 35960,1687 35980,1683 36000,1678 36041,1668 36061,1663 36080,1659 36100,1654 36120,1649 36140,1645 36159,1640 36179,1635 36199,1631 36218,1626 36238,1622 36257,1617 36276,1613 36295,1609 36315,1604 36334,1600 36372,1591 36391,1587 36409,1583 36428,1578 36447,1574 36466,1570 36484,1566 36503,1562 36540,1554 36558,1550 36576,1546 36613,1538 36631,1534 36649,1530 36667,1526 36685,1523 36703,1519 36721,1515 36739,1511 36774,1504 36792,1500 36810,1497 36845,1489 36862,1486 36897,1479 36914,1475 36932,1472 36966,1465 36983,1462 37000,1458 37017,1455 37034,1452 37051,1449 37085,1442 37102,1439 37135,1433 37152,1430 37168,1427 37201,1420 37218,1417 37251,1411 37267,1408 37299,1402 37316,1399 37348,1393 37364,1390 37380,1387 37396,1384 37412,1382 37444,1376 37459,1373 37491,1368 37506,1365 37538,1360 37553,1357 37569,1355 37584,1352 37600,1349 37630,1344 37646,1342 37676,1337 37691,1334 37707,1332 37722,1329 37752,1324 37767,1322 37797,1317 37812,1315 37841,1310 37871,1305 37885,1303 37915,1298 37929,1296 37958,1291 37987,1286 38002,1284 38031,1280 38059,1275 38073,1273 38102,1269 38130,1265 38144,1263 38172,1258 38200,1254 38228,1250 38242,1248 38269,1244 38283,1242 38297,1240 38311,1238 38338,1234 38351,1232 38365,1230 38392,1226 38406,1224 38432,1220 38459,1216 38486,1212 38512,1209 38525,1207 38552,1203 38578,1200 38591,1198 38604,1196 38630,1193 38643,1191 38669,1188 38682,1186 38694,1184 38720,1181 38746,1177 38758,1175 38771,1174 38796,1170 38821,1167 38834,1165 38846,1164 38859,1162 38884,1159 38908,1156 38933,1152 38958,1149 38982,1146 39007,1143 39019,1142 39031,1140 39055,1137 39079,1134 39103,1131 39127,1128 39151,1126 39175,1123 39198,1120 39222,1117 39245,1114 39268,1112 39292,1109 39303,1108 39315,1106 39338,1104 39361,1101 39384,1099 39395,1097 39406,1096 39429,1094 39463,1090 39486,1087 39497,1086 39508,1085 39530,1082 39553,1080 39575,1078 39597,1075 39619,1073 39652,1070 39673,1067 39695,1065 39706,1064 39717,1063 39738,1060 39770,1057 39792,1055 39813,1053 39834,1050 39866,1047 39887,1045 39908,1043 39929,1041 39960,1038 39981,1036 40001,1034 40032,1030 40053,1028 40073,1027 40103,1024 40124,1022 40144,1020 40154,1019 40174,1017 40194,1015 40223,1012 40243,1010 40263,1008 40273,1008 40292,1006 40312,1004 40341,1001 40361,1000 40390,997 40399,996 40409,995 40428,994 40457,991 40476,989 40504,987 40523,985 40533,984 40551,982 40579,980 40598,978 40626,976 40644,974 40672,972 40690,970 40718,968 40745,966 40763,964 40772,963 40790,962 40817,960 40835,958 40862,956 40889,953 40906,952 40933,950 40959,947 40977,946 41003,944 41029,942 41038,941 41055,940 41072,938 41098,936 41123,934 41149,932 41174,930 41183,930 41191,929 41216,927 41242,925 41267,923 41291,921 41316,919 41325,918 41333,917 41357,915 41382,913 41406,911 41431,909 41455,908 41463,907 41479,906 41503,904 41527,902 41551,901 41575,899 41598,897 41614,896 41622,896 41645,894 41669,892 41692,890 41715,889 41738,887 41761,885 41769,885 41792,883 41815,881 41837,879 41860,878 41882,876 41905,874 41912,874 41935,872 41957,871 41979,869 42001,868 42023,866 42053,865 42074,863 42082,863 42096,862 42125,860 42147,858 42168,857 42197,855 42218,854 42239,852 42253,851 42267,850 42288,849 42309,848 42337,846 42358,845 42386,843 42406,842 42434,841 42447,840 42454,840 42481,838 42502,837 42529,835 42549,834 42576,833 42596,832 42622,830 42642,829 42649,828 42668,827 42695,826 42714,825 42740,823 42766,822 42785,820 42811,819 42830,818 42837,818 42862,816 42881,816 42907,814 42932,813 42957,812 42976,811 43001,810 43025,809 43050,808 43075,807 43099,805 43124,804 43148,803 43166,802 43190,801 43214,800 43238,799 43262,798 43286,797 43310,795 43333,794 43357,793 43386,792 43409,790 43432,789 43455,788 43478,787 43501,786 43524,785 43541,784 43552,784 43575,783 43597,782 43620,781 43642,781 43670,780 43692,779 43714,778 43742,777 43764,776 43786,776 43813,775 43834,774 43861,773 43883,772 43904,771 43931,771 43952,770 43979,769 44000,768 44026,767 44047,766 44073,765 44099,764 44119,764 44145,763 44165,762 44171,762 44191,761 44216,760 44242,759 44262,758 44287,757 44312,756 44337,755 44357,755 44381,754 44406,753 44430,752 44455,751 44460,751 44479,750 44503,749 44527,748 44551,747 44570,746 44594,745 44623,745 44646,744 44670,744 44693,743 44717,743 44740,742 44763,742 44786,741 44809,741 44836,740 44859,740 44877,739 44882,739 44905,739 44932,738 44954,738 44976,737 45003,737 45025,736 45047,736 45074,735 45096,735 45122,734 45143,734 45169,733 45191,733 45217,732 45238,732 45264,731 45285,731 45310,730 45335,729 45356,729 45381,728 45386,728 45406,728 45431,727 45452,727 45476,726 45501,726 45525,725 45550,724 45574,724 45594,723 45618,723 45642,722 45666,722 45690,721 45714,720 45737,720 45765,719 45788,719 45811,718 45834,717 45850,717 45858,717 45881,716 45904,716"/>
 <text class="TextShape"><tspan class="TextParagraph" font-family="Liberation Sans, sans-serif" font-size="353px" font-weight="400"><tspan class="TextPosition" x="2080" y="21579"><tspan fill="rgb(0,0,0)" stroke="none">1</tspan></tspan></tspan></text>
 <text class="TextShape"><tspan class="TextParagraph" font-family="Liberation Sans, sans-serif" font-size="353px" font-weight="400"><tspan class="TextPosition" x="15684" y="21579"><tspan fill="rgb(0,0,0)" stroke="none">10</tspan></tspan></tspan></text>
 <text class="TextShape"><tspan class="TextParagraph" font-family="Liberation Sans, sans-serif" font-size="353px" font-weight="400"><tspan class="TextPosition" x="29288" y="21579"><tspan fill="rgb(0,0,0)" stroke="none">100</tspan></tspan></tspan></text>
 <text class="TextShape"><tspan class="TextParagraph" font-family="Liberation Sans, sans-serif" font-size="353px" font-weight="400"><tspan class="TextPosition" x="42892" y="21579"><tspan fill="rgb(0,0,0)" stroke="none">1000</tspan></tspan></tspan></text>
 <text class="TextShape"><tspan class="TextParagraph" font-family="Liberation Sans, sans-serif" font-size="353px" font-weight="400"><tspan class="TextPosition" x="1314" y="21132"><tspan fill="rgb(0,0,0)" stroke="none">0 %</tspan></tspan></tspan></text>
 <text class="TextShape"><tspan class="TextParagraph" font-family="Liberation Sans, sans-serif" font-size="353px" font-weight="400"><tspan class="TextPosition" x="1129" y="19099"><tspan fill="rgb(0,0,0)" stroke="none">10 %</tspan></tspan></tspan></text>
 <text class="TextShape"><tspan class="TextParagraph" font-family="Liberation Sans, sans-serif" font-size="353px" font-weight="400"><tspan class="TextPosition" x="1129" y="17066"><tspan fill="rgb(0,0,0)" stroke="none">20 %</tspan></tspan></tspan></text>
 <text class="TextShape"><tspan class="TextParagraph" font-family="Liberation Sans, sans-serif" font-size="353px" font-weight="400"><tspan class="TextPosition" x="1129" y="15033"><tspan fill="rgb(0,0,0)" stroke="none">30 %</tspan></tspan></tspan></text>
 <text class="TextShape"><tspan class="TextParagraph" font-family="Liberation Sans, sans-serif" font-size="353px" font-weight="400"><tspan class="TextPosition" x="1129" y="13000"><tspan fill="rgb(0,0,0)" stroke="none">40 %</tspan></tspan></tspan></text>
 <text class="TextShape"><tspan class="TextParagraph" font-family="Liberation Sans, sans-serif" font-size="353px" font-weight="400"><tspan class="TextPosition" x="1129" y="10968"><tspan fill="rgb(0,0,0)" stroke="none">50 %</tspan></tspan></tspan></text>
 <text class="TextShape"><tspan class="TextParagraph" font-family="Liberation Sans, sans-serif" font-size="353px" font-weight="400"><tspan class="TextPosition" x="1129" y="8935"><tspan fill="rgb(0,0,0)" stroke="none">60 %</tspan></tspan></tspan></text>
 <text class="TextShape"><tspan class="TextParagraph" font-family="Liberation Sans, sans-serif" font-size="353px" font-weight="400"><tspan class="TextPosition" x="1129" y="6902"><tspan fill="rgb(0,0,0)" stroke="none">70 %</tspan></tspan></tspan></text>
 <text class="TextShape"><tspan class="TextParagraph" font-family="Liberation Sans, sans-serif" font-size="353px" font-weight="400"><tspan class="TextPosition" x="1129" y="4869"><tspan fill="rgb(0,0,0)" stroke="none">80 %</tspan></tspan></tspan></text>
 <text class="TextShape"><tspan class="TextParagraph" font-family="Liberation Sans, sans-serif" font-size="353px" font-weight="400"><tspan class="TextPosition" x="1129" y="2836"><tspan fill="rgb(0,0,0)" stroke="none">90 %</tspan></tspan></tspan></text>
 <text class="TextShape"><tspan class="TextParagraph" font-family="Liberation Sans, sans-serif" font-size="353px" font-weight="400"><tspan class="TextPosition" x="944" y="804"><tspan fill="rgb(0,0,0)" stroke="none">100 %</tspan></tspan></tspan></text>
</svg>