<?xml version="1.0" encoding="UTF-8"?>
<!DOCTYPE svg PUBLIC "-//W3C//DTD SVG 1.1//EN" "http://www.w3.org/Graphics/SVG/1.1/DTD/svg11.dtd">
<svg width="461mm" height="219mm" viewBox="0 0 46100 21900" version="1.1" xmlns="http://www.w3.org/2000/svg" xmlns:xlink="http://www.w3.org/1999/xlink" stroke-width="28.222" stroke-linejoin="round" xml:space="preserve">
 <path fill="rgb(255,255,255)" stroke="none" d="M 23072,21940 L 0,21940 0,0 46143,0 46143,21940 23072,21940 Z"/>
 <path fill="none" stroke="rgb(179,179,179)" stroke-linejoin="round" d="M 23686,20855 L 2152,20855 2152,637 45221,637 45221,20855 23686,20855 Z"/>
 <path fill="none" stroke="rgb(179,179,179)" stroke-linejoin="round" d="M 2152,636 L 2152,20854"/>
 <path fill="none" stroke="rgb(179,179,179)" stroke-linejoin="round" d="M 2858,636 L 2858,20854"/>
 <path fill="none" stroke="rgb(179,179,179)" stroke-linejoin="round" d="M 3564,636 L 3564,20854"/>
 <path fill="none" stroke="rgb(179,179,179)" stroke-linejoin="round" d="M 4270,636 L 4270,20854"/>
 <path fill="none" stroke="rgb(179,179,179)" stroke-linejoin="round" d="M 4976,636 L 4976,20854"/>
 <path fill="none" stroke="rgb(179,179,179)" stroke-linejoin="round" d="M 5682,636 L 5682,20854"/>
 <path fill="none" stroke="rgb(179,179,179)" stroke-linejoin="round" d="M 6388,636 L 6388,20854"/>
 <path fill="none" stroke="rgb(179,179,179)" stroke-linejoin="round" d="M 7094,636 L 7094,20854"/>
 <path fill="none" stroke="rgb(179,179,179)" stroke-linejoin="round" d="M 7800,636 L 7800,20854"/>
 <path fill="none" stroke="rgb(179,179,179)" stroke-linejoin="round" d="M 8506,636 L 8506,20854"/>
 <path fill="none" stroke="rgb(179,179,179)" stroke-linejoin="round" d="M 9212,636 L 9212,20854"/>
 <path fill="none" stroke="rgb(179,179,179)" stroke-linejoin="round" d="M 9918,636 L 9918,20854"/>
 <path fill="none" stroke="rgb(179,179,179)" stroke-linejoin="round" d="M 10624,636 L 10624,20854"/>
 <path fill="none" stroke="rgb(179,179,179)" stroke-linejoin="round" d="M 11330,636 L 11330,20854"/>
 <path fill="none" stroke="rgb(179,179,179)" stroke-linejoin="round" d="M 12036,636 L 12036,20854"/>
 <path fill="none" stroke="rgb(179,179,179)" stroke-linejoin="round" d="M 12742,636 L 12742,20854"/>
 <path fill="none" stroke="rgb(179,179,179)" stroke-linejoin="round" d="M 13449,636 L 13449,20854"/>
 <path fill="none" stroke="rgb(179,179,179)" stroke-linejoin="round" d="M 14155,636 L 14155,20854"/>
 <path fill="none" stroke="rgb(179,179,179)" stroke-linejoin="round" d="M 14861,636 L 14861,20854"/>
 <path fill="none" stroke="rgb(179,179,179)" stroke-linejoin="round" d="M 15567,636 L 15567,20854"/>
 <path fill="none" stroke="rgb(179,179,179)" stroke-linejoin="round" d="M 16273,636 L 16273,20854"/>
 <path fill="none" stroke="rgb(179,179,179)" stroke-linejoin="round" d="M 16979,636 L 16979,20854"/>
 <path fill="none" stroke="rgb(179,179,179)" stroke-linejoin="round" d="M 17685,636 L 17685,20854"/>
 <path fill="none" stroke="rgb(179,179,179)" stroke-linejoin="round" d="M 18391,636 L 18391,20854"/>
 <path fill="none" stroke="rgb(179,179,179)" stroke-linejoin="round" d="M 19097,636 L 19097,20854"/>
 <path fill="none" stroke="rgb(179,179,179)" stroke-linejoin="round" d="M 19803,636 L 19803,20854"/>
 <path fill="none" stroke="rgb(179,179,179)" stroke-linejoin="round" d="M 20509,636 L 20509,20854"/>
 <path fill="none" stroke="rgb(179,179,179)" stroke-linejoin="round" d="M 21215,636 L 21215,20854"/>
 <path fill="none" stroke="rgb(179,179,179)" stroke-linejoin="round" d="M 21921,636 L 21921,20854"/>
 <path fill="none" stroke="rgb(179,179,179)" stroke-linejoin="round" d="M 22627,636 L 22627,20854"/>
 <path fill="none" stroke="rgb(179,179,179)" stroke-linejoin="round" d="M 23332,636 L 23332,20854"/>
 <path fill="none" stroke="rgb(179,179,179)" stroke-linejoin="round" d="M 24039,636 L 24039,20854"/>
 <path fill="none" stroke="rgb(179,179,179)" stroke-linejoin="round" d="M 24745,636 L 24745,20854"/>
 <path fill="none" stroke="rgb(179,179,179)" stroke-linejoin="round" d="M 25451,636 L 25451,20854"/>
 <path fill="none" stroke="rgb(179,179,179)" stroke-linejoin="round" d="M 26157,636 L 26157,20854"/>
 <path fill="none" stroke="rgb(179,179,179)" stroke-linejoin="round" d="M 26863,636 L 26863,20854"/>
 <path fill="none" stroke="rgb(179,179,179)" stroke-linejoin="round" d="M 27569,636 L 27569,20854"/>
 <path fill="none" stroke="rgb(179,179,179)" stroke-linejoin="round" d="M 28275,636 L 28275,20854"/>
 <path fill="none" stroke="rgb(179,179,179)" stroke-linejoin="round" d="M 28981,636 L 28981,20854"/>
 <path fill="none" stroke="rgb(179,179,179)" stroke-linejoin="round" d="M 29687,636 L 29687,20854"/>
 <path fill="none" stroke="rgb(179,179,179)" stroke-linejoin="round" d="M 30393,636 L 30393,20854"/>
 <path fill="none" stroke="rgb(179,179,179)" stroke-linejoin="round" d="M 31099,636 L 31099,20854"/>
 <path fill="none" stroke="rgb(179,179,179)" stroke-linejoin="round" d="M 31805,636 L 31805,20854"/>
 <path fill="none" stroke="rgb(179,179,179)" stroke-linejoin="round" d="M 32511,636 L 32511,20854"/>
 <path fill="none" stroke="rgb(179,179,179)" stroke-linejoin="round" d="M 33217,636 L 33217,20854"/>
 <path fill="none" stroke="rgb(179,179,179)" stroke-linejoin="round" d="M 33923,636 L 33923,20854"/>
 <path fill="none" stroke="rgb(179,179,179)" stroke-linejoin="round" d="M 34630,636 L 34630,20854"/>
 <path fill="none" stroke="rgb(179,179,179)" stroke-linejoin="round" d="M 35336,636 L 35336,20854"/>
 <path fill="none" stroke="rgb(179,179,179)" stroke-linejoin="round" d="M 36042,636 L 36042,20854"/>
 <path fill="none" stroke="rgb(179,179,179)" stroke-linejoin="round" d="M 36748,636 L 36748,20854"/>
 <path fill="none" stroke="rgb(179,179,179)" stroke-linejoin="round" d="M 37454,636 L 37454,20854"/>
 <path fill="none" stroke="rgb(179,179,179)" stroke-linejoin="round" d="M 38160,636 L 38160,20854"/>
 <path fill="none" stroke="rgb(179,179,179)" stroke-linejoin="round" d="M 38866,636 L 38866,20854"/>
 <path fill="none" stroke="rgb(179,179,179)" stroke-linejoin="round" d="M 39572,636 L 39572,20854"/>
 <path fill="none" stroke="rgb(179,179,179)" stroke-linejoin="round" d="M 40278,636 L 40278,20854"/>
 <path fill="none" stroke="rgb(179,179,179)" stroke-linejoin="round" d="M 40984,636 L 40984,20854"/>
 <path fill="none" stroke="rgb(179,179,179)" stroke-linejoin="round" d="M 41690,636 L 41690,20854"/>
 <path fill="none" stroke="rgb(179,179,179)" stroke-linejoin="round" d="M 42396,636 L 42396,20854"/>
 <path fill="none" stroke="rgb(179,179,179)" stroke-linejoin="round" d="M 43102,636 L 43102,20854"/>
 <path fill="none" stroke="rgb(179,179,179)" stroke-linejoin="round" d="M 43808,636 L 43808,20854"/>
 <path fill="none" stroke="rgb(179,179,179)" stroke-linejoin="round" d="M 44514,636 L 44514,20854"/>
 <path fill="none" stroke="rgb(179,179,179)" stroke-linejoin="round" d="M 45221,636 L 45221,20854"/>
 <path fill="none" stroke="rgb(179,179,179)" stroke-linejoin="round" d="M 45221,20854 L 2152,20854"/>
 <path fill="none" stroke="rgb(179,179,179)" stroke-linejoin="round" d="M 45221,17484 L 2152,17484"/>
 <path fill="none" stroke="rgb(179,179,179)" stroke-linejoin="round" d="M 45221,14114 L 2152,14114"/>
 <path fill="none" stroke="rgb(179,179,179)" stroke-linejoin="round" d="M 45221,10745 L 2152,10745"/>
 <path fill="none" stroke="rgb(179,179,179)" stroke-linejoin="round" d="M 45221,7375 L 2152,7375"/>
 <path fill="none" stroke="rgb(179,179,179)" stroke-linejoin="round" d="M 45221,4005 L 2152,4005"/>
 <path fill="none" stroke="rgb(179,179,179)" stroke-linejoin="round" d="M 45221,636 L 2152,636"/>
 <path fill="none" stroke="rgb(221,221,221)" stroke-linejoin="round" d="M 45221,20180 L 2152,20180"/>
 <path fill="none" stroke="rgb(221,221,221)" stroke-linejoin="round" d="M 45221,19506 L 2152,19506"/>
 <path fill="none" stroke="rgb(221,221,221)" stroke-linejoin="round" d="M 45221,18832 L 2152,18832"/>
 <path fill="none" stroke="rgb(221,221,221)" stroke-linejoin="round" d="M 45221,18158 L 2152,18158"/>
 <path fill="none" stroke="rgb(221,221,221)" stroke-linejoin="round" d="M 45221,16810 L 2152,16810"/>
 <path fill="none" stroke="rgb(221,221,221)" stroke-linejoin="round" d="M 45221,16136 L 2152,16136"/>
 <path fill="none" stroke="rgb(221,221,221)" stroke-linejoin="round" d="M 45221,15462 L 2152,15462"/>
 <path fill="none" stroke="rgb(221,221,221)" stroke-linejoin="round" d="M 45221,14788 L 2152,14788"/>
 <path fill="none" stroke="rgb(221,221,221)" stroke-linejoin="round" d="M 45221,13440 L 2152,13440"/>
 <path fill="none" stroke="rgb(221,221,221)" stroke-linejoin="round" d="M 45221,12766 L 2152,12766"/>
 <path fill="none" stroke="rgb(221,221,221)" stroke-linejoin="round" d="M 45221,12092 L 2152,12092"/>
 <path fill="none" stroke="rgb(221,221,221)" stroke-linejoin="round" d="M 45221,11418 L 2152,11418"/>
 <path fill="none" stroke="rgb(221,221,221)" stroke-linejoin="round" d="M 45221,10071 L 2152,10071"/>
 <path fill="none" stroke="rgb(221,221,221)" stroke-linejoin="round" d="M 45221,9397 L 2152,9397"/>
 <path fill="none" stroke="rgb(221,221,221)" stroke-linejoin="round" d="M 45221,8723 L 2152,8723"/>
 <path fill="none" stroke="rgb(221,221,221)" stroke-linejoin="round" d="M 45221,8049 L 2152,8049"/>
 <path fill="none" stroke="rgb(221,221,221)" stroke-linejoin="round" d="M 45221,6701 L 2152,6701"/>
 <path fill="none" stroke="rgb(221,221,221)" stroke-linejoin="round" d="M 45221,6027 L 2152,6027"/>
 <path fill="none" stroke="rgb(221,221,221)" stroke-linejoin="round" d="M 45221,5353 L 2152,5353"/>
 <path fill="none" stroke="rgb(221,221,221)" stroke-linejoin="round" d="M 45221,4679 L 2152,4679"/>
 <path fill="none" stroke="rgb(221,221,221)" stroke-linejoin="round" d="M 45221,3331 L 2152,3331"/>
 <path fill="none" stroke="rgb(221,221,221)" stroke-linejoin="round" d="M 45221,2657 L 2152,2657"/>
 <path fill="none" stroke="rgb(221,221,221)" stroke-linejoin="round" d="M 45221,1983 L 2152,1983"/>
 <path fill="none" stroke="rgb(221,221,221)" stroke-linejoin="round" d="M 45221,1309 L 2152,1309"/>
 <path fill="none" stroke="rgb(179,179,179)" stroke-linejoin="round" d="M 2152,21004 L 2152,20854"/>
 <path fill="none" stroke="rgb(179,179,179)" stroke-linejoin="round" d="M 2152,21004 L 2152,20854"/>
 <path fill="none" stroke="rgb(179,179,179)" stroke-linejoin="round" d="M 2858,21004 L 2858,20854"/>
 <path fill="none" stroke="rgb(179,179,179)" stroke-linejoin="round" d="M 2858,21004 L 2858,20854"/>
 <path fill="none" stroke="rgb(179,179,179)" stroke-linejoin="round" d="M 3564,21004 L 3564,20854"/>
 <path fill="none" stroke="rgb(179,179,179)" stroke-linejoin="round" d="M 3564,21004 L 3564,20854"/>
 <path fill="none" stroke="rgb(179,179,179)" stroke-linejoin="round" d="M 4270,21004 L 4270,20854"/>
 <path fill="none" stroke="rgb(179,179,179)" stroke-linejoin="round" d="M 4270,21004 L 4270,20854"/>
 <path fill="none" stroke="rgb(179,179,179)" stroke-linejoin="round" d="M 4976,21004 L 4976,20854"/>
 <path fill="none" stroke="rgb(179,179,179)" stroke-linejoin="round" d="M 4976,21004 L 4976,20854"/>
 <path fill="none" stroke="rgb(179,179,179)" stroke-linejoin="round" d="M 5682,21004 L 5682,20854"/>
 <path fill="none" stroke="rgb(179,179,179)" stroke-linejoin="round" d="M 5682,21004 L 5682,20854"/>
 <path fill="none" stroke="rgb(179,179,179)" stroke-linejoin="round" d="M 6388,21004 L 6388,20854"/>
 <path fill="none" stroke="rgb(179,179,179)" stroke-linejoin="round" d="M 6388,21004 L 6388,20854"/>
 <path fill="none" stroke="rgb(179,179,179)" stroke-linejoin="round" d="M 7094,21004 L 7094,20854"/>
 <path fill="none" stroke="rgb(179,179,179)" stroke-linejoin="round" d="M 7094,21004 L 7094,20854"/>
 <path fill="none" stroke="rgb(179,179,179)" stroke-linejoin="round" d="M 7800,21004 L 7800,20854"/>
 <path fill="none" stroke="rgb(179,179,179)" stroke-linejoin="round" d="M 7800,21004 L 7800,20854"/>
 <path fill="none" stroke="rgb(179,179,179)" stroke-linejoin="round" d="M 8506,21004 L 8506,20854"/>
 <path fill="none" stroke="rgb(179,179,179)" stroke-linejoin="round" d="M 8506,21004 L 8506,20854"/>
 <path fill="none" stroke="rgb(179,179,179)" stroke-linejoin="round" d="M 9212,21004 L 9212,20854"/>
 <path fill="none" stroke="rgb(179,179,179)" stroke-linejoin="round" d="M 9212,21004 L 9212,20854"/>
 <path fill="none" stroke="rgb(179,179,179)" stroke-linejoin="round" d="M 9918,21004 L 9918,20854"/>
 <path fill="none" stroke="rgb(179,179,179)" stroke-linejoin="round" d="M 9918,21004 L 9918,20854"/>
 <path fill="none" stroke="rgb(179,179,179)" stroke-linejoin="round" d="M 10624,21004 L 10624,20854"/>
 <path fill="none" stroke="rgb(179,179,179)" stroke-linejoin="round" d="M 10624,21004 L 10624,20854"/>
 <path fill="none" stroke="rgb(179,179,179)" stroke-linejoin="round" d="M 11330,21004 L 11330,20854"/>
 <path fill="none" stroke="rgb(179,179,179)" stroke-linejoin="round" d="M 11330,21004 L 11330,20854"/>
 <path fill="none" stroke="rgb(179,179,179)" stroke-linejoin="round" d="M 12036,21004 L 12036,20854"/>
 <path fill="none" stroke="rgb(179,179,179)" stroke-linejoin="round" d="M 12036,21004 L 12036,20854"/>
 <path fill="none" stroke="rgb(179,179,179)" stroke-linejoin="round" d="M 12742,21004 L 12742,20854"/>
 <path fill="none" stroke="rgb(179,179,179)" stroke-linejoin="round" d="M 12742,21004 L 12742,20854"/>
 <path fill="none" stroke="rgb(179,179,179)" stroke-linejoin="round" d="M 13449,21004 L 13449,20854"/>
 <path fill="none" stroke="rgb(179,179,179)" stroke-linejoin="round" d="M 13449,21004 L 13449,20854"/>
 <path fill="none" stroke="rgb(179,179,179)" stroke-linejoin="round" d="M 14155,21004 L 14155,20854"/>
 <path fill="none" stroke="rgb(179,179,179)" stroke-linejoin="round" d="M 14155,21004 L 14155,20854"/>
 <path fill="none" stroke="rgb(179,179,179)" stroke-linejoin="round" d="M 14861,21004 L 14861,20854"/>
 <path fill="none" stroke="rgb(179,179,179)" stroke-linejoin="round" d="M 14861,21004 L 14861,20854"/>
 <path fill="none" stroke="rgb(179,179,179)" stroke-linejoin="round" d="M 15567,21004 L 15567,20854"/>
 <path fill="none" stroke="rgb(179,179,179)" stroke-linejoin="round" d="M 15567,21004 L 15567,20854"/>
 <path fill="none" stroke="rgb(179,179,179)" stroke-linejoin="round" d="M 16273,21004 L 16273,20854"/>
 <path fill="none" stroke="rgb(179,179,179)" stroke-linejoin="round" d="M 16273,21004 L 16273,20854"/>
 <path fill="none" stroke="rgb(179,179,179)" stroke-linejoin="round" d="M 16979,21004 L 16979,20854"/>
 <path fill="none" stroke="rgb(179,179,179)" stroke-linejoin="round" d="M 16979,21004 L 16979,20854"/>
 <path fill="none" stroke="rgb(179,179,179)" stroke-linejoin="round" d="M 17685,21004 L 17685,20854"/>
 <path fill="none" stroke="rgb(179,179,179)" stroke-linejoin="round" d="M 17685,21004 L 17685,20854"/>
 <path fill="none" stroke="rgb(179,179,179)" stroke-linejoin="round" d="M 18391,21004 L 18391,20854"/>
 <path fill="none" stroke="rgb(179,179,179)" stroke-linejoin="round" d="M 18391,21004 L 18391,20854"/>
 <path fill="none" stroke="rgb(179,179,179)" stroke-linejoin="round" d="M 19097,21004 L 19097,20854"/>
 <path fill="none" stroke="rgb(179,179,179)" stroke-linejoin="round" d="M 19097,21004 L 19097,20854"/>
 <path fill="none" stroke="rgb(179,179,179)" stroke-linejoin="round" d="M 19803,21004 L 19803,20854"/>
 <path fill="none" stroke="rgb(179,179,179)" stroke-linejoin="round" d="M 19803,21004 L 19803,20854"/>
 <path fill="none" stroke="rgb(179,179,179)" stroke-linejoin="round" d="M 20509,21004 L 20509,20854"/>
 <path fill="none" stroke="rgb(179,179,179)" stroke-linejoin="round" d="M 20509,21004 L 20509,20854"/>
 <path fill="none" stroke="rgb(179,179,179)" stroke-linejoin="round" d="M 21215,21004 L 21215,20854"/>
 <path fill="none" stroke="rgb(179,179,179)" stroke-linejoin="round" d="M 21215,21004 L 21215,20854"/>
 <path fill="none" stroke="rgb(179,179,179)" stroke-linejoin="round" d="M 21921,21004 L 21921,20854"/>
 <path fill="none" stroke="rgb(179,179,179)" stroke-linejoin="round" d="M 21921,21004 L 21921,20854"/>
 <path fill="none" stroke="rgb(179,179,179)" stroke-linejoin="round" d="M 22627,21004 L 22627,20854"/>
 <path fill="none" stroke="rgb(179,179,179)" stroke-linejoin="round" d="M 22627,21004 L 22627,20854"/>
 <path fill="none" stroke="rgb(179,179,179)" stroke-linejoin="round" d="M 23332,21004 L 23332,20854"/>
 <path fill="none" stroke="rgb(179,179,179)" stroke-linejoin="round" d="M 23332,21004 L 23332,20854"/>
 <path fill="none" stroke="rgb(179,179,179)" stroke-linejoin="round" d="M 24039,21004 L 24039,20854"/>
 <path fill="none" stroke="rgb(179,179,179)" stroke-linejoin="round" d="M 24039,21004 L 24039,20854"/>
 <path fill="none" stroke="rgb(179,179,179)" stroke-linejoin="round" d="M 24745,21004 L 24745,20854"/>
 <path fill="none" stroke="rgb(179,179,179)" stroke-linejoin="round" d="M 24745,21004 L 24745,20854"/>
 <path fill="none" stroke="rgb(179,179,179)" stroke-linejoin="round" d="M 25451,21004 L 25451,20854"/>
 <path fill="none" stroke="rgb(179,179,179)" stroke-linejoin="round" d="M 25451,21004 L 25451,20854"/>
 <path fill="none" stroke="rgb(179,179,179)" stroke-linejoin="round" d="M 26157,21004 L 26157,20854"/>
 <path fill="none" stroke="rgb(179,179,179)" stroke-linejoin="round" d="M 26157,21004 L 26157,20854"/>
 <path fill="none" stroke="rgb(179,179,179)" stroke-linejoin="round" d="M 26863,21004 L 26863,20854"/>
 <path fill="none" stroke="rgb(179,179,179)" stroke-linejoin="round" d="M 26863,21004 L 26863,20854"/>
 <path fill="none" stroke="rgb(179,179,179)" stroke-linejoin="round" d="M 27569,21004 L 27569,20854"/>
 <path fill="none" stroke="rgb(179,179,179)" stroke-linejoin="round" d="M 27569,21004 L 27569,20854"/>
 <path fill="none" stroke="rgb(179,179,179)" stroke-linejoin="round" d="M 28275,21004 L 28275,20854"/>
 <path fill="none" stroke="rgb(179,179,179)" stroke-linejoin="round" d="M 28275,21004 L 28275,20854"/>
 <path fill="none" stroke="rgb(179,179,179)" stroke-linejoin="round" d="M 28981,21004 L 28981,20854"/>
 <path fill="none" stroke="rgb(179,179,179)" stroke-linejoin="round" d="M 28981,21004 L 28981,20854"/>
 <path fill="none" stroke="rgb(179,179,179)" stroke-linejoin="round" d="M 29687,21004 L 29687,20854"/>
 <path fill="none" stroke="rgb(179,179,179)" stroke-linejoin="round" d="M 29687,21004 L 29687,20854"/>
 <path fill="none" stroke="rgb(179,179,179)" stroke-linejoin="round" d="M 30393,21004 L 30393,20854"/>
 <path fill="none" stroke="rgb(179,179,179)" stroke-linejoin="round" d="M 30393,21004 L 30393,20854"/>
 <path fill="none" stroke="rgb(179,179,179)" stroke-linejoin="round" d="M 31099,21004 L 31099,20854"/>
 <path fill="none" stroke="rgb(179,179,179)" stroke-linejoin="round" d="M 31099,21004 L 31099,20854"/>
 <path fill="none" stroke="rgb(179,179,179)" stroke-linejoin="round" d="M 31805,21004 L 31805,20854"/>
 <path fill="none" stroke="rgb(179,179,179)" stroke-linejoin="round" d="M 31805,21004 L 31805,20854"/>
 <path fill="none" stroke="rgb(179,179,179)" stroke-linejoin="round" d="M 32511,21004 L 32511,20854"/>
 <path fill="none" stroke="rgb(179,179,179)" stroke-linejoin="round" d="M 32511,21004 L 32511,20854"/>
 <path fill="none" stroke="rgb(179,179,179)" stroke-linejoin="round" d="M 33217,21004 L 33217,20854"/>
 <path fill="none" stroke="rgb(179,179,179)" stroke-linejoin="round" d="M 33217,21004 L 33217,20854"/>
 <path fill="none" stroke="rgb(179,179,179)" stroke-linejoin="round" d="M 33923,21004 L 33923,20854"/>
 <path fill="none" stroke="rgb(179,179,179)" stroke-linejoin="round" d="M 33923,21004 L 33923,20854"/>
 <path fill="none" stroke="rgb(179,179,179)" stroke-linejoin="round" d="M 34630,21004 L 34630,20854"/>
 <path fill="none" stroke="rgb(179,179,179)" stroke-linejoin="round" d="M 34630,21004 L 34630,20854"/>
 <path fill="none" stroke="rgb(179,179,179)" stroke-linejoin="round" d="M 35336,21004 L 35336,20854"/>
 <path fill="none" stroke="rgb(179,179,179)" stroke-linejoin="round" d="M 35336,21004 L 35336,20854"/>
 <path fill="none" stroke="rgb(179,179,179)" stroke-linejoin="round" d="M 36042,21004 L 36042,20854"/>
 <path fill="none" stroke="rgb(179,179,179)" stroke-linejoin="round" d="M 36042,21004 L 36042,20854"/>
 <path fill="none" stroke="rgb(179,179,179)" stroke-linejoin="round" d="M 36748,21004 L 36748,20854"/>
 <path fill="none" stroke="rgb(179,179,179)" stroke-linejoin="round" d="M 36748,21004 L 36748,20854"/>
 <path fill="none" stroke="rgb(179,179,179)" stroke-linejoin="round" d="M 37454,21004 L 37454,20854"/>
 <path fill="none" stroke="rgb(179,179,179)" stroke-linejoin="round" d="M 37454,21004 L 37454,20854"/>
 <path fill="none" stroke="rgb(179,179,179)" stroke-linejoin="round" d="M 38160,21004 L 38160,20854"/>
 <path fill="none" stroke="rgb(179,179,179)" stroke-linejoin="round" d="M 38160,21004 L 38160,20854"/>
 <path fill="none" stroke="rgb(179,179,179)" stroke-linejoin="round" d="M 38866,21004 L 38866,20854"/>
 <path fill="none" stroke="rgb(179,179,179)" stroke-linejoin="round" d="M 38866,21004 L 38866,20854"/>
 <path fill="none" stroke="rgb(179,179,179)" stroke-linejoin="round" d="M 39572,21004 L 39572,20854"/>
 <path fill="none" stroke="rgb(179,179,179)" stroke-linejoin="round" d="M 39572,21004 L 39572,20854"/>
 <path fill="none" stroke="rgb(179,179,179)" stroke-linejoin="round" d="M 40278,21004 L 40278,20854"/>
 <path fill="none" stroke="rgb(179,179,179)" stroke-linejoin="round" d="M 40278,21004 L 40278,20854"/>
 <path fill="none" stroke="rgb(179,179,179)" stroke-linejoin="round" d="M 40984,21004 L 40984,20854"/>
 <path fill="none" stroke="rgb(179,179,179)" stroke-linejoin="round" d="M 40984,21004 L 40984,20854"/>
 <path fill="none" stroke="rgb(179,179,179)" stroke-linejoin="round" d="M 41690,21004 L 41690,20854"/>
 <path fill="none" stroke="rgb(179,179,179)" stroke-linejoin="round" d="M 41690,21004 L 41690,20854"/>
 <path fill="none" stroke="rgb(179,179,179)" stroke-linejoin="round" d="M 42396,21004 L 42396,20854"/>
 <path fill="none" stroke="rgb(179,179,179)" stroke-linejoin="round" d="M 42396,21004 L 42396,20854"/>
 <path fill="none" stroke="rgb(179,179,179)" stroke-linejoin="round" d="M 43102,21004 L 43102,20854"/>
 <path fill="none" stroke="rgb(179,179,179)" stroke-linejoin="round" d="M 43102,21004 L 43102,20854"/>
 <path fill="none" stroke="rgb(179,179,179)" stroke-linejoin="round" d="M 43808,21004 L 43808,20854"/>
 <path fill="none" stroke="rgb(179,179,179)" stroke-linejoin="round" d="M 43808,21004 L 43808,20854"/>
 <path fill="none" stroke="rgb(179,179,179)" stroke-linejoin="round" d="M 44514,21004 L 44514,20854"/>
 <path fill="none" stroke="rgb(179,179,179)" stroke-linejoin="round" d="M 44514,21004 L 44514,20854"/>
 <path fill="none" stroke="rgb(179,179,179)" stroke-linejoin="round" d="M 45221,21004 L 45221,20854"/>
 <path fill="none" stroke="rgb(179,179,179)" stroke-linejoin="round" d="M 45221,21004 L 45221,20854"/>
 <path fill="none" stroke="rgb(179,179,179)" stroke-linejoin="round" d="M 2152,20854 L 45221,20854"/>
 <path fill="none" stroke="rgb(179,179,179)" stroke-linejoin="round" d="M 2002,20854 L 2152,20854"/>
 <path fill="none" stroke="rgb(179,179,179)" stroke-linejoin="round" d="M 2002,20854 L 2152,20854"/>
 <path fill="none" stroke="rgb(179,179,179)" stroke-linejoin="round" d="M 2002,17484 L 2152,17484"/>
 <path fill="none" stroke="rgb(179,179,179)" stroke-linejoin="round" d="M 2002,17484 L 2152,17484"/>
 <path fill="none" stroke="rgb(179,179,179)" stroke-linejoin="round" d="M 2002,14114 L 2152,14114"/>
 <path fill="none" stroke="rgb(179,179,179)" stroke-linejoin="round" d="M 2002,14114 L 2152,14114"/>
 <path fill="none" stroke="rgb(179,179,179)" stroke-linejoin="round" d="M 2002,10745 L 2152,10745"/>
 <path fill="none" stroke="rgb(179,179,179)" stroke-linejoin="round" d="M 2002,10745 L 2152,10745"/>
 <path fill="none" stroke="rgb(179,179,179)" stroke-linejoin="round" d="M 2002,7375 L 2152,7375"/>
 <path fill="none" stroke="rgb(179,179,179)" stroke-linejoin="round" d="M 2002,7375 L 2152,7375"/>
 <path fill="none" stroke="rgb(179,179,179)" stroke-linejoin="round" d="M 2002,4005 L 2152,4005"/>
 <path fill="none" stroke="rgb(179,179,179)" stroke-linejoin="round" d="M 2002,4005 L 2152,4005"/>
 <path fill="none" stroke="rgb(179,179,179)" stroke-linejoin="round" d="M 2002,636 L 2152,636"/>
 <path fill="none" stroke="rgb(179,179,179)" stroke-linejoin="round" d="M 2002,636 L 2152,636"/>
 <path fill="none" stroke="rgb(179,179,179)" stroke-linejoin="round" d="M 2152,20854 L 2152,636"/>
 <path fill="rgb(0,69,134)" stroke="none" d="M 44691,20854 L 45044,20854 45044,20264 44691,20264 44691,20854 Z"/>
 <path fill="rgb(0,69,134)" stroke="none" d="M 43985,20854 L 44338,20854 44338,20108 43985,20108 43985,20854 Z"/>
 <path fill="rgb(0,69,134)" stroke="none" d="M 43279,20854 L 43632,20854 43632,20077 43279,20077 43279,20854 Z"/>
 <path fill="rgb(0,69,134)" stroke="none" d="M 42573,20854 L 42926,20854 42926,20111 42573,20111 42573,20854 Z"/>
 <path fill="rgb(0,69,134)" stroke="none" d="M 41867,20854 L 42220,20854 42220,20044 41867,20044 41867,20854 Z"/>
 <path fill="rgb(0,69,134)" stroke="none" d="M 41161,20854 L 41514,20854 41514,20053 41161,20053 41161,20854 Z"/>
 <path fill="rgb(0,69,134)" stroke="none" d="M 40455,20854 L 40808,20854 40808,19995 40455,19995 40455,20854 Z"/>
 <path fill="rgb(0,69,134)" stroke="none" d="M 39748,20854 L 40102,20854 40102,20015 39748,20015 39748,20854 Z"/>
 <path fill="rgb(0,69,134)" stroke="none" d="M 39042,20854 L 39395,20854 39395,19933 39042,19933 39042,20854 Z"/>
 <path fill="rgb(0,69,134)" stroke="none" d="M 38336,20854 L 38689,20854 38689,19972 38336,19972 38336,20854 Z"/>
 <path fill="rgb(0,69,134)" stroke="none" d="M 37630,20854 L 37983,20854 37983,19979 37630,19979 37630,20854 Z"/>
 <path fill="rgb(0,69,134)" stroke="none" d="M 36924,20854 L 37277,20854 37277,19883 36924,19883 36924,20854 Z"/>
 <path fill="rgb(0,69,134)" stroke="none" d="M 36218,20854 L 36571,20854 36571,19906 36218,19906 36218,20854 Z"/>
 <path fill="rgb(0,69,134)" stroke="none" d="M 35512,20854 L 35865,20854 35865,19891 35512,19891 35512,20854 Z"/>
 <path fill="rgb(0,69,134)" stroke="none" d="M 34806,20854 L 35159,20854 35159,19766 34806,19766 34806,20854 Z"/>
 <path fill="rgb(0,69,134)" stroke="none" d="M 34100,20854 L 34453,20854 34453,19789 34100,19789 34100,20854 Z"/>
 <path fill="rgb(0,69,134)" stroke="none" d="M 33394,20854 L 33747,20854 33747,19767 33394,19767 33394,20854 Z"/>
 <path fill="rgb(0,69,134)" stroke="none" d="M 32688,20854 L 33041,20854 33041,19621 32688,19621 32688,20854 Z"/>
 <path fill="rgb(0,69,134)" stroke="none" d="M 31982,20854 L 32335,20854 32335,19627 31982,19627 31982,20854 Z"/>
 <path fill="rgb(0,69,134)" stroke="none" d="M 31276,20854 L 31629,20854 31629,19635 31276,19635 31276,20854 Z"/>
 <path fill="rgb(0,69,134)" stroke="none" d="M 30570,20854 L 30923,20854 30923,19538 30570,19538 30570,20854 Z"/>
 <path fill="rgb(0,69,134)" stroke="none" d="M 29864,20854 L 30217,20854 30217,19498 29864,19498 29864,20854 Z"/>
 <path fill="rgb(0,69,134)" stroke="none" d="M 29158,20854 L 29511,20854 29511,19433 29158,19433 29158,20854 Z"/>
 <path fill="rgb(0,69,134)" stroke="none" d="M 28451,20854 L 28804,20854 28804,19295 28451,19295 28451,20854 Z"/>
 <path fill="rgb(0,69,134)" stroke="none" d="M 27745,20854 L 28098,20854 28098,19285 27745,19285 27745,20854 Z"/>
 <path fill="rgb(0,69,134)" stroke="none" d="M 27039,20854 L 27392,20854 27392,19276 27039,19276 27039,20854 Z"/>
 <path fill="rgb(0,69,134)" stroke="none" d="M 26333,20854 L 26686,20854 26686,19139 26333,19139 26333,20854 Z"/>
 <path fill="rgb(0,69,134)" stroke="none" d="M 25627,20854 L 25980,20854 25980,19069 25627,19069 25627,20854 Z"/>
 <path fill="rgb(0,69,134)" stroke="none" d="M 24921,20854 L 25274,20854 25274,18977 24921,18977 24921,20854 Z"/>
 <path fill="rgb(0,69,134)" stroke="none" d="M 24215,20854 L 24568,20854 24568,18911 24215,18911 24215,20854 Z"/>
 <path fill="rgb(0,69,134)" stroke="none" d="M 23509,20854 L 23862,20854 23862,18908 23509,18908 23509,20854 Z"/>
 <path fill="rgb(0,69,134)" stroke="none" d="M 22804,20854 L 23156,20854 23156,18624 22804,18624 22804,20854 Z"/>
 <path fill="rgb(0,69,134)" stroke="none" d="M 22098,20854 L 22451,20854 22451,18550 22098,18550 22098,20854 Z"/>
 <path fill="rgb(0,69,134)" stroke="none" d="M 21392,20854 L 21745,20854 21745,18414 21392,18414 21392,20854 Z"/>
 <path fill="rgb(0,69,134)" stroke="none" d="M 20686,20854 L 21039,20854 21039,18339 20686,18339 20686,20854 Z"/>
 <path fill="rgb(0,69,134)" stroke="none" d="M 19980,20854 L 20333,20854 20333,18278 19980,18278 19980,20854 Z"/>
 <path fill="rgb(0,69,134)" stroke="none" d="M 19274,20854 L 19627,20854 19627,18062 19274,18062 19274,20854 Z"/>
 <path fill="rgb(0,69,134)" stroke="none" d="M 18568,20854 L 18921,20854 18921,17963 18568,17963 18568,20854 Z"/>
 <path fill="rgb(0,69,134)" stroke="none" d="M 17861,20854 L 18214,20854 18214,17728 17861,17728 17861,20854 Z"/>
 <path fill="rgb(0,69,134)" stroke="none" d="M 17155,20854 L 17508,20854 17508,17361 17155,17361 17155,20854 Z"/>
 <path fill="rgb(0,69,134)" stroke="none" d="M 16449,20854 L 16802,20854 16802,17111 16449,17111 16449,20854 Z"/>
 <path fill="rgb(0,69,134)" stroke="none" d="M 15743,20854 L 16096,20854 16096,16965 15743,16965 15743,20854 Z"/>
 <path fill="rgb(0,69,134)" stroke="none" d="M 15037,20854 L 15390,20854 15390,16573 15037,16573 15037,20854 Z"/>
 <path fill="rgb(0,69,134)" stroke="none" d="M 14331,20854 L 14684,20854 14684,16292 14331,16292 14331,20854 Z"/>
 <path fill="rgb(0,69,134)" stroke="none" d="M 13625,20854 L 13978,20854 13978,15625 13625,15625 13625,20854 Z"/>
 <path fill="rgb(0,69,134)" stroke="none" d="M 12919,20854 L 13272,20854 13272,15489 12919,15489 12919,20854 Z"/>
 <path fill="rgb(0,69,134)" stroke="none" d="M 12213,20854 L 12566,20854 12566,14999 12213,14999 12213,20854 Z"/>
 <path fill="rgb(0,69,134)" stroke="none" d="M 11507,20854 L 11860,20854 11860,14619 11507,14619 11507,20854 Z"/>
 <path fill="rgb(0,69,134)" stroke="none" d="M 10801,20854 L 11154,20854 11154,13788 10801,13788 10801,20854 Z"/>
 <path fill="rgb(0,69,134)" stroke="none" d="M 10095,20854 L 10448,20854 10448,13289 10095,13289 10095,20854 Z"/>
 <path fill="rgb(0,69,134)" stroke="none" d="M 9389,20854 L 9742,20854 9742,12443 9389,12443 9389,20854 Z"/>
 <path fill="rgb(0,69,134)" stroke="none" d="M 8683,20854 L 9036,20854 9036,11482 8683,11482 8683,20854 Z"/>
 <path fill="rgb(0,69,134)" stroke="none" d="M 7977,20854 L 8330,20854 8330,10357 7977,10357 7977,20854 Z"/>
 <path fill="rgb(0,69,134)" stroke="none" d="M 7270,20854 L 7624,20854 7624,8523 7270,8523 7270,20854 Z"/>
 <path fill="rgb(0,69,134)" stroke="none" d="M 6564,20854 L 6917,20854 6917,6570 6564,6570 6564,20854 Z"/>
 <path fill="rgb(0,69,134)" stroke="none" d="M 5858,20854 L 6211,20854 6211,4465 5858,4465 5858,20854 Z"/>
 <path fill="rgb(0,69,134)" stroke="none" d="M 5152,20854 L 5505,20854 5505,3801 5152,3801 5152,20854 Z"/>
 <path fill="rgb(0,69,134)" stroke="none" d="M 4446,20854 L 4799,20854 4799,5334 4446,5334 4446,20854 Z"/>
 <path fill="rgb(0,69,134)" stroke="none" d="M 3740,20854 L 4093,20854 4093,9205 3740,9205 3740,20854 Z"/>
 <path fill="rgb(0,69,134)" stroke="none" d="M 3034,20854 L 3387,20854 3387,14905 3034,14905 3034,20854 Z"/>
 <path fill="rgb(0,69,134)" stroke="none" d="M 2328,20854 L 2681,20854 2681,19816 2328,19816 2328,20854 Z"/>
 <text class="TextShape"><tspan class="TextParagraph" font-family="Liberation Sans, sans-serif" font-size="353px" font-weight="400"><tspan class="TextPosition" x="2412" y="21422"><tspan fill="rgb(0,0,0)" stroke="none">1</tspan></tspan></tspan></text>
 <text class="TextShape"><tspan class="TextParagraph" font-family="Liberation Sans, sans-serif" font-size="353px" font-weight="400"><tspan class="TextPosition" x="3118" y="21422"><tspan fill="rgb(0,0,0)" stroke="none">2</tspan></tspan></tspan></text>
 <text class="TextShape"><tspan class="TextParagraph" font-family="Liberation Sans, sans-serif" font-size="353px" font-weight="400"><tspan class="TextPosition" x="3824" y="21422"><tspan fill="rgb(0,0,0)" stroke="none">3</tspan></tspan></tspan></text>
 <text class="TextShape"><tspan class="TextParagraph" font-family="Liberation Sans, sans-serif" font-size="353px" font-weight="400"><tspan class="TextPosition" x="4530" y="21422"><tspan fill="rgb(0,0,0)" stroke="none">4</tspan></tspan></tspan></text>
 <text class="TextShape"><tspan class="TextParagraph" font-family="Liberation Sans, sans-serif" font-size="353px" font-weight="400"><tspan class="TextPosition" x="5236" y="21422"><tspan fill="rgb(0,0,0)" stroke="none">5</tspan></tspan></tspan></text>
 <text class="TextShape"><tspan class="TextParagraph" font-family="Liberation Sans, sans-serif" font-size="353px" font-weight="400"><tspan class="TextPosition" x="5942" y="21422"><tspan fill="rgb(0,0,0)" stroke="none">6</tspan></tspan></tspan></text>
 <text class="TextShape"><tspan class="TextParagraph" font-family="Liberation Sans, sans-serif" font-size="353px" font-weight="400"><tspan class="TextPosition" x="6648" y="21422"><tspan fill="rgb(0,0,0)" stroke="none">7</tspan></tspan></tspan></text>
 <text class="TextShape"><tspan class="TextParagraph" font-family="Liberation Sans, sans-serif" font-size="353px" font-weight="400"><tspan class="TextPosition" x="7354" y="21422"><tspan fill="rgb(0,0,0)" stroke="none">8</tspan></tspan></tspan></text>
 <text class="TextShape"><tspan class="TextParagraph" font-family="Liberation Sans, sans-serif" font-size="353px" font-weight="400"><tspan class="TextPosition" x="8060" y="21422"><tspan fill="rgb(0,0,0)" stroke="none">9</tspan></tspan></tspan></text>
 <text class="TextShape"><tspan class="TextParagraph" font-family="Liberation Sans, sans-serif" font-size="353px" font-weight="400"><tspan class="TextPosition" x="8674" y="21422"><tspan fill="rgb(0,0,0)" stroke="none">10</tspan></tspan></tspan></text>
 <text class="TextShape"><tspan class="TextParagraph" font-family="Liberation Sans, sans-serif" font-size="353px" font-weight="400"><tspan class="TextPosition" x="9380" y="21422"><tspan fill="rgb(0,0,0)" stroke="none">11</tspan></tspan></tspan></text>
 <text class="TextShape"><tspan class="TextParagraph" font-family="Liberation Sans, sans-serif" font-size="353px" font-weight="400"><tspan class="TextPosition" x="10086" y="21422"><tspan fill="rgb(0,0,0)" stroke="none">12</tspan></tspan></tspan></text>
 <text class="TextShape"><tspan class="TextParagraph" font-family="Liberation Sans, sans-serif" font-size="353px" font-weight="400"><tspan class="TextPosition" x="10792" y="21422"><tspan fill="rgb(0,0,0)" stroke="none">13</tspan></tspan></tspan></text>
 <text class="TextShape"><tspan class="TextParagraph" font-family="Liberation Sans, sans-serif" font-size="353px" font-weight="400"><tspan class="TextPosition" x="11498" y="21422"><tspan fill="rgb(0,0,0)" stroke="none">14</tspan></tspan></tspan></text>
 <text class="TextShape"><tspan class="TextParagraph" font-family="Liberation Sans, sans-serif" font-size="353px" font-weight="400"><tspan class="TextPosition" x="12204" y="21422"><tspan fill="rgb(0,0,0)" stroke="none">15</tspan></tspan></tspan></text>
 <text class="TextShape"><tspan class="TextParagraph" font-family="Liberation Sans, sans-serif" font-size="353px" font-weight="400"><tspan class="TextPosition" x="12911" y="21422"><tspan fill="rgb(0,0,0)" stroke="none">16</tspan></tspan></tspan></text>
 <text class="TextShape"><tspan class="TextParagraph" font-family="Liberation Sans, sans-serif" font-size="353px" font-weight="400"><tspan class="TextPosition" x="13617" y="21422"><tspan fill="rgb(0,0,0)" stroke="none">17</tspan></tspan></tspan></text>
 <text class="TextShape"><tspan class="TextParagraph" font-family="Liberation Sans, sans-serif" font-size="353px" font-weight="400"><tspan class="TextPosition" x="14323" y="21422"><tspan fill="rgb(0,0,0)" stroke="none">18</tspan></tspan></tspan></text>
 <text class="TextShape"><tspan class="TextParagraph" font-family="Liberation Sans, sans-serif" font-size="353px" font-weight="400"><tspan class="TextPosition" x="15029" y="21422"><tspan fill="rgb(0,0,0)" stroke="none">19</tspan></tspan></tspan></text>
 <text class="TextShape"><tspan class="TextParagraph" font-family="Liberation Sans, sans-serif" font-size="353px" font-weight="400"><tspan class="TextPosition" x="15735" y="21422"><tspan fill="rgb(0,0,0)" stroke="none">20</tspan></tspan></tspan></text>
 <text class="TextShape"><tspan class="TextParagraph" font-family="Liberation Sans, sans-serif" font-size="353px" font-weight="400"><tspan class="TextPosition" x="16441" y="21422"><tspan fill="rgb(0,0,0)" stroke="none">21</tspan></tspan></tspan></text>
 <text class="TextShape"><tspan class="TextParagraph" font-family="Liberation Sans, sans-serif" font-size="353px" font-weight="400"><tspan class="TextPosition" x="17147" y="21422"><tspan fill="rgb(0,0,0)" stroke="none">22</tspan></tspan></tspan></text>
 <text class="TextShape"><tspan class="TextParagraph" font-family="Liberation Sans, sans-serif" font-size="353px" font-weight="400"><tspan class="TextPosition" x="17853" y="21422"><tspan fill="rgb(0,0,0)" stroke="none">23</tspan></tspan></tspan></text>
 <text class="TextShape"><tspan class="TextParagraph" font-family="Liberation Sans, sans-serif" font-size="353px" font-weight="400"><tspan class="TextPosition" x="18559" y="21422"><tspan fill="rgb(0,0,0)" stroke="none">24</tspan></tspan></tspan></text>
 <text class="TextShape"><tspan class="TextParagraph" font-family="Liberation Sans, sans-serif" font-size="353px" font-weight="400"><tspan class="TextPosition" x="19265" y="21422"><tspan fill="rgb(0,0,0)" stroke="none">25</tspan></tspan></tspan></text>
 <text class="TextShape"><tspan class="TextParagraph" font-family="Liberation Sans, sans-serif" font-size="353px" font-weight="400"><tspan class="TextPosition" x="19971" y="21422"><tspan fill="rgb(0,0,0)" stroke="none">26</tspan></tspan></tspan></text>
 <text class="TextShape"><tspan class="TextParagraph" font-family="Liberation Sans, sans-serif" font-size="353px" font-weight="400"><tspan class="TextPosition" x="20677" y="21422"><tspan fill="rgb(0,0,0)" stroke="none">27</tspan></tspan></tspan></text>
 <text class="TextShape"><tspan class="TextParagraph" font-family="Liberation Sans, sans-serif" font-size="353px" font-weight="400"><tspan class="TextPosition" x="21383" y="21422"><tspan fill="rgb(0,0,0)" stroke="none">28</tspan></tspan></tspan></text>
 <text class="TextShape"><tspan class="TextParagraph" font-family="Liberation Sans, sans-serif" font-size="353px" font-weight="400"><tspan class="TextPosition" x="22089" y="21422"><tspan fill="rgb(0,0,0)" stroke="none">29</tspan></tspan></tspan></text>
 <text class="TextShape"><tspan class="TextParagraph" font-family="Liberation Sans, sans-serif" font-size="353px" font-weight="400"><tspan class="TextPosition" x="22795" y="21422"><tspan fill="rgb(0,0,0)" stroke="none">30</tspan></tspan></tspan></text>
 <text class="TextShape"><tspan class="TextParagraph" font-family="Liberation Sans, sans-serif" font-size="353px" font-weight="400"><tspan class="TextPosition" x="23502" y="21422"><tspan fill="rgb(0,0,0)" stroke="none">31</tspan></tspan></tspan></text>
 <text class="TextShape"><tspan class="TextParagraph" font-family="Liberation Sans, sans-serif" font-size="353px" font-weight="400"><tspan class="TextPosition" x="24208" y="21422"><tspan fill="rgb(0,0,0)" stroke="none">32</tspan></tspan></tspan></text>
 <text class="TextShape"><tspan class="TextParagraph" font-family="Liberation Sans, sans-serif" font-size="353px" font-weight="400"><tspan class="TextPosition" x="24914" y="21422"><tspan fill="rgb(0,0,0)" stroke="none">33</tspan></tspan></tspan></text>
 <text class="TextShape"><tspan class="TextParagraph" font-family="Liberation Sans, sans-serif" font-size="353px" font-weight="400"><tspan class="TextPosition" x="25620" y="21422"><tspan fill="rgb(0,0,0)" stroke="none">34</tspan></tspan></tspan></text>
 <text class="TextShape"><tspan class="TextParagraph" font-family="Liberation Sans, sans-serif" font-size="353px" font-weight="400"><tspan class="TextPosition" x="26326" y="21422"><tspan fill="rgb(0,0,0)" stroke="none">35</tspan></tspan></tspan></text>
 <text class="TextShape"><tspan class="TextParagraph" font-family="Liberation Sans, sans-serif" font-size="353px" font-weight="400"><tspan class="TextPosition" x="27032" y="21422"><tspan fill="rgb(0,0,0)" stroke="none">36</tspan></tspan></tspan></text>
 <text class="TextShape"><tspan class="TextParagraph" font-family="Liberation Sans, sans-serif" font-size="353px" font-weight="400"><tspan class="TextPosition" x="27738" y="21422"><tspan fill="rgb(0,0,0)" stroke="none">37</tspan></tspan></tspan></text>
 <text class="TextShape"><tspan class="TextParagraph" font-family="Liberation Sans, sans-serif" font-size="353px" font-weight="400"><tspan class="TextPosition" x="28444" y="21422"><tspan fill="rgb(0,0,0)" stroke="none">38</tspan></tspan></tspan></text>
 <text class="TextShape"><tspan class="TextParagraph" font-family="Liberation Sans, sans-serif" font-size="353px" font-weight="400"><tspan class="TextPosition" x="29150" y="21422"><tspan fill="rgb(0,0,0)" stroke="none">39</tspan></tspan></tspan></text>
 <text class="TextShape"><tspan class="TextParagraph" font-family="Liberation Sans, sans-serif" font-size="353px" font-weight="400"><tspan class="TextPosition" x="29856" y="21422"><tspan fill="rgb(0,0,0)" stroke="none">40</tspan></tspan></tspan></text>
 <text class="TextShape"><tspan class="TextParagraph" font-family="Liberation Sans, sans-serif" font-size="353px" font-weight="400"><tspan class="TextPosition" x="30562" y="21422"><tspan fill="rgb(0,0,0)" stroke="none">41</tspan></tspan></tspan></text>
 <text class="TextShape"><tspan class="TextParagraph" font-family="Liberation Sans, sans-serif" font-size="353px" font-weight="400"><tspan class="TextPosition" x="31268" y="21422"><tspan fill="rgb(0,0,0)" stroke="none">42</tspan></tspan></tspan></text>
 <text class="TextShape"><tspan class="TextParagraph" font-family="Liberation Sans, sans-serif" font-size="353px" font-weight="400"><tspan class="TextPosition" x="31974" y="21422"><tspan fill="rgb(0,0,0)" stroke="none">43</tspan></tspan></tspan></text>
 <text class="TextShape"><tspan class="TextParagraph" font-family="Liberation Sans, sans-serif" font-size="353px" font-weight="400"><tspan class="TextPosition" x="32680" y="21422"><tspan fill="rgb(0,0,0)" stroke="none">44</tspan></tspan></tspan></text>
 <text class="TextShape"><tspan class="TextParagraph" font-family="Liberation Sans, sans-serif" font-size="353px" font-weight="400"><tspan class="TextPosition" x="33386" y="21422"><tspan fill="rgb(0,0,0)" stroke="none">45</tspan></tspan></tspan></text>
 <text class="TextShape"><tspan class="TextParagraph" font-family="Liberation Sans, sans-serif" font-size="353px" font-weight="400"><tspan class="TextPosition" x="34092" y="21422"><tspan fill="rgb(0,0,0)" stroke="none">46</tspan></tspan></tspan></text>
 <text class="TextShape"><tspan class="TextParagraph" font-family="Liberation Sans, sans-serif" font-size="353px" font-weight="400"><tspan class="TextPosition" x="34799" y="21422"><tspan fill="rgb(0,0,0)" stroke="none">47</tspan></tspan></tspan></text>
 <text class="TextShape"><tspan class="TextParagraph" font-family="Liberation Sans, sans-serif" font-size="353px" font-weight="400"><tspan class="TextPosition" x="35505" y="21422"><tspan fill="rgb(0,0,0)" stroke="none">48</tspan></tspan></tspan></text>
 <text class="TextShape"><tspan class="TextParagraph" font-family="Liberation Sans, sans-serif" font-size="353px" font-weight="400"><tspan class="TextPosition" x="36211" y="21422"><tspan fill="rgb(0,0,0)" stroke="none">49</tspan></tspan></tspan></text>
 <text class="TextShape"><tspan class="TextParagraph" font-family="Liberation Sans, sans-serif" font-size="353px" font-weight="400"><tspan class="TextPosition" x="36917" y="21422"><tspan fill="rgb(0,0,0)" stroke="none">50</tspan></tspan></tspan></text>
 <text class="TextShape"><tspan class="TextParagraph" font-family="Liberation Sans, sans-serif" font-size="353px" font-weight="400"><tspan class="TextPosition" x="37623" y="21422"><tspan fill="rgb(0,0,0)" stroke="none">51</tspan></tspan></tspan></text>
 <text class="TextShape"><tspan class="TextParagraph" font-family="Liberation Sans, sans-serif" font-size="353px" font-weight="400"><tspan class="TextPosition" x="38329" y="21422"><tspan fill="rgb(0,0,0)" stroke="none">52</tspan></tspan></tspan></text>
 <text class="TextShape"><tspan class="TextParagraph" font-family="Liberation Sans, sans-serif" font-size="353px" font-weight="400"><tspan class="TextPosition" x="39035" y="21422"><tspan fill="rgb(0,0,0)" stroke="none">53</tspan></tspan></tspan></text>
 <text class="TextShape"><tspan class="TextParagraph" font-family="Liberation Sans, sans-serif" font-size="353px" font-weight="400"><tspan class="TextPosition" x="39741" y="21422"><tspan fill="rgb(0,0,0)" stroke="none">54</tspan></tspan></tspan></text>
 <text class="TextShape"><tspan class="TextParagraph" font-family="Liberation Sans, sans-serif" font-size="353px" font-weight="400"><tspan class="TextPosition" x="40447" y="21422"><tspan fill="rgb(0,0,0)" stroke="none">55</tspan></tspan></tspan></text>
 <text class="TextShape"><tspan class="TextParagraph" font-family="Liberation Sans, sans-serif" font-size="353px" font-weight="400"><tspan class="TextPosition" x="41153" y="21422"><tspan fill="rgb(0,0,0)" stroke="none">56</tspan></tspan></tspan></text>
 <text class="TextShape"><tspan class="TextParagraph" font-family="Liberation Sans, sans-serif" font-size="353px" font-weight="400"><tspan class="TextPosition" x="41859" y="21422"><tspan fill="rgb(0,0,0)" stroke="none">57</tspan></tspan></tspan></text>
 <text class="TextShape"><tspan class="TextParagraph" font-family="Liberation Sans, sans-serif" font-size="353px" font-weight="400"><tspan class="TextPosition" x="42565" y="21422"><tspan fill="rgb(0,0,0)" stroke="none">58</tspan></tspan></tspan></text>
 <text class="TextShape"><tspan class="TextParagraph" font-family="Liberation Sans, sans-serif" font-size="353px" font-weight="400"><tspan class="TextPosition" x="43271" y="21422"><tspan fill="rgb(0,0,0)" stroke="none">59</tspan></tspan></tspan></text>
 <text class="TextShape"><tspan class="TextParagraph" font-family="Liberation Sans, sans-serif" font-size="353px" font-weight="400"><tspan class="TextPosition" x="43977" y="21422"><tspan fill="rgb(0,0,0)" stroke="none">60</tspan></tspan></tspan></text>
 <text class="TextShape"><tspan class="TextParagraph" font-family="Liberation Sans, sans-serif" font-size="353px" font-weight="400"><tspan class="TextPosition" x="44683" y="21422"><tspan fill="rgb(0,0,0)" stroke="none">61</tspan></tspan></tspan></text>
 <text class="TextShape"><tspan class="TextParagraph" font-family="Liberation Sans, sans-serif" font-size="353px" font-weight="400"><tspan class="TextPosition" x="923" y="20975"><tspan fill="rgb(0,0,0)" stroke="none">0,00%</tspan></tspan></tspan></text>
 <text class="TextShape"><tspan class="TextParagraph" font-family="Liberation Sans, sans-serif" font-size="353px" font-weight="400"><tspan class="TextPosition" x="923" y="17605"><tspan fill="rgb(0,0,0)" stroke="none">1,00%</tspan></tspan></tspan></text>
 <text class="TextShape"><tspan class="TextParagraph" font-family="Liberation Sans, sans-serif" font-size="353px" font-weight="400"><tspan class="TextPosition" x="923" y="14235"><tspan fill="rgb(0,0,0)" stroke="none">2,00%</tspan></tspan></tspan></text>
 <text class="TextShape"><tspan class="TextParagraph" font-family="Liberation Sans, sans-serif" font-size="353px" font-weight="400"><tspan class="TextPosition" x="923" y="10865"><tspan fill="rgb(0,0,0)" stroke="none">3,00%</tspan></tspan></tspan></text>
 <text class="TextShape"><tspan class="TextParagraph" font-family="Liberation Sans, sans-serif" font-size="353px" font-weight="400"><tspan class="TextPosition" x="923" y="7495"><tspan fill="rgb(0,0,0)" stroke="none">4,00%</tspan></tspan></tspan></text>
 <text class="TextShape"><tspan class="TextParagraph" font-family="Liberation Sans, sans-serif" font-size="353px" font-weight="400"><tspan class="TextPosition" x="923" y="4125"><tspan fill="rgb(0,0,0)" stroke="none">5,00%</tspan></tspan></tspan></text>
 <text class="TextShape"><tspan class="TextParagraph" font-family="Liberation Sans, sans-serif" font-size="353px" font-weight="400"><tspan class="TextPosition" x="923" y="756"><tspan fill="rgb(0,0,0)" stroke="none">6,00%</tspan></tspan></tspan></text>
</svg>