<?xml version="1.0" encoding="UTF-8"?>
<!DOCTYPE svg PUBLIC "-//W3C//DTD SVG 1.1//EN" "http://www.w3.org/Graphics/SVG/1.1/DTD/svg11.dtd">
<svg width="478mm" height="223mm" viewBox="0 0 47800 22300" version="1.1" xmlns="http://www.w3.org/2000/svg" xmlns:xlink="http://www.w3.org/1999/xlink" stroke-width="28.222" stroke-linejoin="round" xml:space="preserve">
 <path fill="rgb(255,255,255)" stroke="none" d="M 23896,22259 L -7,22259 -7,0 47800,0 47800,22259 23896,22259 Z"/>
 <path fill="none" stroke="rgb(179,179,179)" stroke-linejoin="round" d="M 23937,20953 L 1988,20953 1988,706 45886,706 45886,20953 23937,20953 Z"/>
 <path fill="none" stroke="rgb(179,179,179)" stroke-linejoin="round" d="M 1988,705 L 1988,20952"/>
 <path fill="none" stroke="rgb(179,179,179)" stroke-linejoin="round" d="M 4426,705 L 4426,20952"/>
 <path fill="none" stroke="rgb(179,179,179)" stroke-linejoin="round" d="M 6865,705 L 6865,20952"/>
 <path fill="none" stroke="rgb(179,179,179)" stroke-linejoin="round" d="M 9304,705 L 9304,20952"/>
 <path fill="none" stroke="rgb(179,179,179)" stroke-linejoin="round" d="M 11743,705 L 11743,20952"/>
 <path fill="none" stroke="rgb(179,179,179)" stroke-linejoin="round" d="M 14182,705 L 14182,20952"/>
 <path fill="none" stroke="rgb(179,179,179)" stroke-linejoin="round" d="M 16621,705 L 16621,20952"/>
 <path fill="none" stroke="rgb(179,179,179)" stroke-linejoin="round" d="M 19059,705 L 19059,20952"/>
 <path fill="none" stroke="rgb(179,179,179)" stroke-linejoin="round" d="M 21498,705 L 21498,20952"/>
 <path fill="none" stroke="rgb(179,179,179)" stroke-linejoin="round" d="M 23936,705 L 23936,20952"/>
 <path fill="none" stroke="rgb(179,179,179)" stroke-linejoin="round" d="M 26375,705 L 26375,20952"/>
 <path fill="none" stroke="rgb(179,179,179)" stroke-linejoin="round" d="M 28814,705 L 28814,20952"/>
 <path fill="none" stroke="rgb(179,179,179)" stroke-linejoin="round" d="M 31253,705 L 31253,20952"/>
 <path fill="none" stroke="rgb(179,179,179)" stroke-linejoin="round" d="M 33691,705 L 33691,20952"/>
 <path fill="none" stroke="rgb(179,179,179)" stroke-linejoin="round" d="M 36130,705 L 36130,20952"/>
 <path fill="none" stroke="rgb(179,179,179)" stroke-linejoin="round" d="M 38569,705 L 38569,20952"/>
 <path fill="none" stroke="rgb(179,179,179)" stroke-linejoin="round" d="M 41008,705 L 41008,20952"/>
 <path fill="none" stroke="rgb(179,179,179)" stroke-linejoin="round" d="M 43447,705 L 43447,20952"/>
 <path fill="none" stroke="rgb(179,179,179)" stroke-linejoin="round" d="M 45886,705 L 45886,20952"/>
 <path fill="none" stroke="rgb(238,238,238)" stroke-linejoin="round" d="M 2475,705 L 2475,20952"/>
 <path fill="none" stroke="rgb(238,238,238)" stroke-linejoin="round" d="M 2963,705 L 2963,20952"/>
 <path fill="none" stroke="rgb(238,238,238)" stroke-linejoin="round" d="M 3451,705 L 3451,20952"/>
 <path fill="none" stroke="rgb(238,238,238)" stroke-linejoin="round" d="M 3939,705 L 3939,20952"/>
 <path fill="none" stroke="rgb(238,238,238)" stroke-linejoin="round" d="M 4914,705 L 4914,20952"/>
 <path fill="none" stroke="rgb(238,238,238)" stroke-linejoin="round" d="M 5402,705 L 5402,20952"/>
 <path fill="none" stroke="rgb(238,238,238)" stroke-linejoin="round" d="M 5890,705 L 5890,20952"/>
 <path fill="none" stroke="rgb(238,238,238)" stroke-linejoin="round" d="M 6377,705 L 6377,20952"/>
 <path fill="none" stroke="rgb(238,238,238)" stroke-linejoin="round" d="M 7353,705 L 7353,20952"/>
 <path fill="none" stroke="rgb(238,238,238)" stroke-linejoin="round" d="M 7841,705 L 7841,20952"/>
 <path fill="none" stroke="rgb(238,238,238)" stroke-linejoin="round" d="M 8328,705 L 8328,20952"/>
 <path fill="none" stroke="rgb(238,238,238)" stroke-linejoin="round" d="M 8816,705 L 8816,20952"/>
 <path fill="none" stroke="rgb(238,238,238)" stroke-linejoin="round" d="M 9792,705 L 9792,20952"/>
 <path fill="none" stroke="rgb(238,238,238)" stroke-linejoin="round" d="M 10280,705 L 10280,20952"/>
 <path fill="none" stroke="rgb(238,238,238)" stroke-linejoin="round" d="M 10767,705 L 10767,20952"/>
 <path fill="none" stroke="rgb(238,238,238)" stroke-linejoin="round" d="M 11255,705 L 11255,20952"/>
 <path fill="none" stroke="rgb(238,238,238)" stroke-linejoin="round" d="M 12231,705 L 12231,20952"/>
 <path fill="none" stroke="rgb(238,238,238)" stroke-linejoin="round" d="M 12718,705 L 12718,20952"/>
 <path fill="none" stroke="rgb(238,238,238)" stroke-linejoin="round" d="M 13206,705 L 13206,20952"/>
 <path fill="none" stroke="rgb(238,238,238)" stroke-linejoin="round" d="M 13694,705 L 13694,20952"/>
 <path fill="none" stroke="rgb(238,238,238)" stroke-linejoin="round" d="M 14669,705 L 14669,20952"/>
 <path fill="none" stroke="rgb(238,238,238)" stroke-linejoin="round" d="M 15157,705 L 15157,20952"/>
 <path fill="none" stroke="rgb(238,238,238)" stroke-linejoin="round" d="M 15645,705 L 15645,20952"/>
 <path fill="none" stroke="rgb(238,238,238)" stroke-linejoin="round" d="M 16133,705 L 16133,20952"/>
 <path fill="none" stroke="rgb(238,238,238)" stroke-linejoin="round" d="M 17108,705 L 17108,20952"/>
 <path fill="none" stroke="rgb(238,238,238)" stroke-linejoin="round" d="M 17596,705 L 17596,20952"/>
 <path fill="none" stroke="rgb(238,238,238)" stroke-linejoin="round" d="M 18084,705 L 18084,20952"/>
 <path fill="none" stroke="rgb(238,238,238)" stroke-linejoin="round" d="M 18572,705 L 18572,20952"/>
 <path fill="none" stroke="rgb(238,238,238)" stroke-linejoin="round" d="M 19547,705 L 19547,20952"/>
 <path fill="none" stroke="rgb(238,238,238)" stroke-linejoin="round" d="M 20035,705 L 20035,20952"/>
 <path fill="none" stroke="rgb(238,238,238)" stroke-linejoin="round" d="M 20523,705 L 20523,20952"/>
 <path fill="none" stroke="rgb(238,238,238)" stroke-linejoin="round" d="M 21010,705 L 21010,20952"/>
 <path fill="none" stroke="rgb(238,238,238)" stroke-linejoin="round" d="M 21986,705 L 21986,20952"/>
 <path fill="none" stroke="rgb(238,238,238)" stroke-linejoin="round" d="M 22474,705 L 22474,20952"/>
 <path fill="none" stroke="rgb(238,238,238)" stroke-linejoin="round" d="M 22961,705 L 22961,20952"/>
 <path fill="none" stroke="rgb(238,238,238)" stroke-linejoin="round" d="M 23449,705 L 23449,20952"/>
 <path fill="none" stroke="rgb(238,238,238)" stroke-linejoin="round" d="M 24424,705 L 24424,20952"/>
 <path fill="none" stroke="rgb(238,238,238)" stroke-linejoin="round" d="M 24912,705 L 24912,20952"/>
 <path fill="none" stroke="rgb(238,238,238)" stroke-linejoin="round" d="M 25399,705 L 25399,20952"/>
 <path fill="none" stroke="rgb(238,238,238)" stroke-linejoin="round" d="M 25887,705 L 25887,20952"/>
 <path fill="none" stroke="rgb(238,238,238)" stroke-linejoin="round" d="M 26863,705 L 26863,20952"/>
 <path fill="none" stroke="rgb(238,238,238)" stroke-linejoin="round" d="M 27350,705 L 27350,20952"/>
 <path fill="none" stroke="rgb(238,238,238)" stroke-linejoin="round" d="M 27838,705 L 27838,20952"/>
 <path fill="none" stroke="rgb(238,238,238)" stroke-linejoin="round" d="M 28326,705 L 28326,20952"/>
 <path fill="none" stroke="rgb(238,238,238)" stroke-linejoin="round" d="M 29301,705 L 29301,20952"/>
 <path fill="none" stroke="rgb(238,238,238)" stroke-linejoin="round" d="M 29789,705 L 29789,20952"/>
 <path fill="none" stroke="rgb(238,238,238)" stroke-linejoin="round" d="M 30277,705 L 30277,20952"/>
 <path fill="none" stroke="rgb(238,238,238)" stroke-linejoin="round" d="M 30765,705 L 30765,20952"/>
 <path fill="none" stroke="rgb(238,238,238)" stroke-linejoin="round" d="M 31740,705 L 31740,20952"/>
 <path fill="none" stroke="rgb(238,238,238)" stroke-linejoin="round" d="M 32228,705 L 32228,20952"/>
 <path fill="none" stroke="rgb(238,238,238)" stroke-linejoin="round" d="M 32716,705 L 32716,20952"/>
 <path fill="none" stroke="rgb(238,238,238)" stroke-linejoin="round" d="M 33204,705 L 33204,20952"/>
 <path fill="none" stroke="rgb(238,238,238)" stroke-linejoin="round" d="M 34179,705 L 34179,20952"/>
 <path fill="none" stroke="rgb(238,238,238)" stroke-linejoin="round" d="M 34667,705 L 34667,20952"/>
 <path fill="none" stroke="rgb(238,238,238)" stroke-linejoin="round" d="M 35155,705 L 35155,20952"/>
 <path fill="none" stroke="rgb(238,238,238)" stroke-linejoin="round" d="M 35642,705 L 35642,20952"/>
 <path fill="none" stroke="rgb(238,238,238)" stroke-linejoin="round" d="M 36618,705 L 36618,20952"/>
 <path fill="none" stroke="rgb(238,238,238)" stroke-linejoin="round" d="M 37106,705 L 37106,20952"/>
 <path fill="none" stroke="rgb(238,238,238)" stroke-linejoin="round" d="M 37593,705 L 37593,20952"/>
 <path fill="none" stroke="rgb(238,238,238)" stroke-linejoin="round" d="M 38081,705 L 38081,20952"/>
 <path fill="none" stroke="rgb(238,238,238)" stroke-linejoin="round" d="M 39057,705 L 39057,20952"/>
 <path fill="none" stroke="rgb(238,238,238)" stroke-linejoin="round" d="M 39545,705 L 39545,20952"/>
 <path fill="none" stroke="rgb(238,238,238)" stroke-linejoin="round" d="M 40032,705 L 40032,20952"/>
 <path fill="none" stroke="rgb(238,238,238)" stroke-linejoin="round" d="M 40520,705 L 40520,20952"/>
 <path fill="none" stroke="rgb(238,238,238)" stroke-linejoin="round" d="M 41496,705 L 41496,20952"/>
 <path fill="none" stroke="rgb(238,238,238)" stroke-linejoin="round" d="M 41983,705 L 41983,20952"/>
 <path fill="none" stroke="rgb(238,238,238)" stroke-linejoin="round" d="M 42471,705 L 42471,20952"/>
 <path fill="none" stroke="rgb(238,238,238)" stroke-linejoin="round" d="M 42959,705 L 42959,20952"/>
 <path fill="none" stroke="rgb(238,238,238)" stroke-linejoin="round" d="M 43934,705 L 43934,20952"/>
 <path fill="none" stroke="rgb(238,238,238)" stroke-linejoin="round" d="M 44422,705 L 44422,20952"/>
 <path fill="none" stroke="rgb(238,238,238)" stroke-linejoin="round" d="M 44910,705 L 44910,20952"/>
 <path fill="none" stroke="rgb(238,238,238)" stroke-linejoin="round" d="M 45398,705 L 45398,20952"/>
 <path fill="none" stroke="rgb(179,179,179)" stroke-linejoin="round" d="M 45886,20952 L 1988,20952"/>
 <path fill="none" stroke="rgb(179,179,179)" stroke-linejoin="round" d="M 45886,14818 L 1988,14818"/>
 <path fill="none" stroke="rgb(179,179,179)" stroke-linejoin="round" d="M 45886,8685 L 1988,8685"/>
 <path fill="none" stroke="rgb(179,179,179)" stroke-linejoin="round" d="M 45886,2551 L 1988,2551"/>
 <path fill="none" stroke="rgb(221,221,221)" stroke-linejoin="round" d="M 45886,19105 L 1988,19105"/>
 <path fill="none" stroke="rgb(221,221,221)" stroke-linejoin="round" d="M 45886,18025 L 1988,18025"/>
 <path fill="none" stroke="rgb(221,221,221)" stroke-linejoin="round" d="M 45886,17259 L 1988,17259"/>
 <path fill="none" stroke="rgb(221,221,221)" stroke-linejoin="round" d="M 45886,16664 L 1988,16664"/>
 <path fill="none" stroke="rgb(221,221,221)" stroke-linejoin="round" d="M 45886,16178 L 1988,16178"/>
 <path fill="none" stroke="rgb(221,221,221)" stroke-linejoin="round" d="M 45886,15768 L 1988,15768"/>
 <path fill="none" stroke="rgb(221,221,221)" stroke-linejoin="round" d="M 45886,15412 L 1988,15412"/>
 <path fill="none" stroke="rgb(221,221,221)" stroke-linejoin="round" d="M 45886,15098 L 1988,15098"/>
 <path fill="none" stroke="rgb(221,221,221)" stroke-linejoin="round" d="M 45886,12971 L 1988,12971"/>
 <path fill="none" stroke="rgb(221,221,221)" stroke-linejoin="round" d="M 45886,11891 L 1988,11891"/>
 <path fill="none" stroke="rgb(221,221,221)" stroke-linejoin="round" d="M 45886,11126 L 1988,11126"/>
 <path fill="none" stroke="rgb(221,221,221)" stroke-linejoin="round" d="M 45886,10531 L 1988,10531"/>
 <path fill="none" stroke="rgb(221,221,221)" stroke-linejoin="round" d="M 45886,10046 L 1988,10046"/>
 <path fill="none" stroke="rgb(221,221,221)" stroke-linejoin="round" d="M 45886,9635 L 1988,9635"/>
 <path fill="none" stroke="rgb(221,221,221)" stroke-linejoin="round" d="M 45886,9279 L 1988,9279"/>
 <path fill="none" stroke="rgb(221,221,221)" stroke-linejoin="round" d="M 45886,8965 L 1988,8965"/>
 <path fill="none" stroke="rgb(221,221,221)" stroke-linejoin="round" d="M 45886,6838 L 1988,6838"/>
 <path fill="none" stroke="rgb(221,221,221)" stroke-linejoin="round" d="M 45886,5758 L 1988,5758"/>
 <path fill="none" stroke="rgb(221,221,221)" stroke-linejoin="round" d="M 45886,4992 L 1988,4992"/>
 <path fill="none" stroke="rgb(221,221,221)" stroke-linejoin="round" d="M 45886,4397 L 1988,4397"/>
 <path fill="none" stroke="rgb(221,221,221)" stroke-linejoin="round" d="M 45886,3912 L 1988,3912"/>
 <path fill="none" stroke="rgb(221,221,221)" stroke-linejoin="round" d="M 45886,3501 L 1988,3501"/>
 <path fill="none" stroke="rgb(221,221,221)" stroke-linejoin="round" d="M 45886,3145 L 1988,3145"/>
 <path fill="none" stroke="rgb(221,221,221)" stroke-linejoin="round" d="M 45886,2832 L 1988,2832"/>
 <path fill="none" stroke="rgb(221,221,221)" stroke-linejoin="round" d="M 45886,705 L 1988,705"/>
 <path fill="none" stroke="rgb(179,179,179)" stroke-linejoin="round" d="M 1988,21102 L 1988,20952"/>
 <path fill="none" stroke="rgb(179,179,179)" stroke-linejoin="round" d="M 1988,21102 L 1988,20952"/>
 <path fill="none" stroke="rgb(179,179,179)" stroke-linejoin="round" d="M 4426,21102 L 4426,20952"/>
 <path fill="none" stroke="rgb(179,179,179)" stroke-linejoin="round" d="M 4426,21102 L 4426,20952"/>
 <path fill="none" stroke="rgb(179,179,179)" stroke-linejoin="round" d="M 6865,21102 L 6865,20952"/>
 <path fill="none" stroke="rgb(179,179,179)" stroke-linejoin="round" d="M 6865,21102 L 6865,20952"/>
 <path fill="none" stroke="rgb(179,179,179)" stroke-linejoin="round" d="M 9304,21102 L 9304,20952"/>
 <path fill="none" stroke="rgb(179,179,179)" stroke-linejoin="round" d="M 9304,21102 L 9304,20952"/>
 <path fill="none" stroke="rgb(179,179,179)" stroke-linejoin="round" d="M 11743,21102 L 11743,20952"/>
 <path fill="none" stroke="rgb(179,179,179)" stroke-linejoin="round" d="M 11743,21102 L 11743,20952"/>
 <path fill="none" stroke="rgb(179,179,179)" stroke-linejoin="round" d="M 14182,21102 L 14182,20952"/>
 <path fill="none" stroke="rgb(179,179,179)" stroke-linejoin="round" d="M 14182,21102 L 14182,20952"/>
 <path fill="none" stroke="rgb(179,179,179)" stroke-linejoin="round" d="M 16621,21102 L 16621,20952"/>
 <path fill="none" stroke="rgb(179,179,179)" stroke-linejoin="round" d="M 16621,21102 L 16621,20952"/>
 <path fill="none" stroke="rgb(179,179,179)" stroke-linejoin="round" d="M 19059,21102 L 19059,20952"/>
 <path fill="none" stroke="rgb(179,179,179)" stroke-linejoin="round" d="M 19059,21102 L 19059,20952"/>
 <path fill="none" stroke="rgb(179,179,179)" stroke-linejoin="round" d="M 21498,21102 L 21498,20952"/>
 <path fill="none" stroke="rgb(179,179,179)" stroke-linejoin="round" d="M 21498,21102 L 21498,20952"/>
 <path fill="none" stroke="rgb(179,179,179)" stroke-linejoin="round" d="M 23936,21102 L 23936,20952"/>
 <path fill="none" stroke="rgb(179,179,179)" stroke-linejoin="round" d="M 23936,21102 L 23936,20952"/>
 <path fill="none" stroke="rgb(179,179,179)" stroke-linejoin="round" d="M 26375,21102 L 26375,20952"/>
 <path fill="none" stroke="rgb(179,179,179)" stroke-linejoin="round" d="M 26375,21102 L 26375,20952"/>
 <path fill="none" stroke="rgb(179,179,179)" stroke-linejoin="round" d="M 28814,21102 L 28814,20952"/>
 <path fill="none" stroke="rgb(179,179,179)" stroke-linejoin="round" d="M 28814,21102 L 28814,20952"/>
 <path fill="none" stroke="rgb(179,179,179)" stroke-linejoin="round" d="M 31253,21102 L 31253,20952"/>
 <path fill="none" stroke="rgb(179,179,179)" stroke-linejoin="round" d="M 31253,21102 L 31253,20952"/>
 <path fill="none" stroke="rgb(179,179,179)" stroke-linejoin="round" d="M 33691,21102 L 33691,20952"/>
 <path fill="none" stroke="rgb(179,179,179)" stroke-linejoin="round" d="M 33691,21102 L 33691,20952"/>
 <path fill="none" stroke="rgb(179,179,179)" stroke-linejoin="round" d="M 36130,21102 L 36130,20952"/>
 <path fill="none" stroke="rgb(179,179,179)" stroke-linejoin="round" d="M 36130,21102 L 36130,20952"/>
 <path fill="none" stroke="rgb(179,179,179)" stroke-linejoin="round" d="M 38569,21102 L 38569,20952"/>
 <path fill="none" stroke="rgb(179,179,179)" stroke-linejoin="round" d="M 38569,21102 L 38569,20952"/>
 <path fill="none" stroke="rgb(179,179,179)" stroke-linejoin="round" d="M 41008,21102 L 41008,20952"/>
 <path fill="none" stroke="rgb(179,179,179)" stroke-linejoin="round" d="M 41008,21102 L 41008,20952"/>
 <path fill="none" stroke="rgb(179,179,179)" stroke-linejoin="round" d="M 43447,21102 L 43447,20952"/>
 <path fill="none" stroke="rgb(179,179,179)" stroke-linejoin="round" d="M 43447,21102 L 43447,20952"/>
 <path fill="none" stroke="rgb(179,179,179)" stroke-linejoin="round" d="M 45886,21102 L 45886,20952"/>
 <path fill="none" stroke="rgb(179,179,179)" stroke-linejoin="round" d="M 45886,21102 L 45886,20952"/>
 <path fill="none" stroke="rgb(179,179,179)" stroke-linejoin="round" d="M 1988,20952 L 45886,20952"/>
 <path fill="none" stroke="rgb(179,179,179)" stroke-linejoin="round" d="M 1838,20952 L 1988,20952"/>
 <path fill="none" stroke="rgb(179,179,179)" stroke-linejoin="round" d="M 1838,20952 L 1988,20952"/>
 <path fill="none" stroke="rgb(179,179,179)" stroke-linejoin="round" d="M 1838,14818 L 1988,14818"/>
 <path fill="none" stroke="rgb(179,179,179)" stroke-linejoin="round" d="M 1838,14818 L 1988,14818"/>
 <path fill="none" stroke="rgb(179,179,179)" stroke-linejoin="round" d="M 1838,8685 L 1988,8685"/>
 <path fill="none" stroke="rgb(179,179,179)" stroke-linejoin="round" d="M 1838,8685 L 1988,8685"/>
 <path fill="none" stroke="rgb(179,179,179)" stroke-linejoin="round" d="M 1838,2551 L 1988,2551"/>
 <path fill="none" stroke="rgb(179,179,179)" stroke-linejoin="round" d="M 1838,2551 L 1988,2551"/>
 <path fill="none" stroke="rgb(179,179,179)" stroke-linejoin="round" d="M 1988,20952 L 1988,705"/>
 <path fill="none" stroke="rgb(179,179,179)" stroke-linejoin="round" d="M 46036,20952 L 45886,20952"/>
 <path fill="none" stroke="rgb(179,179,179)" stroke-linejoin="round" d="M 46036,20952 L 45886,20952"/>
 <path fill="none" stroke="rgb(179,179,179)" stroke-linejoin="round" d="M 46036,14818 L 45886,14818"/>
 <path fill="none" stroke="rgb(179,179,179)" stroke-linejoin="round" d="M 46036,14818 L 45886,14818"/>
 <path fill="none" stroke="rgb(179,179,179)" stroke-linejoin="round" d="M 46036,8685 L 45886,8685"/>
 <path fill="none" stroke="rgb(179,179,179)" stroke-linejoin="round" d="M 46036,8685 L 45886,8685"/>
 <path fill="none" stroke="rgb(179,179,179)" stroke-linejoin="round" d="M 46036,2551 L 45886,2551"/>
 <path fill="none" stroke="rgb(179,179,179)" stroke-linejoin="round" d="M 46036,2551 L 45886,2551"/>
 <path fill="none" stroke="rgb(179,179,179)" stroke-linejoin="round" d="M 45886,20952 L 45886,705"/>
 <path fill="none" stroke="rgb(0,69,134)" stroke-linejoin="round" d="M 4217,20952 L 4221,18025 4231,19105 4236,19105 4260,19105 4285,19105 4304,18025 4309,15098 4324,14818 4329,17259 4334,19105 4348,17259 4358,18025 4363,16664 4368,15768 4373,13921 4378,12599 4382,12599 4387,14119 4392,16178 4397,15412 4407,15098 4412,14818 4417,15098 4426,14332 4431,13921 4436,14119 4441,14332 4446,15412 4451,15768 4460,16664 4465,17259 4470,18025 4475,19105 4499,19105 4524,19105 4548,19105 4573,19105 4597,19105 4621,19105 4646,19105 4670,19105 4690,19105 4714,19105 4739,19105 4763,19105 4787,19105 4812,19105 4836,19105 4860,19105 4885,19105 4909,19105 4929,19105 4953,19105 4978,19105 5002,19105 5026,19105 5051,19105 5075,19105 5099,19105 5124,19105 5148,19105 5168,19105 5192,19105 5217,19105 5241,19105 5265,19105 5290,19105 5314,19105 5338,19105 5363,19105 5373,15768 5377,15098 5382,16664 5387,17259 5407,16664 5412,16178 5416,16664 5421,17259 5426,16664 5431,17259 5436,19105 5456,19105 5480,19105 5504,19105 5529,19105 5553,19105 5577,19105 5602,15412 5612,18025 5621,19105 5626,19105 5631,15768 5636,15098 5641,16664 5646,18025 5651,19105 5670,19105 5695,19105 5719,19105 5743,19105 5768,19105 5792,19105 5816,19105 5841,19105 5865,19105 5890,19105 5909,19105 5934,19105 5958,19105 5982,19105 6007,19105 6031,19105 6055,19105 6080,19105 6104,19105 6129,19105 6148,19105 6173,19105 6197,19105 6221,19105 6246,19105 6270,19105 6294,19105 6319,19105 6343,19105 6368,19105 6387,19105 6412,19105 6436,19105 6460,19105 6485,19105 6509,19105 6533,19105 6558,19105 6582,19105 6607,19105 6626,19105 6651,19105 6675,19105 6699,19105 6724,19105 6748,19105 6772,19105 6797,19105 6821,19105 6846,19105 6865,19105 6890,19105 6914,19105 6938,19105 6963,19105 6987,19105 7011,19105 7036,19105 7060,19105 7085,19105 7109,19105 7124,18025 7129,18025 7133,19105 7143,16178 7153,17259 7163,19105 7177,19105 7202,19105 7221,18025 7226,18025 7231,19105 7236,17259 7246,19105 7251,19105 7275,19105 7299,19105 7324,19105 7348,19105 7368,19105 7392,19105 7416,19105 7441,19105 7465,19105 7490,19105 7514,19105 7538,19105 7563,19105 7587,19105 7607,19105 7631,19105 7655,19105 7680,19105 7704,19105 7724,18025 7729,18025 7733,19105 7753,19105 7777,19105 7802,19105 7826,19105 7846,19105 7870,19105 7894,19105 7919,19105 7943,19105 7968,19105 7992,19105 8016,18025 8021,16664 8026,15768 8031,14332 8036,14818 8041,18025 8046,19105 8065,19105 8070,17259 8075,16178 8085,14818 8089,14332 8094,15412 8099,15098 8109,15098 8114,15412 8119,17259 8133,17259 8158,17259 8182,17259 8192,16664 8202,14564 8207,14332 8211,16178 8216,14332 8226,16178 8231,15768 8236,15098 8241,15412 8246,15098 8255,12971 8260,12486 8265,14119 8275,13738 8280,14332 8285,15412 8294,14119 8299,13921 8304,14564 8309,14818 8314,15412 8319,15098 8324,14818 8328,14564 8333,14119 8338,14564 8343,15098 8348,12075 8353,12172 8358,15098 8367,15412 8372,15412 8387,13404 8392,13566 8397,16178 8421,16178 8446,16178 8470,16178 8494,16178 8519,16178 8543,16178 8567,16178 8587,16178 8592,15412 8602,16178 8611,16178 8636,16178 8660,16178 8685,16178 8704,15768 8709,15412 8724,13566 8728,13404 8733,14818 8743,15098 8748,15412 8753,14818 8758,14818 8763,15412 8767,13921 8777,15412 8782,15098 8792,15412 8797,14818 8806,15412 8821,14818 8826,14818 8831,15412 8836,14564 8845,15412 8850,15412 8855,15098 8865,14564 8870,14818 8875,16178 8894,14818 8899,14818 8904,16178 8909,15768 8919,16178 8924,16178 8943,13921 8948,13921 8953,15098 8958,13108 8963,12971 8967,15098 8972,17259 8997,17259 9021,17259 9045,17259 9065,17259 9089,17259 9114,17259 9138,17259 9163,17259 9187,17259 9211,17259 9236,16664 9241,15768 9245,15098 9250,15412 9255,16178 9260,16178 9275,15768 9284,16178 9289,15412 9294,14818 9299,15098 9304,15768 9309,15098 9314,14564 9319,15412 9324,16178 9328,16178 9353,16178 9372,15768 9377,15768 9382,16178 9402,16178 9406,15412 9416,16178 9426,16178 9431,15768 9441,16178 9450,16178 9455,15768 9460,15412 9475,15412 9480,15768 9484,16178 9499,16178 9509,14818 9514,13566 9519,13108 9523,13404 9528,11261 9533,11405 9538,14119 9543,13921 9548,13921 9553,14119 9558,13921 9563,14332 9567,16178 9577,15768 9587,16178 9592,16178 9616,16178 9631,15768 9641,16178 9665,16178 9689,16178 9714,16178 9738,16178 9763,16178 9777,15412 9787,16178 9792,15768 9802,16178 9806,16178 9821,15768 9831,16178 9855,16178 9875,15098 9880,15098 9884,16178 9904,16178 9919,15768 9928,16178 9943,15412 9953,16178 9977,16178 9982,15412 9987,15098 10002,14332 10006,14564 10011,16178 10016,15768 10021,14332 10026,14332 10031,15412 10036,15768 10041,16178 10045,16178 10070,16178 10080,13404 10089,16178 10094,16178 10099,13738 10109,16178 10119,16178 10143,16178 10148,13566 10158,16178 10162,15768 10167,14332 10172,14564 10177,15768 10187,16178 10192,16178 10216,16178 10221,14818 10231,16178 10241,15412 10245,15768 10250,17259 10265,17259 10280,16178 10284,16178 10289,17259 10309,17259 10333,16664 10338,16178 10343,16664 10348,15768 10353,16178 10358,16664 10367,19105 10382,19105 10387,17259 10392,16178 10397,15412 10401,15768 10406,17259 10426,15412 10431,15412 10436,17259 10440,13921 10445,12599 10450,14119 10455,17259 10460,15412 10465,15768 10470,19105 10475,15412 10480,15412 10484,16664 10494,19105 10504,19105 10519,13404 10523,13404 10528,16178 10538,19105 10548,19105 10572,19105 10597,19105 10621,19105 10645,19105 10665,18025 10670,16664 10680,15768 10684,15412 10689,16178 10694,16178 10699,15412 10709,16178 10719,14818 10723,14332 10728,15412 10733,16178 10743,16178 10767,16178 10787,16178 10811,16178 10831,15768 10836,15768 10850,16178 10860,16178 10870,15768 10875,14818 10884,15412 10889,15768 10894,16178 10909,16178 10933,16178 10938,15768 10948,16178 10958,16178 10967,15412 10977,16178 10982,16178 11001,15768 11006,15768 11011,16178 11026,16178 11050,16178 11070,15098 11075,14564 11079,14818 11084,15412 11089,16664 11094,17259 11099,17259 11109,16178 11118,15412 11123,15412 11128,17259 11133,16664 11143,16178 11148,16178 11153,17259 11172,17259 11197,17259 11221,17259 11245,17259 11255,16664 11265,16664 11275,17259 11289,17259 11309,15768 11314,14818 11318,15098 11323,15768 11328,15412 11333,15098 11338,14332 11343,14564 11348,16178 11353,15412 11362,15768 11372,16178 11387,15098 11397,16178 11411,14564 11421,15412 11426,15768 11431,17259 11436,17259 11460,17259 11484,17259 11489,16178 11499,17259 11504,17259 11528,17259 11553,17259 11577,17259 11601,17259 11626,17259 11640,16664 11650,17259 11675,17259 11699,17259 11723,17259 11743,17259 11767,17259 11792,17259 11816,17259 11840,17259 11865,17259 11889,17259 11914,17259 11938,17259 11962,17259 11967,15412 11972,15098 11977,16178 11982,15768 11987,16178 11992,17259 12006,17259 12031,17259 12055,17259 12079,17259 12104,17259 12128,16664 12138,17259 12153,17259 12172,16664 12177,16178 12182,14818 12192,16178 12201,15768 12206,15412 12211,14818 12216,14332 12221,14564 12226,14564 12231,14332 12235,13921 12240,13738 12245,13404 12250,13566 12255,13404 12260,12172 12265,12599 12270,14119 12279,14332 12284,14818 12289,13566 12294,13108 12299,13404 12304,13566 12309,14564 12314,15098 12318,15098 12323,14818 12328,13566 12333,13921 12338,14119 12343,14119 12348,15768 12353,16178 12367,16178 12392,16178 12416,16178 12435,14818 12440,14119 12445,15098 12450,15412 12455,15098 12460,15768 12465,16178 12484,14818 12494,15098 12499,14818 12504,15098 12509,15098 12523,14119 12528,13252 12533,14332 12538,16178 12553,15412 12557,15412 12562,16178 12577,15768 12582,15768 12587,15098 12596,16178 12606,16178 12611,14564 12616,14332 12621,15768 12626,15098 12631,15098 12635,15768 12640,15412 12650,15768 12655,16664 12660,17259 12679,17259 12684,16664 12689,16178 12699,15768 12704,13566 12709,12717 12713,13921 12718,15412 12723,15412 12743,13404 12748,13566 12753,14818 12757,14564 12762,14818 12767,13921 12772,12075 12777,12377 12782,15098 12787,15768 12792,16178 12796,16178 12821,16178 12845,16178 12870,16178 12879,15768 12884,15412 12889,15768 12894,16178 12918,16178 12928,15412 12938,16178 12943,16178 12948,13738 12952,13252 12957,14119 12962,14818 12967,16178 12987,16178 13011,16178 13035,16178 13060,16178 13074,15768 13079,14119 13084,13921 13089,14564 13094,13738 13099,14119 13104,15098 13109,15098 13113,15412 13123,14818 13133,15412 13157,15412 13162,15098 13167,14564 13172,11719 13177,10872 13182,12272 13187,14119 13192,14564 13196,13921 13201,13566 13206,13921 13211,14818 13216,15412 13226,15412 13240,14564 13250,15412 13260,12717 13265,12599 13270,14818 13274,14818 13279,14119 13284,13108 13294,13566 13299,11981 13304,11891 13309,12486 13313,11804 13318,10696 13323,11332 13328,14818 13333,13921 13338,13738 13343,14564 13348,14119 13352,13921 13357,14564 13362,14332 13367,13921 13372,14564 13377,15412 13382,16178 13396,16178 13421,16178 13445,15768 13450,16178 13455,17259 13465,17259 13489,17259 13499,13738 13504,13252 13509,15412 13513,16178 13538,15768 13548,16664 13552,17259 13562,14332 13567,13921 13572,15768 13577,16664 13582,17259 13587,17259 13611,17259 13635,17259 13660,17259 13684,17259 13704,17259 13728,17259 13752,17259 13777,17259 13801,17259 13826,17259 13850,17259 13869,16664 13874,16664 13879,17259 13889,16178 13899,17259 13918,16178 13923,15768 13938,15412 13943,14818 13948,15412 13952,16178 13957,15768 13962,15412 13967,14564 13972,15098 13977,17259 13991,17259 14016,17259 14040,17259 14065,17259 14089,17259 14113,17259 14138,14332 14143,13921 14148,15098 14152,15412 14157,16178 14162,16178 14167,15768 14182,16178 14187,17259 14206,17259 14230,17259 14255,17259 14279,17259 14304,17259 14328,17259 14352,17259 14377,17259 14401,17259 14426,17259 14445,17259 14469,17259 14474,16664 14484,17259 14494,17259 14518,17259 14533,16664 14543,17259 14567,16664 14577,17259 14591,17259 14606,16664 14616,17259 14640,17259 14665,17259 14684,17259 14708,17259 14733,16664 14743,17259 14757,17259 14782,17259 14806,17259 14830,17259 14855,17259 14879,17259 14904,17259 14923,17259 14947,17259 14972,17259 14996,17259 15021,17259 15045,17259 15060,15412 15069,17259 15094,17259 15099,16664 15104,16178 15118,15768 15128,16178 15138,15098 15143,11261 15147,9874 15152,10326 15157,11637 15162,13921 15167,14564 15172,14818 15177,17259 15186,17259 15211,16664 15216,16178 15221,16664 15225,17259 15235,17259 15260,17259 15284,17259 15308,17259 15333,17259 15357,17259 15372,15412 15377,15098 15382,16178 15396,15768 15401,15768 15406,16178 15411,16664 15416,17259 15425,17259 15450,17259 15464,15098 15469,14818 15474,16178 15479,14818 15484,13738 15494,7400 15499,7483 15504,17259 15523,17259 15533,15768 15538,15098 15543,15412 15547,14119 15552,14564 15557,17259 15567,16664 15572,16664 15577,17259 15596,17259 15621,17259 15630,16664 15640,17259 15645,16664 15655,17259 15664,17259 15689,17259 15713,17259 15738,17259 15762,17259 15786,17259 15796,15412 15801,14332 15806,13921 15811,14564 15816,16664 15825,16178 15835,14119 15845,15768 15850,14564 15855,14818 15860,16178 15864,14818 15874,15412 15884,8606 15894,12486 15903,13252 15913,16178 15923,15768 15928,15098 15947,13921 15952,13921 15957,15098 15967,13921 15972,13738 15977,15098 15982,15768 15986,16178 16001,16178 16025,16178 16035,15098 16040,14119 16045,12075 16050,12377 16055,15098 16064,15412 16074,14564 16084,15098 16094,14332 16099,14119 16103,13738 16108,12486 16113,9381 16118,9635 16123,14564 16128,10531 16133,8850 16138,9347 16142,10531 16147,11405 16152,12172 16157,13566 16162,14818 16167,14818 16172,14564 16177,13108 16186,14119 16191,14332 16196,11480 16201,11332 16206,14332 16211,14119 16216,14119 16221,14564 16225,13738 16230,11261 16235,11480 16240,14818 16245,15412 16264,15412 16269,11480 16274,10753 16279,11558 16284,10640 16289,11480 16294,14818 16299,15412 16303,13738 16308,6852 16313,6919 16318,14332 16323,14564 16328,14332 16338,12971 16342,9958 16347,10376 16352,13738 16357,13566 16362,13921 16367,14332 16372,15098 16377,14564 16381,14564 16386,15412 16406,15412 16425,15098 16430,15098 16435,15412 16455,15412 16479,15412 16489,15098 16499,15412 16503,14119 16513,15412 16518,15098 16528,15412 16552,15412 16562,14332 16572,15412 16577,15412 16586,15098 16591,14818 16601,14818 16606,14119 16616,9560 16621,9056 16625,12172 16630,14332 16635,14818 16645,14564 16650,14332 16655,14564 16660,13252 16664,12971 16669,13738 16674,13921 16679,12841 16689,14332 16694,12841 16703,14332 16708,13921 16713,13566 16718,12599 16723,12841 16728,14332 16742,14332 16747,14119 16752,13738 16757,11981 16762,12172 16767,14332 16777,11719 16781,11332 16786,10046 16791,10182 16796,13404 16806,13738 16811,12971 16816,13108 16820,14564 16825,13404 16830,13108 16835,14119 16840,14564 16845,15098 16850,15412 16864,15412 16874,14332 16879,13566 16884,14119 16889,14818 16899,14564 16908,14564 16913,14119 16918,14332 16923,15098 16933,15098 16938,15412 16957,15412 16981,15412 16986,14818 16996,15098 17006,14332 17011,13738 17016,14564 17020,15412 17030,15412 17055,15412 17064,15098 17069,14332 17074,14119 17079,14332 17084,14119 17094,12971 17099,13108 17103,14818 17108,13566 17113,13404 17118,13738 17123,13566 17128,13921 17133,14119 17138,14818 17142,15412 17147,15412 17152,15098 17162,15412 17172,15412 17181,14564 17191,14818 17196,14818 17201,12075 17206,11804 17211,13921 17216,12971 17220,13108 17225,14332 17230,14818 17235,15098 17245,15412 17250,14119 17259,15098 17269,14564 17274,13921 17279,14564 17284,15412 17294,15412 17303,14332 17308,13921 17313,14818 17318,15098 17328,13738 17333,13252 17338,14818 17342,16178 17362,16178 17381,15412 17386,15098 17391,15412 17396,15768 17401,16178 17411,14818 17416,14564 17420,15412 17425,15768 17430,16178 17435,16178 17459,16178 17484,16178 17508,16178 17528,15768 17533,15768 17538,16178 17557,16178 17581,15098 17591,13738 17596,13404 17601,14818 17606,15412 17611,16178 17625,16178 17645,15768 17650,15768 17659,14818 17664,15098 17669,16178 17674,16178 17698,16178 17708,15768 17718,16178 17723,16178 17742,15768 17747,15768 17752,16178 17772,16178 17777,14119 17781,13738 17786,15412 17791,16178 17796,14818 17806,16178 17820,16178 17840,16178 17864,16178 17889,16178 17903,14332 17908,13921 17913,14332 17918,14564 17923,15098 17933,15412 17937,15412 17962,15412 17972,13108 17981,15412 17986,15412 18011,14818 18020,15412 18025,14818 18030,14564 18035,15098 18040,15412 18050,14564 18055,13921 18059,13738 18064,13108 18069,12272 18079,13252 18084,13252 18089,13566 18094,11981 18103,13738 18113,14818 18118,15098 18123,15412 18128,15412 18137,13252 18142,12172 18152,12971 18157,14332 18162,14564 18167,14818 18172,14564 18176,14332 18181,14119 18186,12971 18191,12599 18196,13404 18201,14119 18206,14564 18211,14818 18225,14332 18235,14818 18245,14564 18250,13738 18255,12717 18264,13566 18269,14564 18274,15098 18279,14818 18284,15098 18289,15412 18298,15412 18323,15412 18342,15412 18357,15098 18367,15098 18376,15412 18391,15412 18415,15412 18440,15412 18455,15098 18464,13566 18469,12971 18474,14119 18479,14564 18484,13252 18489,12717 18494,13738 18498,14818 18513,14564 18523,14818 18528,14564 18537,14818 18562,14818 18567,14119 18572,13921 18576,14332 18581,14332 18591,13921 18596,14119 18601,14564 18606,13404 18611,13566 18615,14564 18625,14119 18630,14119 18635,14818 18645,13738 18650,13404 18654,14332 18659,14564 18669,14332 18679,14818 18684,14564 18689,14332 18703,14332 18713,13921 18723,13252 18728,12971 18733,13566 18737,11981 18742,11637 18747,11332 18752,11480 18757,11719 18762,11126 18767,11637 18772,12172 18776,12172 18781,12272 18786,11981 18791,12486 18796,13404 18801,12717 18806,12599 18811,12971 18815,12172 18820,11558 18825,12486 18830,13566 18835,13404 18840,12841 18845,13108 18850,13566 18854,13404 18859,13252 18864,13566 18869,13921 18879,13566 18884,13252 18889,12599 18893,12486 18898,12971 18908,12717 18913,12486 18918,12486 18923,11637 18928,4227 18933,4144 18937,10277 18942,11480 18947,10585 18952,10696 18957,12272 18962,12172 18967,11405 18972,11637 18976,11719 18981,11981 18986,12599 18991,10753 18996,9752 19001,10753 19006,12486 19011,11891 19015,11261 19020,10136 19025,9056 19030,9916 19035,11637 19040,10326 19045,9597 19050,10136 19054,9597 19059,6560 19069,8431 19074,8907 19079,8177 19084,8313 19089,10136 19093,10182 19098,9958 19103,9792 19108,10696 19113,10872 19123,10753 19128,10585 19132,10872 19137,11332 19142,11804 19147,11981 19152,11891 19157,11804 19162,11558 19167,11332 19172,11405 19176,11719 19181,12272 19186,12075 19191,11405 19196,10531 19201,10479 19206,11192 19211,11637 19215,12075 19225,11981 19230,12075 19235,11719 19240,11332 19245,11126 19250,10933 19254,11261 19259,11332 19264,11192 19269,10479 19274,10427 19279,11637 19284,11891 19289,11804 19293,11558 19298,11719 19303,12075 19308,11637 19313,11891 19318,12486 19323,12075 19328,11891 19332,12172 19342,11405 19347,11332 19352,12075 19357,11558 19362,11637 19367,11060 19372,10376 19376,11192 19381,11804 19386,11480 19391,11637 19396,11981 19401,12172 19406,12486 19415,12377 19420,12377 19425,11891 19435,12075 19440,11891 19445,11981 19450,12172 19454,12717 19459,12841 19464,12717 19469,12971 19474,13252 19484,13108 19489,12599 19493,12599 19498,12841 19508,12599 19513,12075 19518,11637 19528,12172 19532,12272 19537,11804 19542,11261 19547,8555 19552,8766 19557,12599 19562,11804 19567,11637 19571,12717 19576,13108 19586,13108 19591,13252 19601,13108 19606,13252 19611,13566 19620,13108 19625,12172 19630,12486 19635,10531 19640,10182 19645,12486 19650,13252 19654,13404 19659,13566 19674,10277 19679,10090 19684,12841 19689,12971 19693,12841 19698,12971 19703,13108 19708,12377 19713,12272 19718,11332 19723,11126 19728,12486 19732,12841 19737,12971 19742,12841 19747,12075 19752,12172 19757,12971 19762,11719 19771,13108 19781,12971 19786,9181 19791,9087 19796,12172 19801,12272 19806,11637 19810,11719 19815,12717 19820,12971 19825,12841 19830,12172 19835,11804 19840,12172 19845,12599 19850,12717 19854,10872 19859,10696 19864,12717 19869,12841 19874,12599 19879,12971 19884,12841 19889,11804 19893,11719 19898,12272 19903,12599 19908,12841 19913,12599 19918,12486 19923,12486 19928,11981 19932,11804 19937,11891 19947,12075 19952,11981 19957,11804 19962,11405 19967,11804 19971,12717 19981,12377 19986,12172 19991,12272 19996,12172 20001,11981 20006,11405 20010,10872 20015,11060 20020,10933 20025,6609 20030,5628 20035,7119 20040,6000 20045,6109 20049,9056 20054,9416 20059,9832 20064,10090 20069,10229 20074,9087 20079,8965 20084,10136 20089,8766 20093,8431 20098,10046 20103,11261 20108,10427 20113,10376 20118,10277 20123,10229 20128,11192 20132,11405 20137,10933 20142,10996 20147,11558 20152,10933 20157,10872 20162,10427 20167,10585 20171,11891 20176,11637 20181,11126 20186,11261 20191,11804 20196,11891 20201,10640 20210,11332 20215,11060 20220,10376 20225,10229 20230,11192 20235,11804 20240,11719 20245,10933 20249,10812 20254,10872 20259,10812 20264,11558 20269,12377 20274,11637 20279,10531 20284,11060 20289,12486 20303,11637 20308,11480 20313,12377 20318,12172 20323,11891 20328,12075 20337,11804 20342,11261 20347,10277 20352,10277 20357,10696 20362,10753 20367,10933 20371,10640 20376,11261 20381,12377 20386,11405 20391,11332 20396,11981 20401,12172 20406,12377 20410,11891 20415,10812 20420,10933 20425,11192 20435,10479 20445,11804 20449,10753 20459,11192 20464,11558 20469,12272 20474,12272 20479,12599 20488,12486 20498,12486 20503,10696 20508,10479 20513,11637 20518,11804 20523,11891 20528,12075 20532,11060 20537,9118 20542,9523 20547,11891 20557,11405 20562,11332 20567,10696 20571,10872 20576,12377 20581,12717 20586,12172 20591,12377 20596,11719 20606,13108 20610,12841 20615,12717 20620,12486 20630,12599 20635,9523 20640,9597 20645,12717 20649,12841 20654,13108 20664,11804 20674,12486 20684,10753 20688,10585 20693,12717 20698,12971 20703,11719 20708,8048 20713,8199 20718,11558 20723,12075 20727,12841 20732,12599 20737,12971 20742,13108 20752,12717 20757,12075 20762,12272 20767,12841 20771,11332 20776,10326 20781,10479 20786,11558 20791,12717 20796,12841 20801,11558 20806,11558 20810,9916 20820,13108 20830,12272 20835,11891 20840,11332 20849,12486 20854,12971 20859,12272 20864,11558 20869,10585 20874,10753 20879,11192 20884,10812 20888,10479 20893,10696 20898,11981 20903,12486 20908,12272 20913,12172 20918,12486 20923,12599 20927,10933 20932,10640 20937,11480 20942,11637 20947,10002 20952,9874 20957,11637 20962,11405 20967,10996 20971,10376 20976,10753 20981,11719 20986,9246 20991,8766 20996,10090 21001,9416 21006,8766 21010,7925 21015,7500 21020,7905 21025,8530 21030,9246 21035,9958 21040,9056 21045,8965 21049,9958 21054,9752 21059,10090 21064,10812 21069,11804 21074,11332 21084,12075 21093,11981 21098,11637 21103,11719 21108,11558 21118,12172 21123,11558 21132,11637 21137,11405 21142,11719 21147,11480 21157,11558 21162,11405 21166,11558 21171,11480 21176,11060 21181,10933 21186,10872 21191,10182 21196,9958 21201,10090 21206,10376 21210,10182 21215,10002 21220,10872 21225,11480 21230,11332 21235,11804 21240,12599 21245,12377 21254,12172 21259,11891 21264,12172 21269,12486 21274,12599 21279,12377 21284,12272 21288,12172 21293,11804 21303,11332 21308,11126 21313,11192 21318,11126 21323,11332 21327,11126 21332,10326 21337,10531 21342,10696 21352,11261 21357,11332 21362,11637 21366,11192 21371,10046 21376,10136 21381,11126 21386,11558 21391,11804 21396,10933 21401,10996 21405,11405 21410,10996 21415,11126 21420,11405 21425,10640 21430,10182 21435,10933 21440,11891 21445,12172 21454,12172 21459,11126 21464,10996 21469,11719 21474,11804 21479,12075 21484,11891 21488,11480 21493,10933 21498,10376 21503,10933 21508,12172 21513,12272 21523,12172 21527,12075 21532,11981 21537,11804 21542,11719 21547,11891 21552,12172 21562,11804 21571,12172 21581,11891 21586,11558 21591,11060 21596,11332 21601,11261 21605,10996 21610,11804 21615,11126 21620,11060 21625,11981 21630,11719 21635,10812 21640,10376 21644,10531 21649,10753 21654,11480 21659,11891 21664,11558 21669,11719 21674,11981 21679,11405 21684,10996 21688,11060 21693,11332 21698,11261 21703,10696 21708,10640 21713,10696 21718,10376 21723,10277 21727,10376 21732,9597 21737,9347 21742,9279 21747,9347 21752,9635 21757,9487 21762,9832 21766,9916 21771,9792 21776,10229 21781,10812 21786,10585 21791,9874 21801,9752 21805,9712 21810,10229 21815,10046 21820,9832 21825,9523 21830,9635 21835,10002 21840,9792 21844,9523 21849,9792 21854,10182 21859,10182 21864,9916 21869,8936 21874,8606 21879,8907 21884,7986 21888,7271 21893,7713 21898,8712 21903,8530 21908,8407 21913,8850 21918,8936 21923,8359 21927,8199 21932,8821 21937,9087 21942,8658 21947,8821 21952,9279 21957,9213 21962,8739 21966,8580 21971,8878 21976,8431 21981,8199 21986,7119 21991,7303 21996,8850 22001,8359 22005,8383 22010,8850 22015,8739 22020,9056 22025,9213 22030,8936 22035,8739 22040,9118 22044,9487 22049,8555 22054,8505 22059,8133 22064,8069 22069,9056 22074,9416 22079,8383 22083,8313 22088,9487 22093,9792 22098,10277 22103,10229 22108,9958 22113,9597 22118,10002 22123,10326 22127,9916 22132,10182 22137,10640 22142,10427 22147,10229 22152,10696 22157,10812 22162,9874 22166,9958 22171,10872 22176,11126 22181,10182 22191,10585 22196,10136 22201,10585 22205,11126 22210,11060 22220,11192 22225,9958 22230,9874 22235,10640 22240,10696 22244,10996 22249,10640 22254,10136 22259,10277 22264,10326 22269,9916 22274,10182 22279,10531 22283,9752 22288,9635 22293,9832 22298,9874 22303,9958 22308,10046 22313,10229 22318,10479 22322,10812 22327,10696 22332,10585 22337,10427 22342,10326 22352,10479 22357,10182 22362,9958 22366,10136 22371,10531 22376,9597 22381,9635 22386,10996 22405,11060 22410,11060 22420,11192 22425,10696 22430,10640 22435,10996 22440,10479 22449,10090 22454,9874 22459,9451 22464,9347 22469,9487 22474,9279 22479,10182 22483,10812 22488,10753 22493,10696 22498,10753 22503,10933 22508,10996 22518,11060 22522,11261 22527,10996 22532,10812 22537,10585 22542,10427 22547,10090 22552,9673 22557,9916 22561,10479 22566,10872 22576,10933 22581,10996 22586,10872 22591,10996 22596,11060 22601,10427 22605,10376 22610,10996 22615,11126 22625,10933 22630,10640 22635,10046 22640,9560 22644,9712 22649,10090 22654,10376 22664,10229 22669,10277 22674,10427 22679,10531 22683,10753 22688,10277 22693,10136 22698,10585 22703,10696 22708,9712 22713,9673 22718,9916 22722,10046 22727,11126 22732,11192 22737,11261 22742,10996 22752,10376 22757,9712 22761,9597 22766,9712 22771,10046 22776,8090 22781,8177 22786,10376 22791,9752 22796,8177 22810,8407 22815,9832 22820,9916 22825,10136 22830,9916 22835,10090 22840,10229 22844,9487 22849,9416 22854,9712 22859,9087 22864,8965 22869,8739 22874,8505 22879,8359 22883,8313 22888,8712 22893,7885 22898,7075 22903,7335 22908,7713 22913,8199 22918,8530 22922,6975 22927,6879 22932,8006 22937,7866 22942,7751 22947,7569 22952,7303 22957,7075 22961,5961 22966,6223 22971,7194 22976,6879 22981,7003 22986,7164 22991,7351 22996,7090 23000,7449 23005,8112 23010,8069 23015,6799 23020,6478 23025,7466 23030,7770 23035,7433 23040,7046 23044,7552 23049,7400 23054,7209 23059,8155 23064,7905 23069,7770 23074,8267 23079,7659 23083,7335 23088,7416 23093,7587 23098,7925 23103,8155 23108,7808 23118,8112 23122,8048 23127,8244 23132,8712 23137,9149 23142,8199 23147,7713 23152,8431 23157,9118 23161,9025 23166,8530 23171,8505 23176,8580 23181,8289 23186,8480 23191,8289 23196,8048 23200,7677 23205,7986 23210,9118 23215,8821 23220,8766 23225,8907 23230,8555 23235,8431 23239,8685 23244,8907 23249,8936 23254,8530 23259,8480 23264,8850 23269,8480 23274,8658 23279,8267 23283,7770 23288,8267 23293,8431 23298,8580 23303,8936 23308,9056 23313,8712 23318,8480 23322,8685 23327,8965 23332,9149 23337,9181 23342,9416 23347,8685 23352,8289 23357,9025 23361,9118 23366,9118 23371,9451 23376,8995 23381,8766 23386,7925 23391,7885 23396,8794 23400,9118 23405,8431 23410,8199 23415,8766 23420,8739 23425,8878 23430,8965 23435,8580 23439,8336 23444,8359 23449,8133 23454,8177 23459,8712 23464,8112 23469,7986 23474,8712 23478,8821 23483,8878 23488,8244 23493,8090 23498,8632 23503,8936 23508,8995 23513,8580 23518,8090 23522,7986 23527,7695 23532,8155 23537,8739 23542,8505 23547,8632 23552,8383 23557,7751 23561,7945 23566,8555 23571,8199 23576,8221 23581,8313 23586,8455 23591,8313 23596,8383 23600,8505 23605,8480 23610,8632 23615,8313 23620,8685 23625,9025 23630,8712 23635,8383 23639,8580 23644,8965 23649,8739 23654,8267 23659,8555 23664,8580 23669,8383 23674,8850 23678,8821 23683,7986 23688,7866 23693,8580 23698,8431 23703,8359 23708,8555 23713,8221 23718,7945 23722,7945 23727,7605 23732,7466 23737,7925 23747,7605 23752,7945 23757,8313 23761,7846 23766,7194 23771,7032 23776,6865 23781,6773 23786,7179 23791,7003 23796,6975 23800,7287 23805,7060 23810,6879 23815,6747 23820,6747 23825,6671 23830,6865 23835,6609 23839,6364 23844,6160 23849,6170 23854,6721 23859,6584 23864,6139 23869,5480 23874,5287 23878,5749 23883,5456 23888,5628 23893,6320 23897,6364 23902,6397 23907,6119 23912,5671 23916,5236 23921,4702 23926,3859 23931,1312 23933,705"/>
 <path fill="none" stroke="rgb(0,69,134)" stroke-linejoin="round" d="M 23940,705 L 23941,843 23946,2556 23951,3371 23956,4081 23960,4849 23965,4900 23970,4649 23975,5025 23980,5122 23985,5122 23990,5265 23995,5529 23999,5867 24004,5671 24009,5637 24014,6019 24019,6000 24024,5886 24029,6170 24034,6353 24038,6255 24043,6109 24048,6160 24053,6331 24058,6202 24063,6501 24068,7060 24073,7017 24077,6255 24082,6089 24087,6397 24092,6119 24097,6513 24102,6212 24107,5867 24112,5980 24116,6181 24121,6079 24126,6059 24131,6852 24136,6825 24141,6597 24146,6646 24151,7075 24155,7623 24160,7335 24165,7209 24170,7535 24175,7466 24180,7017 24190,7119 24195,7209 24199,7367 24204,7179 24209,7335 24214,7483 24219,7449 24224,7623 24229,7808 24234,7770 24238,7225 24243,7383 24248,8027 24253,7770 24258,7383 24268,7400 24273,7303 24277,7225 24282,7271 24287,6548 24292,6420 24297,7271 24302,7149 24307,7060 24312,7695 24316,8359 24321,7713 24326,7179 24331,7046 24336,7483 24341,8359 24346,8685 24351,8505 24355,8244 24360,8177 24365,7623 24370,7751 24375,8480 24380,8313 24385,7770 24390,7885 24395,8221 24399,8244 24404,8530 24409,8455 24414,8244 24419,8048 24424,7552 24429,7788 24434,8313 24438,8383 24443,8712 24448,8407 24453,8244 24458,8313 24463,8407 24468,8199 24473,7677 24477,7500 24482,7808 24487,7905 24492,7400 24497,7623 24502,8244 24507,7695 24512,7808 24516,8336 24521,7827 24526,7449 24531,7164 24536,6658 24541,7046 24546,7319 24551,7256 24555,7808 24560,8112 24565,7945 24570,7569 24575,7732 24580,8244 24585,8712 24590,8431 24594,8133 24599,8177 24604,8244 24609,8267 24614,8383 24619,8027 24624,7885 24629,7846 24634,7925 24638,8048 24643,8006 24648,8383 24653,8336 24658,7965 24663,7905 24668,7659 24673,7483 24677,7770 24682,8289 24687,8267 24692,8221 24697,7179 24702,7179 24707,7659 24716,7335 24721,7287 24726,8155 24731,8027 24736,8289 24741,8407 24746,8199 24751,8336 24760,8069 24765,8027 24775,8177 24780,7449 24785,7017 24790,7003 24794,7433 24799,7695 24804,7587 24809,8069 24814,7945 24819,7788 24824,7808 24829,7751 24833,7945 24838,8112 24843,7905 24848,7925 24853,7751 24858,7466 24863,7383 24868,7319 24873,7517 24877,7659 24882,7605 24887,7335 24892,6671 24897,6432 24902,6501 24907,6109 24912,5839 24916,6212 24921,5767 24926,5952 24931,7256 24936,6975 24941,6919 24946,7240 24951,7046 24955,7075 24960,7134 24965,7433 24970,7925 24975,7846 24980,8027 24985,8090 24990,8199 24994,8480 24999,8090 25004,7659 25009,7866 25014,8267 25019,7925 25024,7866 25029,7256 25033,7003 25038,7256 25043,7788 25048,8739 25053,8530 25058,7905 25063,7965 25068,8267 25072,8336 25077,8480 25082,8027 25087,7466 25092,7335 25097,7866 25102,8155 25107,8069 25112,8313 25116,8112 25121,7605 25126,7416 25131,7433 25136,7060 25141,7367 25146,8244 25151,7751 25155,7225 25160,7287 25165,7659 25170,7827 25175,7587 25180,7695 25185,8289 25190,7945 25194,7695 25199,8267 25204,9025 25209,9313 25214,8995 25219,9118 25224,9313 25229,8850 25233,8505 25238,8555 25243,7986 25248,7827 25253,7925 25263,8069 25268,8133 25272,8313 25277,8336 25282,6879 25287,6420 25292,7623 25297,7986 25302,8177 25307,8606 25312,8455 25316,8244 25321,8090 25326,8530 25331,8965 25336,9213 25341,9087 25346,8267 25351,8289 25355,9087 25360,9451 25365,9313 25370,9213 25375,9313 25380,9279 25385,9056 25390,7925 25394,7149 25399,7383 25404,8027 25409,8480 25414,8712 25419,8936 25429,9056 25433,9118 25438,8850 25443,8555 25448,8027 25453,8069 25458,8936 25463,9149 25468,8965 25472,8632 25477,8794 25482,9279 25487,9025 25492,9025 25497,9149 25502,9279 25507,9381 25511,9313 25516,9313 25521,8006 25526,8090 25531,9597 25536,9279 25541,9279 25546,9213 25551,8766 25555,9025 25560,9523 25565,9597 25570,9025 25575,9056 25580,9673 25590,9056 25594,9181 25599,10182 25609,9916 25614,9451 25619,9279 25624,9832 25629,10326 25633,10136 25638,9597 25643,9279 25648,9416 25653,9246 25658,9451 25663,10046 25668,9673 25677,10046 25682,9832 25687,9752 25692,9874 25697,9416 25702,9451 25707,9213 25711,8907 25716,8965 25721,9025 25726,9149 25731,8995 25736,9118 25741,9213 25750,9025 25755,8821 25760,8580 25765,8431 25770,8383 25775,8359 25780,8407 25785,8155 25790,7623 25794,7808 25799,8069 25804,8244 25809,8850 25814,7483 25819,7179 25824,8431 25829,8712 25833,8177 25838,7925 25843,7788 25848,7986 25853,8606 25858,8712 25863,7945 25868,7677 25872,8069 25877,8090 25882,6786 25887,6501 25892,6525 25897,6933 25902,8431 25907,8407 25911,8313 25916,8133 25921,8006 25926,7846 25931,8267 25936,8995 25941,9118 25946,8685 25950,8878 25955,9487 25960,9056 25965,8685 25970,8555 25975,8878 25980,9149 25985,8658 25989,8313 25994,8794 25999,8995 26004,9181 26009,9313 26014,9118 26019,8505 26024,7751 26029,8359 26033,9313 26038,9213 26043,8455 26048,8199 26053,9087 26058,9916 26063,9958 26068,9451 26072,9347 26077,9560 26082,9635 26087,9752 26092,9874 26097,10090 26102,10002 26107,9958 26111,10277 26116,10376 26121,10427 26126,10229 26131,10277 26136,10696 26141,10531 26146,10229 26150,10136 26155,9523 26160,9560 26165,9874 26170,9832 26175,8965 26180,8878 26185,10136 26189,9712 26194,9673 26199,9958 26204,10046 26209,10640 26214,10933 26219,10376 26229,11192 26233,10933 26238,10812 26243,10872 26248,10696 26253,10812 26258,10640 26263,10812 26268,11480 26272,11060 26277,10640 26282,10136 26287,10427 26292,11332 26297,11060 26302,10640 26307,9381 26311,9313 26316,9712 26321,9635 26326,9279 26331,9279 26336,10002 26341,9279 26346,9213 26350,8821 26355,7925 26360,8455 26365,9056 26370,8407 26375,7367 26380,7209 26385,8480 26389,8936 26394,8606 26399,8336 26404,8606 26409,8431 26414,8199 26419,9279 26424,9916 26428,9874 26438,9313 26443,9118 26448,10090 26453,10753 26463,10427 26468,10376 26472,10136 26477,10277 26482,11126 26487,10872 26492,10640 26497,10376 26502,10585 26507,11405 26511,11261 26516,11332 26521,11719 26526,11480 26531,11192 26536,10933 26541,10996 26546,10640 26550,10585 26555,11192 26560,10136 26565,9832 26570,10229 26575,9149 26580,9487 26585,10996 26589,9635 26594,9832 26599,11637 26604,11332 26609,11192 26614,11558 26619,11558 26624,10753 26628,10996 26633,12075 26638,11480 26643,11405 26648,11719 26653,11126 26658,10872 26663,10326 26667,8133 26672,8530 26677,11405 26682,11480 26687,9597 26692,8936 26697,10376 26702,11480 26707,11126 26711,11192 26716,11261 26721,10872 26726,10996 26731,10812 26736,10427 26741,10753 26746,10996 26750,10872 26755,11126 26760,9635 26765,9313 26770,10696 26775,10812 26780,10376 26785,9673 26794,10182 26799,10376 26804,10640 26809,10229 26814,10376 26819,10229 26824,10182 26828,10933 26833,10872 26838,10812 26843,11126 26848,10812 26853,9916 26858,8995 26863,9246 26867,10182 26877,10531 26882,9712 26887,9087 26892,9246 26897,9451 26902,8995 26906,8199 26911,9025 26916,10136 26921,9752 26926,9381 26931,9635 26936,8658 26941,8850 26946,11332 26950,11804 26955,12172 26960,11804 26965,11719 26970,10933 26975,10585 26980,10753 26985,10933 26989,11804 26994,11480 26999,11192 27004,11637 27009,11558 27014,10640 27019,10479 27024,10479 27028,10753 27033,11192 27043,11637 27048,11637 27053,11719 27063,11480 27067,11126 27072,9916 27077,9181 27082,9673 27087,10479 27092,10996 27097,11126 27102,10427 27106,10585 27111,11261 27116,10640 27121,11126 27126,12486 27131,11637 27136,11558 27141,11637 27146,11804 27150,12075 27155,11558 27160,12172 27165,12971 27170,12841 27175,12599 27185,11981 27189,10585 27194,10479 27199,11405 27204,11637 27209,9832 27214,9673 27219,11192 27224,11804 27228,12075 27233,11891 27238,11804 27243,12172 27248,11804 27253,11060 27258,11126 27263,11637 27267,12377 27272,11060 27277,10812 27282,12075 27287,12717 27292,12272 27302,13252 27306,12841 27311,11891 27316,11637 27321,11719 27331,12172 27336,11480 27341,11558 27345,12599 27350,12841 27355,13252 27360,12971 27370,13108 27375,12075 27380,11480 27385,11891 27389,12075 27394,11637 27399,12172 27404,13108 27409,12599 27414,11981 27419,10376 27424,10136 27428,11192 27433,11405 27438,11126 27443,11558 27448,12075 27453,11126 27458,10933 27463,11637 27472,11981 27477,12971 27482,13108 27487,13404 27492,13566 27497,13108 27502,12717 27506,12971 27511,12717 27516,12486 27521,12971 27526,13108 27531,13252 27536,13566 27550,13566 27565,13404 27575,13566 27584,12841 27589,12717 27594,12841 27599,12599 27614,12717 27619,10872 27628,11804 27633,11558 27638,11891 27643,11719 27648,9752 27653,9673 27658,11981 27663,12272 27667,12075 27672,11891 27677,11558 27682,11192 27687,11060 27692,11558 27697,11261 27702,10640 27706,10696 27711,10640 27716,11060 27726,10996 27731,11480 27736,11126 27741,11060 27750,9712 27755,9673 27760,10376 27765,10182 27770,10531 27775,10376 27780,10531 27784,10753 27789,10326 27794,9416 27799,9056 27804,9279 27809,9673 27814,10002 27819,9958 27824,10229 27828,9025 27833,7552 27838,7090 27843,7433 27848,8480 27853,9874 27858,10696 27863,10376 27867,10872 27872,12075 27877,11804 27882,11981 27887,12172 27892,11804 27897,11719 27902,12075 27906,12486 27911,12717 27916,12486 27921,11719 27926,10753 27931,10812 27936,11405 27941,11719 27945,11637 27950,10531 27955,10479 27960,11480 27965,11891 27970,12486 27975,13108 27980,10812 27984,10872 27989,11332 27999,13108 28004,13404 28009,13921 28014,13252 28019,12717 28023,12599 28028,12971 28033,13738 28038,13921 28043,13252 28048,12841 28053,13108 28058,10376 28063,8878 28067,9451 28072,9874 28077,10229 28082,10996 28087,11637 28092,13252 28097,12486 28102,12172 28106,12841 28111,13252 28116,12971 28121,12599 28141,12377 28145,11891 28150,12272 28155,13108 28160,13252 28165,13108 28170,11891 28180,13404 28184,13108 28189,11981 28194,12172 28199,12272 28204,11981 28209,12377 28214,11261 28219,11637 28223,13921 28243,13108 28248,12841 28253,13108 28262,12486 28267,11981 28272,12841 28277,13108 28287,13404 28292,11637 28297,11719 28302,13738 28306,14332 28316,14332 28321,14119 28331,13738 28336,13252 28341,13108 28345,12272 28350,12172 28355,12971 28360,13566 28365,13921 28370,13404 28380,13921 28384,13921 28399,13566 28404,13404 28409,13252 28414,10996 28419,10933 28423,12841 28433,13108 28438,13404 28448,13566 28453,13108 28458,13108 28462,12841 28467,12272 28472,11332 28477,11480 28482,12971 28487,13252 28492,12841 28497,12717 28501,10753 28506,10872 28511,13404 28521,13566 28526,13404 28531,13108 28541,12841 28545,12717 28550,13252 28555,13252 28560,12971 28565,12841 28570,11981 28575,11719 28580,12075 28584,11060 28589,10753 28594,9958 28599,10326 28604,11981 28609,11891 28614,11480 28619,10996 28623,10696 28628,10090 28633,10585 28638,10933 28643,11192 28648,12172 28653,11405 28658,11126 28662,11637 28672,11405 28677,11719 28682,12377 28687,12272 28692,8505 28697,8383 28701,6420 28706,6331 28711,10376 28716,10585 28721,11060 28726,10229 28731,9313 28736,9916 28741,11126 28745,11261 28755,11192 28760,10996 28765,11126 28770,11060 28775,10872 28780,10090 28784,10326 28789,11060 28794,10585 28799,10753 28804,7925 28809,7271 28814,9347 28819,10933 28823,10229 28828,10277 28833,11126 28838,11405 28843,11804 28848,11637 28853,10812 28862,11405 28867,10753 28872,10812 28877,11891 28882,11637 28887,11480 28892,11558 28897,10531 28901,10182 28906,10640 28911,10812 28916,10326 28926,11405 28931,10753 28936,10640 28940,10996 28945,10933 28950,11558 28955,10753 28960,10753 28965,11558 28970,10090 28975,8965 28980,9916 28984,12075 28989,11719 28999,11804 29004,11558 29009,11558 29014,10696 29019,9832 29023,9597 29028,8313 29033,8090 29038,9451 29043,10427 29048,10002 29053,9958 29058,10479 29062,10427 29067,9313 29072,9451 29077,11060 29082,10872 29087,9916 29092,9673 29097,9874 29101,9712 29106,9246 29111,8821 29116,8878 29121,8606 29126,8530 29131,6420 29136,4775 29140,5488 29145,8455 29150,10753 29155,11192 29160,12172 29175,13108 29179,12841 29184,12272 29189,11804 29194,12717 29199,14119 29204,12971 29209,11981 29214,12075 29219,12841 29223,12377 29228,11804 29233,11891 29238,12075 29243,12971 29248,12717 29253,12486 29258,12172 29262,12599 29267,13921 29272,13738 29277,13921 29282,11637 29287,11405 29292,13108 29297,13738 29301,14564 29306,15412 29311,12971 29316,13108 29321,16664 29326,17259 29340,15412 29350,17259 29355,16664 29360,15768 29365,16178 29370,16664 29379,15768 29389,17259 29394,16664 29414,17259 29438,17259 29448,16178 29453,14119 29458,14564 29462,17259 29487,17259 29492,15768 29501,17259 29511,17259 29536,17259 29555,17259 29560,16664 29570,17259 29579,17259 29604,17259 29628,17259 29653,17259 29677,17259 29687,16664 29697,15768 29701,15768 29706,17259 29726,17259 29750,17259 29775,17259 29784,16178 29789,15768 29794,16664 29799,15412 29809,16664 29814,15098 29818,15412 29823,16178 29833,15768 29843,17259 29857,16178 29862,15412 29867,14818 29872,14564 29877,15412 29882,16178 29892,16664 29911,16178 29916,15098 29921,15768 29926,19105 29940,19105 29965,19105 29970,17259 29979,18025 29989,17259 29999,19105 30014,19105 30033,19105 30043,18025 30053,19105 30057,19105 30082,19105 30106,19105 30126,18025 30131,18025 30136,19105 30140,18025 30150,19105 30155,17259 30165,19105 30179,19105 30184,18025 30194,19105 30204,19105 30209,17259 30218,19105 30228,19105 30233,18025 30243,19105 30253,19105 30277,19105 30296,19105 30321,18025 30331,16664 30340,19105 30345,19105 30350,18025 30360,19105 30370,19105 30384,18025 30389,17259 30394,18025 30399,19105 30418,19105 30443,19105 30467,19105 30492,19105 30516,19105 30535,19105 30540,17259 30550,19105 30560,19105 30584,19105 30609,19105 30633,19105 30657,19105 30682,19105 30701,18025 30706,18025 30711,19105 30716,18025 30726,19105 30731,19105 30755,19105 30760,17259 30765,16664 30770,18025 30774,19105 30799,19105 30823,19105 30833,15768 30838,13921 30843,15098 30848,19105 30872,19105 30882,15412 30887,15098 30892,16178 30896,16664 30901,19105 30921,19105 30945,19105 30970,19105 30979,17259 30984,16664 30989,18025 30994,19105 31013,17259 31023,19105 31028,15412 31033,14818 31038,16664 31043,13566 31048,13404 31053,12717 31057,12272 31062,13404 31067,13921 31072,15412 31077,14564 31082,15098 31087,18025 31092,19105 31111,19105 31135,19105 31160,19105 31184,19105 31209,19105 31233,19105 31253,19105 31257,16664 31262,15098 31267,14818 31272,16178 31277,19105 31292,18025 31301,18025 31316,15098 31321,14564 31326,15412 31331,14564 31335,15412 31340,18025 31350,18025 31355,17259 31360,16664 31374,17259 31379,19105 31384,18025 31389,16664 31394,16178 31399,16664 31404,17259 31409,18025 31413,19105 31418,18025 31423,16664 31428,17259 31433,19105 31448,19105 31457,17259 31467,19105 31472,19105 31477,16664 31487,19105 31496,19105 31506,18025 31511,17259 31516,16664 31526,17259 31531,15412 31535,15098 31540,15768 31545,16664 31550,19105 31565,19105 31589,19105 31609,18025 31613,18025 31628,19105 31638,19105 31648,14332 31652,14119 31657,18025 31662,19105 31672,17259 31677,16178 31682,15412 31687,15412 31691,16178 31706,17259 31711,19105 31716,18025 31721,15768 31726,15412 31735,15768 31740,18025 31745,19105 31750,14119 31755,13738 31760,17259 31765,19105 31779,19105 31784,18025 31794,19105 31804,19105 31813,18025 31828,18025 31833,19105 31852,19105 31877,19105 31901,19105 31916,16664 31926,19105 31930,15412 31940,18025 31950,19105 31960,17259 31974,17259 31979,16664 31989,18025 31994,18025 31999,19105 32004,18025 32013,19105 32018,19105 32033,18025 32043,19105 32067,19105 32091,19105 32101,15412 32106,13921 32111,15098 32116,17259 32126,18025 32130,19105 32140,19105 32155,18025 32165,18025 32174,15768 32179,15412 32184,18025 32189,17259 32199,19105 32213,19105 32233,19105 32257,18025 32267,19105 32282,19105 32306,19105 32330,19105 32340,16664 32350,19105 32355,19105 32360,17259 32369,18025 32379,19105 32389,15768 32399,19105 32404,19105 32428,19105 32433,15768 32443,15412 32448,14119 32452,13921 32457,15098 32462,19105 32472,15768 32477,14818 32482,16664 32487,19105 32496,19105 32521,18025 32530,19105 32545,19105 32550,18025 32555,15768 32560,13108 32565,13566 32569,17259 32574,16664 32579,15412 32584,15768 32589,17259 32594,15098 32604,17259 32618,17259 32623,16664 32633,17259 32643,15412 32648,14564 32652,15768 32657,16664 32667,17259 32691,17259 32706,7623 32711,7605 32716,16178 32721,17259 32726,19105 32735,19105 32760,19105 32784,19105 32804,18025 32808,17259 32813,18025 32818,19105 32833,19105 32857,19105 32882,19105 32906,19105 32926,18025 32930,18025 32935,19105 32940,17259 32945,16664 32950,18025 32955,18025 32960,17259 32965,16664 32969,16178 32974,16664 32979,12599 32989,16664 32999,17259 33004,14332 33008,14564 33013,19105 33023,19105 33047,19105 33072,19105 33096,19105 33111,18025 33121,19105 33140,18025 33145,18025 33150,19105 33169,17259 33179,19105 33194,19105 33213,19105 33238,19105 33262,19105 33282,18025 33286,18025 33291,19105 33311,19105 33335,19105 33360,19105 33384,19105 33408,19105 33423,18025 33428,17259 33433,16178 33438,16664 33443,19105 33452,19105 33472,18025 33477,18025 33491,19105 33501,19105 33525,19105 33535,18025 33540,16664 33545,17259 33550,19105 33574,19105 33584,18025 33589,17259 33594,18025 33599,17259 33608,19105 33623,19105 33647,18025 33652,17259 33657,15768 33667,17259 33672,17259 33682,15412 33686,14564 33691,14818 33696,14119 33701,14818 33706,18025 33711,19105 33716,19105 33740,19105 33764,19105 33789,19105 33813,19105 33838,19105 33862,19105 33872,18025 33877,17259 33882,18025 33886,19105 33911,19105 33935,19105 33940,14332 33950,19105 33955,19105 33979,19105 33999,18025 34004,15768 34008,16178 34013,19105 34028,19105 34052,19105 34077,19105 34101,19105 34125,19105 34150,19105 34174,19105 34194,19105 34218,17259 34228,19105 34243,19105 34267,19105 34291,19105 34301,17259 34311,19105 34316,19105 34335,17259 34340,16178 34345,16664 34355,15768 34360,15098 34364,14818 34369,15098 34374,15768 34379,17259 34384,19105 34389,15768 34394,15098 34399,14818 34403,13921 34408,15412 34413,19105 34433,19105 34452,18025 34457,17259 34462,16664 34467,16178 34472,15098 34477,14564 34482,15768 34486,17259 34506,16664 34511,16178 34516,15412 34521,15098 34525,15768 34530,16178 34535,16664 34540,17259 34545,16178 34550,15412 34555,15768 34560,16664 34564,17259 34574,13921 34579,13566 34584,15768 34589,14818 34599,16178 34603,17259 34608,19105 34628,17259 34633,15412 34638,16178 34642,19105 34652,19105 34672,19105 34691,16178 34696,16178 34701,19105 34721,19105 34745,19105 34755,18025 34760,17259 34769,18025 34774,19105 34794,19105 34818,19105 34842,19105 34867,19105 34891,19105 34911,19105 34935,19105 34960,19105 34984,19105 35008,19105 35033,19105 35057,19105 35081,19105 35106,19105 35130,19105 35155,19105 35174,19105 35189,17259 35199,19105 35223,19105 35247,19105 35272,19105 35296,19105 35320,19105 35345,19105 35369,19105 35394,19105 35413,19105 35438,19105 35462,19105 35486,19105 35511,19105 35535,19105 35559,19105 35584,19105 35608,19105 35633,19105 35638,18025 35642,17259 35652,16664 35662,17259 35667,16178 35672,15768 35677,15768 35686,14564 35696,16178 35701,17259 35706,19105 35725,19105 35750,19105 35774,19105 35798,19105 35823,16178 35828,15412 35833,16664 35838,18025 35842,19105 35847,19105 35862,17259 35872,19105 35891,19105 35916,19105 35920,17259 35930,18025 35935,16178 35940,16178 35950,16664 35955,19105 35964,18025 35984,19105 35989,19105 35994,18025 35998,17259 36008,15412 36013,14818 36018,15412 36023,15768 36028,17259 36033,19105 36037,19105 36062,19105 36086,19105 36101,18025 36111,19105 36130,19105 36155,19105 36179,19105 36203,19105 36228,19105 36252,18025 36262,19105 36276,19105 36301,19105 36325,19105 36350,19105 36364,17259 36369,15412 36374,14119 36379,15098 36384,19105 36394,19105 36418,19105 36442,19105 36457,17259 36467,19105 36481,16178 36486,15412 36491,15768 36496,13921 36501,14119 36506,15768 36516,16664 36520,17259 36535,16664 36540,16664 36545,17259 36564,17259 36569,16664 36579,17259 36584,16664 36589,14818 36594,14564 36598,16178 36603,17259 36613,17259 36633,17259 36657,17259 36681,17259 36686,16664 36706,17259 36730,17259 36755,17259 36759,16664 36764,12971 36769,12599 36774,15412 36779,16178 36789,17259 36794,16664 36803,17259 36828,17259 36847,16664 36852,16664 36857,16178 36867,15768 36872,15768 36876,15412 36886,17259 36896,17259 36901,13921 36906,13404 36911,15412 36920,15098 36925,15768 36930,15412 36935,15098 36940,15412 36945,16178 36950,17259 36969,16664 36974,16178 36979,16664 36984,14332 36994,16178 36998,14818 37003,15412 37008,17259 37018,17259 37042,17259 37052,16664 37062,17259 37067,16664 37072,15098 37076,14564 37081,15412 37086,16664 37091,17259 37111,17259 37135,17259 37159,17259 37184,17259 37198,16178 37208,17259 37233,17259 37257,17259 37276,16178 37281,14332 37286,14119 37291,11060 37296,10427 37301,12717 37306,15412 37311,17259 37315,10427 37320,10376 37325,15768 37330,15768 37335,14119 37340,13921 37345,15768 37350,14818 37354,13921 37359,10479 37364,9523 37369,11719 37374,16178 37398,16178 37423,16178 37447,16178 37472,16178 37491,14818 37496,14332 37506,13921 37511,14818 37515,16178 37520,16178 37545,16178 37569,16178 37584,13921 37589,13252 37593,15098 37598,17259 37613,17259 37637,17259 37647,16178 37652,15098 37657,15768 37662,16178 37672,17259 37686,15768 37696,17259 37701,16664 37706,15768 37711,15768 37720,15412 37725,16178 37730,17259 37735,17259 37759,17259 37764,12377 37769,12272 37774,16178 37784,16178 37808,16178 37818,14818 37828,16178 37832,16178 37842,12841 37847,12717 37852,11637 37857,11719 37862,16664 37867,17259 37871,16664 37876,16664 37881,17259 37886,16664 37891,16178 37901,15768 37915,16178 37920,17259 37925,16178 37930,16664 37935,19105 37950,19105 37974,19105 37984,18025 37993,19105 37998,19105 38023,19105 38042,17259 38047,15412 38052,15768 38057,17259 38062,15768 38071,17259 38091,17259 38115,16664 38125,17259 38130,15412 38140,17259 38164,17259 38189,17259 38213,17259 38237,17259 38262,17259 38286,17259 38310,17259 38330,17259 38354,17259 38379,16664 38384,16178 38389,16664 38393,17259 38403,17259 38408,15768 38418,17259 38423,16664 38428,16664 38432,17259 38442,13566 38447,13404 38452,16178 38467,15768 38471,15412 38476,14564 38481,14818 38486,14564 38491,12717 38501,13252 38506,12377 38510,12172 38515,12717 38520,13404 38525,13108 38530,13404 38535,13566 38540,12841 38545,12272 38549,12172 38554,12272 38559,12717 38564,13252 38569,13404 38574,14564 38579,14818 38593,14818 38598,14564 38603,14119 38608,14332 38613,14818 38618,14564 38628,14818 38632,14332 38637,13738 38642,13921 38647,13738 38652,13921 38657,14818 38667,14818 38671,14564 38681,14818 38691,14818 38710,14332 38715,14332 38720,14818 38725,14564 38735,14818 38740,14564 38749,14818 38764,14818 38788,14332 38798,14818 38813,14818 38818,13921 38823,13108 38828,13252 38832,13921 38837,14119 38847,13738 38857,13921 38862,13566 38867,12377 38871,11891 38876,12841 38881,13252 38886,11405 38891,10933 38896,12075 38901,13108 38906,13404 38910,11637 38920,13252 38925,12486 38930,12717 38935,13404 38940,13108 38945,12599 38949,11480 38954,10933 38959,11405 38964,12272 38969,12377 38974,11804 38979,11261 38984,11405 38988,12075 38998,10753 39003,10933 39008,12599 39013,13252 39018,13404 39023,13566 39028,13252 39032,12717 39037,12486 39042,12717 39047,12486 39052,12377 39057,13252 39062,13738 39067,13921 39071,13738 39081,13921 39086,13738 39091,13566 39096,11981 39106,13738 39110,13921 39115,12075 39120,11981 39125,13738 39130,13921 39140,14119 39145,13738 39149,13404 39154,11981 39159,11804 39164,12841 39169,12971 39174,11804 39179,10872 39184,11637 39188,10090 39193,10182 39198,12971 39203,13108 39208,13566 39218,13404 39227,12971 39237,13566 39242,11891 39247,11804 39252,13404 39257,13566 39267,13566 39271,13404 39276,13252 39281,13404 39286,13566 39291,13566 39296,13404 39301,13252 39306,12971 39310,12272 39315,11981 39320,12172 39325,12272 39330,12377 39335,11981 39340,11558 39345,11261 39349,11719 39354,12272 39359,11637 39364,11804 39369,11891 39374,11558 39379,11891 39384,12075 39388,11891 39393,12272 39398,11060 39403,10585 39408,11891 39413,12599 39418,11719 39423,11405 39427,11480 39432,10872 39437,11192 39442,10585 39447,10427 39452,9752 39457,9752 39462,11891 39466,11637 39471,11804 39476,12272 39481,12377 39486,13252 39491,12971 39501,13566 39506,11558 39510,11192 39515,12377 39520,11126 39525,10753 39530,11405 39535,11126 39540,9181 39545,8685 39549,9087 39554,9279 39559,10696 39564,10812 39569,10696 39574,11192 39579,10229 39584,10002 39588,10376 39593,10585 39598,10531 39603,10585 39608,10376 39613,10753 39618,11891 39623,11804 39627,11981 39632,12377 39642,12272 39647,12172 39652,11891 39657,11405 39662,9958 39666,9874 39671,11637 39676,11891 39681,11719 39686,11804 39691,9560 39696,9451 39701,11192 39705,11804 39710,12172 39715,10585 39720,9792 39725,10136 39730,10753 39735,11332 39740,11558 39745,11981 39749,12075 39754,11405 39759,11637 39764,11060 39769,10812 39774,10640 39779,10531 39784,11405 39788,11558 39793,11637 39798,11060 39803,10933 39808,11261 39813,11719 39818,12172 39823,12075 39827,12717 39832,13252 39837,12841 39852,12717 39857,13108 39862,12971 39866,12075 39871,12172 39876,12599 39886,13404 39891,13252 39896,13566 39901,14332 39905,11804 39910,10585 39915,11719 39920,14119 39925,13738 39930,11192 39935,11637 39940,15768 39949,14332 39954,13921 39959,14564 39964,14818 39969,15412 39979,15768 39984,15768 39993,16178 40003,15098 40008,14564 40013,15412 40018,15098 40023,14564 40027,13566 40032,11332 40037,10872 40042,12272 40047,14332 40052,15412 40076,15412 40101,13404 40105,13108 40110,15098 40115,16178 40120,14119 40125,14119 40130,12971 40135,12717 40140,14818 40144,12486 40149,12599 40154,14119 40159,13921 40164,13252 40169,13566 40174,16178 40198,16178 40223,16178 40237,15768 40242,11480 40247,11558 40252,16178 40271,16178 40291,16178 40315,16178 40340,16178 40364,16178 40388,16178 40413,16178 40437,12272 40447,16178 40452,13921 40462,16178 40486,16664 40491,17259 40505,15098 40510,15098 40515,17259 40520,12377 40530,17259 40549,16664 40554,16178 40559,15412 40564,15098 40569,14564 40574,13566 40579,13566 40583,13108 40588,13404 40593,14564 40598,15412 40603,17259 40627,17259 40642,16664 40652,16664 40662,17259 40676,17259 40701,17259 40725,17259 40735,16664 40740,15768 40744,16178 40749,17259 40769,17259 40793,17259 40818,17259 40822,16664 40827,15768 40832,15412 40837,15768 40842,16178 40852,16664 40857,17259 40866,17259 40881,16664 40886,15412 40891,15098 40896,16178 40901,15768 40910,17259 40915,17259 40920,16664 40930,17259 40940,17259 40964,17259 40983,16664 40988,16178 40998,13404 41003,13252 41008,15412 41013,15768 41018,14564 41022,14818 41027,17259 41032,14564 41042,17259 41057,17259 41081,17259 41105,16664 41110,12971 41115,12075 41120,14119 41125,14564 41130,13108 41135,13252 41140,8530 41149,14818 41154,17259 41179,17259 41203,17259 41227,17259 41252,17259 41271,17259 41296,17259 41320,17259 41344,17259 41369,17259 41393,17259 41418,17259 41442,15768 41452,17259 41466,17259 41491,17259 41510,16664 41520,17259 41535,17259 41549,16664 41554,17259 41559,19105 41583,19105 41608,19105 41632,19105 41657,19105 41681,19105 41705,19105 41730,19105 41749,19105 41774,19105 41798,19105 41822,19105 41847,19105 41871,18025 41881,19105 41896,19105 41920,19105 41944,19105 41969,19105 41988,19105 42013,19105 42037,19105 42061,19105 42086,19105 42110,19105 42135,19105 42159,19105 42174,16664 42178,15768 42183,16178 42188,17259 42193,18025 42198,17259 42203,18025 42208,19105 42227,19105 42252,19105 42276,19105 42300,19105 42325,19105 42349,19105 42364,15412 42369,15098 42374,17259 42378,16178 42383,15768 42388,16178 42398,15098 42408,16664 42413,17259 42422,17259 42447,17259 42466,16664 42471,16178 42481,17259 42486,19105 42491,19105 42515,19105 42539,19105 42564,18025 42574,19105 42588,19105 42603,18025 42613,19105 42637,19105 42661,19105 42686,19105 42710,19105 42720,18025 42730,19105 42739,18025 42749,19105 42754,19105 42778,19105 42803,19105 42827,19105 42852,19105 42876,19105 42900,19105 42925,19105 42949,19105 42969,19105 42993,19105 43017,19105 43042,19105 43066,19105 43091,19105 43115,19105 43139,19105 43164,19105 43188,19105 43208,19105 43232,19105 43256,19105 43281,19105 43305,19105 43330,19105 43354,19105 43378,19105 43403,19105 43427,19105 43447,19105 43471,19105 43495,19105 43520,19105 43539,18025 43544,18025 43549,19105 43569,19105 43593,19105 43617,19105 43642,19105 43666,19105 43691,19105 43710,19105 43734,19105 43759,19105 43769,18025 43778,19105 43783,19105 43788,17259 43798,18025 43808,19105 43812,18025 43822,19105 43832,18025 43837,17259 43842,18025 43847,19105 43856,20952"/>
 <text class="TextShape"><tspan class="TextParagraph" font-family="Liberation Sans, sans-serif" font-size="353px" font-weight="400"><tspan class="TextPosition" x="1564" y="21520"><tspan fill="rgb(0,0,0)" stroke="none">-4500</tspan></tspan></tspan></text>
 <text class="TextShape"><tspan class="TextParagraph" font-family="Liberation Sans, sans-serif" font-size="353px" font-weight="400"><tspan class="TextPosition" x="4002" y="21520"><tspan fill="rgb(0,0,0)" stroke="none">-4000</tspan></tspan></tspan></text>
 <text class="TextShape"><tspan class="TextParagraph" font-family="Liberation Sans, sans-serif" font-size="353px" font-weight="400"><tspan class="TextPosition" x="6441" y="21520"><tspan fill="rgb(0,0,0)" stroke="none">-3500</tspan></tspan></tspan></text>
 <text class="TextShape"><tspan class="TextParagraph" font-family="Liberation Sans, sans-serif" font-size="353px" font-weight="400"><tspan class="TextPosition" x="8880" y="21520"><tspan fill="rgb(0,0,0)" stroke="none">-3000</tspan></tspan></tspan></text>
 <text class="TextShape"><tspan class="TextParagraph" font-family="Liberation Sans, sans-serif" font-size="353px" font-weight="400"><tspan class="TextPosition" x="11319" y="21520"><tspan fill="rgb(0,0,0)" stroke="none">-2500</tspan></tspan></tspan></text>
 <text class="TextShape"><tspan class="TextParagraph" font-family="Liberation Sans, sans-serif" font-size="353px" font-weight="400"><tspan class="TextPosition" x="13758" y="21520"><tspan fill="rgb(0,0,0)" stroke="none">-2000</tspan></tspan></tspan></text>
 <text class="TextShape"><tspan class="TextParagraph" font-family="Liberation Sans, sans-serif" font-size="353px" font-weight="400"><tspan class="TextPosition" x="16197" y="21520"><tspan fill="rgb(0,0,0)" stroke="none">-1500</tspan></tspan></tspan></text>
 <text class="TextShape"><tspan class="TextParagraph" font-family="Liberation Sans, sans-serif" font-size="353px" font-weight="400"><tspan class="TextPosition" x="18635" y="21520"><tspan fill="rgb(0,0,0)" stroke="none">-1000</tspan></tspan></tspan></text>
 <text class="TextShape"><tspan class="TextParagraph" font-family="Liberation Sans, sans-serif" font-size="353px" font-weight="400"><tspan class="TextPosition" x="21167" y="21520"><tspan fill="rgb(0,0,0)" stroke="none">-500</tspan></tspan></tspan></text>
 <text class="TextShape"><tspan class="TextParagraph" font-family="Liberation Sans, sans-serif" font-size="353px" font-weight="400"><tspan class="TextPosition" x="23844" y="21520"><tspan fill="rgb(0,0,0)" stroke="none">0</tspan></tspan></tspan></text>
 <text class="TextShape"><tspan class="TextParagraph" font-family="Liberation Sans, sans-serif" font-size="353px" font-weight="400"><tspan class="TextPosition" x="26098" y="21520"><tspan fill="rgb(0,0,0)" stroke="none">500</tspan></tspan></tspan></text>
 <text class="TextShape"><tspan class="TextParagraph" font-family="Liberation Sans, sans-serif" font-size="353px" font-weight="400"><tspan class="TextPosition" x="28444" y="21520"><tspan fill="rgb(0,0,0)" stroke="none">1000</tspan></tspan></tspan></text>
 <text class="TextShape"><tspan class="TextParagraph" font-family="Liberation Sans, sans-serif" font-size="353px" font-weight="400"><tspan class="TextPosition" x="30883" y="21520"><tspan fill="rgb(0,0,0)" stroke="none">1500</tspan></tspan></tspan></text>
 <text class="TextShape"><tspan class="TextParagraph" font-family="Liberation Sans, sans-serif" font-size="353px" font-weight="400"><tspan class="TextPosition" x="33321" y="21520"><tspan fill="rgb(0,0,0)" stroke="none">2000</tspan></tspan></tspan></text>
 <text class="TextShape"><tspan class="TextParagraph" font-family="Liberation Sans, sans-serif" font-size="353px" font-weight="400"><tspan class="TextPosition" x="35760" y="21520"><tspan fill="rgb(0,0,0)" stroke="none">2500</tspan></tspan></tspan></text>
 <text class="TextShape"><tspan class="TextParagraph" font-family="Liberation Sans, sans-serif" font-size="353px" font-weight="400"><tspan class="TextPosition" x="38199" y="21520"><tspan fill="rgb(0,0,0)" stroke="none">3000</tspan></tspan></tspan></text>
 <text class="TextShape"><tspan class="TextParagraph" font-family="Liberation Sans, sans-serif" font-size="353px" font-weight="400"><tspan class="TextPosition" x="40638" y="21520"><tspan fill="rgb(0,0,0)" stroke="none">3500</tspan></tspan></tspan></text>
 <text class="TextShape"><tspan class="TextParagraph" font-family="Liberation Sans, sans-serif" font-size="353px" font-weight="400"><tspan class="TextPosition" x="43077" y="21520"><tspan fill="rgb(0,0,0)" stroke="none">4000</tspan></tspan></tspan></text>
 <text class="TextShape"><tspan class="TextParagraph" font-family="Liberation Sans, sans-serif" font-size="353px" font-weight="400"><tspan class="TextPosition" x="45516" y="21520"><tspan fill="rgb(0,0,0)" stroke="none">4500</tspan></tspan></tspan></text>
 <text class="TextShape"><tspan class="TextParagraph" font-family="Liberation Sans, sans-serif" font-size="353px" font-weight="400"><tspan class="TextPosition" x="1553" y="21073"><tspan fill="rgb(0,0,0)" stroke="none">1</tspan></tspan></tspan></text>
 <text class="TextShape"><tspan class="TextParagraph" font-family="Liberation Sans, sans-serif" font-size="353px" font-weight="400"><tspan class="TextPosition" x="1368" y="14939"><tspan fill="rgb(0,0,0)" stroke="none">10</tspan></tspan></tspan></text>
 <text class="TextShape"><tspan class="TextParagraph" font-family="Liberation Sans, sans-serif" font-size="353px" font-weight="400"><tspan class="TextPosition" x="1182" y="8805"><tspan fill="rgb(0,0,0)" stroke="none">100</tspan></tspan></tspan></text>
 <text class="TextShape"><tspan class="TextParagraph" font-family="Liberation Sans, sans-serif" font-size="353px" font-weight="400"><tspan class="TextPosition" x="997" y="2671"><tspan fill="rgb(0,0,0)" stroke="none">1000</tspan></tspan></tspan></text>
 <text class="TextShape"><tspan class="TextParagraph" font-family="Liberation Sans, sans-serif" font-size="353px" font-weight="400"><tspan class="TextPosition" x="46136" y="21073"><tspan fill="rgb(0,0,0)" stroke="none">1</tspan></tspan></tspan></text>
 <text class="TextShape"><tspan class="TextParagraph" font-family="Liberation Sans, sans-serif" font-size="353px" font-weight="400"><tspan class="TextPosition" x="46136" y="14939"><tspan fill="rgb(0,0,0)" stroke="none">10</tspan></tspan></tspan></text>
 <text class="TextShape"><tspan class="TextParagraph" font-family="Liberation Sans, sans-serif" font-size="353px" font-weight="400"><tspan class="TextPosition" x="46136" y="8805"><tspan fill="rgb(0,0,0)" stroke="none">100</tspan></tspan></tspan></text>
 <text class="TextShape"><tspan class="TextParagraph" font-family="Liberation Sans, sans-serif" font-size="353px" font-weight="400"><tspan class="TextPosition" x="46136" y="2671"><tspan fill="rgb(0,0,0)" stroke="none">1000</tspan></tspan></tspan></text>
</svg>