<?xml version="1.0" encoding="UTF-8"?>
<!DOCTYPE svg PUBLIC "-//W3C//DTD SVG 1.1//EN" "http://www.w3.org/Graphics/SVG/1.1/DTD/svg11.dtd">
<svg width="472mm" height="218mm" viewBox="0 0 47200 21800" version="1.1" xmlns="http://www.w3.org/2000/svg" xmlns:xlink="http://www.w3.org/1999/xlink" stroke-width="28.222" stroke-linejoin="round" xml:space="preserve">
 <path fill="rgb(255,255,255)" stroke="none" d="M 23598,21808 L 3,21808 3,0 47192,0 47192,21808 23598,21808 Z"/>
 <path fill="none" stroke="rgb(179,179,179)" stroke-linejoin="round" d="M 23775,20725 L 1673,20725 1673,635 45877,635 45877,20725 23775,20725 Z"/>
 <path fill="none" stroke="rgb(179,179,179)" stroke-linejoin="round" d="M 1672,634 L 1672,20724"/>
 <path fill="none" stroke="rgb(179,179,179)" stroke-linejoin="round" d="M 3777,634 L 3777,20724"/>
 <path fill="none" stroke="rgb(179,179,179)" stroke-linejoin="round" d="M 5882,634 L 5882,20724"/>
 <path fill="none" stroke="rgb(179,179,179)" stroke-linejoin="round" d="M 7987,634 L 7987,20724"/>
 <path fill="none" stroke="rgb(179,179,179)" stroke-linejoin="round" d="M 10092,634 L 10092,20724"/>
 <path fill="none" stroke="rgb(179,179,179)" stroke-linejoin="round" d="M 12197,634 L 12197,20724"/>
 <path fill="none" stroke="rgb(179,179,179)" stroke-linejoin="round" d="M 14302,634 L 14302,20724"/>
 <path fill="none" stroke="rgb(179,179,179)" stroke-linejoin="round" d="M 16407,634 L 16407,20724"/>
 <path fill="none" stroke="rgb(179,179,179)" stroke-linejoin="round" d="M 18512,634 L 18512,20724"/>
 <path fill="none" stroke="rgb(179,179,179)" stroke-linejoin="round" d="M 20617,634 L 20617,20724"/>
 <path fill="none" stroke="rgb(179,179,179)" stroke-linejoin="round" d="M 22722,634 L 22722,20724"/>
 <path fill="none" stroke="rgb(179,179,179)" stroke-linejoin="round" d="M 24826,634 L 24826,20724"/>
 <path fill="none" stroke="rgb(179,179,179)" stroke-linejoin="round" d="M 26931,634 L 26931,20724"/>
 <path fill="none" stroke="rgb(179,179,179)" stroke-linejoin="round" d="M 29036,634 L 29036,20724"/>
 <path fill="none" stroke="rgb(179,179,179)" stroke-linejoin="round" d="M 31141,634 L 31141,20724"/>
 <path fill="none" stroke="rgb(179,179,179)" stroke-linejoin="round" d="M 33246,634 L 33246,20724"/>
 <path fill="none" stroke="rgb(179,179,179)" stroke-linejoin="round" d="M 35351,634 L 35351,20724"/>
 <path fill="none" stroke="rgb(179,179,179)" stroke-linejoin="round" d="M 37456,634 L 37456,20724"/>
 <path fill="none" stroke="rgb(179,179,179)" stroke-linejoin="round" d="M 39561,634 L 39561,20724"/>
 <path fill="none" stroke="rgb(179,179,179)" stroke-linejoin="round" d="M 41666,634 L 41666,20724"/>
 <path fill="none" stroke="rgb(179,179,179)" stroke-linejoin="round" d="M 43771,634 L 43771,20724"/>
 <path fill="none" stroke="rgb(179,179,179)" stroke-linejoin="round" d="M 45876,634 L 45876,20724"/>
 <path fill="none" stroke="rgb(221,221,221)" stroke-linejoin="round" d="M 2199,634 L 2199,20724"/>
 <path fill="none" stroke="rgb(221,221,221)" stroke-linejoin="round" d="M 2725,634 L 2725,20724"/>
 <path fill="none" stroke="rgb(221,221,221)" stroke-linejoin="round" d="M 3251,634 L 3251,20724"/>
 <path fill="none" stroke="rgb(221,221,221)" stroke-linejoin="round" d="M 4304,634 L 4304,20724"/>
 <path fill="none" stroke="rgb(221,221,221)" stroke-linejoin="round" d="M 4830,634 L 4830,20724"/>
 <path fill="none" stroke="rgb(221,221,221)" stroke-linejoin="round" d="M 5356,634 L 5356,20724"/>
 <path fill="none" stroke="rgb(221,221,221)" stroke-linejoin="round" d="M 6409,634 L 6409,20724"/>
 <path fill="none" stroke="rgb(221,221,221)" stroke-linejoin="round" d="M 6935,634 L 6935,20724"/>
 <path fill="none" stroke="rgb(221,221,221)" stroke-linejoin="round" d="M 7461,634 L 7461,20724"/>
 <path fill="none" stroke="rgb(221,221,221)" stroke-linejoin="round" d="M 8514,634 L 8514,20724"/>
 <path fill="none" stroke="rgb(221,221,221)" stroke-linejoin="round" d="M 9040,634 L 9040,20724"/>
 <path fill="none" stroke="rgb(221,221,221)" stroke-linejoin="round" d="M 9566,634 L 9566,20724"/>
 <path fill="none" stroke="rgb(221,221,221)" stroke-linejoin="round" d="M 10619,634 L 10619,20724"/>
 <path fill="none" stroke="rgb(221,221,221)" stroke-linejoin="round" d="M 11145,634 L 11145,20724"/>
 <path fill="none" stroke="rgb(221,221,221)" stroke-linejoin="round" d="M 11671,634 L 11671,20724"/>
 <path fill="none" stroke="rgb(221,221,221)" stroke-linejoin="round" d="M 12724,634 L 12724,20724"/>
 <path fill="none" stroke="rgb(221,221,221)" stroke-linejoin="round" d="M 13250,634 L 13250,20724"/>
 <path fill="none" stroke="rgb(221,221,221)" stroke-linejoin="round" d="M 13776,634 L 13776,20724"/>
 <path fill="none" stroke="rgb(221,221,221)" stroke-linejoin="round" d="M 14829,634 L 14829,20724"/>
 <path fill="none" stroke="rgb(221,221,221)" stroke-linejoin="round" d="M 15355,634 L 15355,20724"/>
 <path fill="none" stroke="rgb(221,221,221)" stroke-linejoin="round" d="M 15881,634 L 15881,20724"/>
 <path fill="none" stroke="rgb(221,221,221)" stroke-linejoin="round" d="M 16934,634 L 16934,20724"/>
 <path fill="none" stroke="rgb(221,221,221)" stroke-linejoin="round" d="M 17460,634 L 17460,20724"/>
 <path fill="none" stroke="rgb(221,221,221)" stroke-linejoin="round" d="M 17986,634 L 17986,20724"/>
 <path fill="none" stroke="rgb(221,221,221)" stroke-linejoin="round" d="M 19039,634 L 19039,20724"/>
 <path fill="none" stroke="rgb(221,221,221)" stroke-linejoin="round" d="M 19565,634 L 19565,20724"/>
 <path fill="none" stroke="rgb(221,221,221)" stroke-linejoin="round" d="M 20091,634 L 20091,20724"/>
 <path fill="none" stroke="rgb(221,221,221)" stroke-linejoin="round" d="M 21144,634 L 21144,20724"/>
 <path fill="none" stroke="rgb(221,221,221)" stroke-linejoin="round" d="M 21670,634 L 21670,20724"/>
 <path fill="none" stroke="rgb(221,221,221)" stroke-linejoin="round" d="M 22196,634 L 22196,20724"/>
 <path fill="none" stroke="rgb(221,221,221)" stroke-linejoin="round" d="M 23249,634 L 23249,20724"/>
 <path fill="none" stroke="rgb(221,221,221)" stroke-linejoin="round" d="M 23774,634 L 23774,20724"/>
 <path fill="none" stroke="rgb(221,221,221)" stroke-linejoin="round" d="M 24300,634 L 24300,20724"/>
 <path fill="none" stroke="rgb(221,221,221)" stroke-linejoin="round" d="M 25353,634 L 25353,20724"/>
 <path fill="none" stroke="rgb(221,221,221)" stroke-linejoin="round" d="M 25879,634 L 25879,20724"/>
 <path fill="none" stroke="rgb(221,221,221)" stroke-linejoin="round" d="M 26405,634 L 26405,20724"/>
 <path fill="none" stroke="rgb(221,221,221)" stroke-linejoin="round" d="M 27458,634 L 27458,20724"/>
 <path fill="none" stroke="rgb(221,221,221)" stroke-linejoin="round" d="M 27984,634 L 27984,20724"/>
 <path fill="none" stroke="rgb(221,221,221)" stroke-linejoin="round" d="M 28510,634 L 28510,20724"/>
 <path fill="none" stroke="rgb(221,221,221)" stroke-linejoin="round" d="M 29563,634 L 29563,20724"/>
 <path fill="none" stroke="rgb(221,221,221)" stroke-linejoin="round" d="M 30089,634 L 30089,20724"/>
 <path fill="none" stroke="rgb(221,221,221)" stroke-linejoin="round" d="M 30615,634 L 30615,20724"/>
 <path fill="none" stroke="rgb(221,221,221)" stroke-linejoin="round" d="M 31668,634 L 31668,20724"/>
 <path fill="none" stroke="rgb(221,221,221)" stroke-linejoin="round" d="M 32194,634 L 32194,20724"/>
 <path fill="none" stroke="rgb(221,221,221)" stroke-linejoin="round" d="M 32720,634 L 32720,20724"/>
 <path fill="none" stroke="rgb(221,221,221)" stroke-linejoin="round" d="M 33773,634 L 33773,20724"/>
 <path fill="none" stroke="rgb(221,221,221)" stroke-linejoin="round" d="M 34299,634 L 34299,20724"/>
 <path fill="none" stroke="rgb(221,221,221)" stroke-linejoin="round" d="M 34825,634 L 34825,20724"/>
 <path fill="none" stroke="rgb(221,221,221)" stroke-linejoin="round" d="M 35878,634 L 35878,20724"/>
 <path fill="none" stroke="rgb(221,221,221)" stroke-linejoin="round" d="M 36404,634 L 36404,20724"/>
 <path fill="none" stroke="rgb(221,221,221)" stroke-linejoin="round" d="M 36930,634 L 36930,20724"/>
 <path fill="none" stroke="rgb(221,221,221)" stroke-linejoin="round" d="M 37983,634 L 37983,20724"/>
 <path fill="none" stroke="rgb(221,221,221)" stroke-linejoin="round" d="M 38509,634 L 38509,20724"/>
 <path fill="none" stroke="rgb(221,221,221)" stroke-linejoin="round" d="M 39035,634 L 39035,20724"/>
 <path fill="none" stroke="rgb(221,221,221)" stroke-linejoin="round" d="M 40088,634 L 40088,20724"/>
 <path fill="none" stroke="rgb(221,221,221)" stroke-linejoin="round" d="M 40614,634 L 40614,20724"/>
 <path fill="none" stroke="rgb(221,221,221)" stroke-linejoin="round" d="M 41140,634 L 41140,20724"/>
 <path fill="none" stroke="rgb(221,221,221)" stroke-linejoin="round" d="M 42193,634 L 42193,20724"/>
 <path fill="none" stroke="rgb(221,221,221)" stroke-linejoin="round" d="M 42719,634 L 42719,20724"/>
 <path fill="none" stroke="rgb(221,221,221)" stroke-linejoin="round" d="M 43245,634 L 43245,20724"/>
 <path fill="none" stroke="rgb(221,221,221)" stroke-linejoin="round" d="M 44298,634 L 44298,20724"/>
 <path fill="none" stroke="rgb(221,221,221)" stroke-linejoin="round" d="M 44824,634 L 44824,20724"/>
 <path fill="none" stroke="rgb(221,221,221)" stroke-linejoin="round" d="M 45350,634 L 45350,20724"/>
 <path fill="none" stroke="rgb(179,179,179)" stroke-linejoin="round" d="M 45876,20724 L 1672,20724"/>
 <path fill="none" stroke="rgb(179,179,179)" stroke-linejoin="round" d="M 45876,18714 L 1672,18714"/>
 <path fill="none" stroke="rgb(179,179,179)" stroke-linejoin="round" d="M 45876,16705 L 1672,16705"/>
 <path fill="none" stroke="rgb(179,179,179)" stroke-linejoin="round" d="M 45876,14696 L 1672,14696"/>
 <path fill="none" stroke="rgb(179,179,179)" stroke-linejoin="round" d="M 45876,12687 L 1672,12687"/>
 <path fill="none" stroke="rgb(179,179,179)" stroke-linejoin="round" d="M 45876,10679 L 1672,10679"/>
 <path fill="none" stroke="rgb(179,179,179)" stroke-linejoin="round" d="M 45876,8670 L 1672,8670"/>
 <path fill="none" stroke="rgb(179,179,179)" stroke-linejoin="round" d="M 45876,6661 L 1672,6661"/>
 <path fill="none" stroke="rgb(179,179,179)" stroke-linejoin="round" d="M 45876,4652 L 1672,4652"/>
 <path fill="none" stroke="rgb(179,179,179)" stroke-linejoin="round" d="M 45876,2643 L 1672,2643"/>
 <path fill="none" stroke="rgb(179,179,179)" stroke-linejoin="round" d="M 45876,634 L 1672,634"/>
 <path fill="none" stroke="rgb(221,221,221)" stroke-linejoin="round" d="M 45876,20322 L 1672,20322"/>
 <path fill="none" stroke="rgb(221,221,221)" stroke-linejoin="round" d="M 45876,19920 L 1672,19920"/>
 <path fill="none" stroke="rgb(221,221,221)" stroke-linejoin="round" d="M 45876,19518 L 1672,19518"/>
 <path fill="none" stroke="rgb(221,221,221)" stroke-linejoin="round" d="M 45876,19116 L 1672,19116"/>
 <path fill="none" stroke="rgb(221,221,221)" stroke-linejoin="round" d="M 45876,18313 L 1672,18313"/>
 <path fill="none" stroke="rgb(221,221,221)" stroke-linejoin="round" d="M 45876,17911 L 1672,17911"/>
 <path fill="none" stroke="rgb(221,221,221)" stroke-linejoin="round" d="M 45876,17509 L 1672,17509"/>
 <path fill="none" stroke="rgb(221,221,221)" stroke-linejoin="round" d="M 45876,17107 L 1672,17107"/>
 <path fill="none" stroke="rgb(221,221,221)" stroke-linejoin="round" d="M 45876,16303 L 1672,16303"/>
 <path fill="none" stroke="rgb(221,221,221)" stroke-linejoin="round" d="M 45876,15902 L 1672,15902"/>
 <path fill="none" stroke="rgb(221,221,221)" stroke-linejoin="round" d="M 45876,15500 L 1672,15500"/>
 <path fill="none" stroke="rgb(221,221,221)" stroke-linejoin="round" d="M 45876,15098 L 1672,15098"/>
 <path fill="none" stroke="rgb(221,221,221)" stroke-linejoin="round" d="M 45876,14294 L 1672,14294"/>
 <path fill="none" stroke="rgb(221,221,221)" stroke-linejoin="round" d="M 45876,13893 L 1672,13893"/>
 <path fill="none" stroke="rgb(221,221,221)" stroke-linejoin="round" d="M 45876,13491 L 1672,13491"/>
 <path fill="none" stroke="rgb(221,221,221)" stroke-linejoin="round" d="M 45876,13089 L 1672,13089"/>
 <path fill="none" stroke="rgb(221,221,221)" stroke-linejoin="round" d="M 45876,12285 L 1672,12285"/>
 <path fill="none" stroke="rgb(221,221,221)" stroke-linejoin="round" d="M 45876,11883 L 1672,11883"/>
 <path fill="none" stroke="rgb(221,221,221)" stroke-linejoin="round" d="M 45876,11482 L 1672,11482"/>
 <path fill="none" stroke="rgb(221,221,221)" stroke-linejoin="round" d="M 45876,11080 L 1672,11080"/>
 <path fill="none" stroke="rgb(221,221,221)" stroke-linejoin="round" d="M 45876,10277 L 1672,10277"/>
 <path fill="none" stroke="rgb(221,221,221)" stroke-linejoin="round" d="M 45876,9875 L 1672,9875"/>
 <path fill="none" stroke="rgb(221,221,221)" stroke-linejoin="round" d="M 45876,9474 L 1672,9474"/>
 <path fill="none" stroke="rgb(221,221,221)" stroke-linejoin="round" d="M 45876,9072 L 1672,9072"/>
 <path fill="none" stroke="rgb(221,221,221)" stroke-linejoin="round" d="M 45876,8268 L 1672,8268"/>
 <path fill="none" stroke="rgb(221,221,221)" stroke-linejoin="round" d="M 45876,7866 L 1672,7866"/>
 <path fill="none" stroke="rgb(221,221,221)" stroke-linejoin="round" d="M 45876,7464 L 1672,7464"/>
 <path fill="none" stroke="rgb(221,221,221)" stroke-linejoin="round" d="M 45876,7063 L 1672,7063"/>
 <path fill="none" stroke="rgb(221,221,221)" stroke-linejoin="round" d="M 45876,6259 L 1672,6259"/>
 <path fill="none" stroke="rgb(221,221,221)" stroke-linejoin="round" d="M 45876,5857 L 1672,5857"/>
 <path fill="none" stroke="rgb(221,221,221)" stroke-linejoin="round" d="M 45876,5455 L 1672,5455"/>
 <path fill="none" stroke="rgb(221,221,221)" stroke-linejoin="round" d="M 45876,5054 L 1672,5054"/>
 <path fill="none" stroke="rgb(221,221,221)" stroke-linejoin="round" d="M 45876,4250 L 1672,4250"/>
 <path fill="none" stroke="rgb(221,221,221)" stroke-linejoin="round" d="M 45876,3848 L 1672,3848"/>
 <path fill="none" stroke="rgb(221,221,221)" stroke-linejoin="round" d="M 45876,3446 L 1672,3446"/>
 <path fill="none" stroke="rgb(221,221,221)" stroke-linejoin="round" d="M 45876,3044 L 1672,3044"/>
 <path fill="none" stroke="rgb(221,221,221)" stroke-linejoin="round" d="M 45876,2241 L 1672,2241"/>
 <path fill="none" stroke="rgb(221,221,221)" stroke-linejoin="round" d="M 45876,1839 L 1672,1839"/>
 <path fill="none" stroke="rgb(221,221,221)" stroke-linejoin="round" d="M 45876,1437 L 1672,1437"/>
 <path fill="none" stroke="rgb(221,221,221)" stroke-linejoin="round" d="M 45876,1035 L 1672,1035"/>
 <path fill="none" stroke="rgb(179,179,179)" stroke-linejoin="round" d="M 1672,20874 L 1672,20724"/>
 <path fill="none" stroke="rgb(179,179,179)" stroke-linejoin="round" d="M 1672,20874 L 1672,20724"/>
 <path fill="none" stroke="rgb(179,179,179)" stroke-linejoin="round" d="M 3777,20874 L 3777,20724"/>
 <path fill="none" stroke="rgb(179,179,179)" stroke-linejoin="round" d="M 3777,20874 L 3777,20724"/>
 <path fill="none" stroke="rgb(179,179,179)" stroke-linejoin="round" d="M 5882,20874 L 5882,20724"/>
 <path fill="none" stroke="rgb(179,179,179)" stroke-linejoin="round" d="M 5882,20874 L 5882,20724"/>
 <path fill="none" stroke="rgb(179,179,179)" stroke-linejoin="round" d="M 7987,20874 L 7987,20724"/>
 <path fill="none" stroke="rgb(179,179,179)" stroke-linejoin="round" d="M 7987,20874 L 7987,20724"/>
 <path fill="none" stroke="rgb(179,179,179)" stroke-linejoin="round" d="M 10092,20874 L 10092,20724"/>
 <path fill="none" stroke="rgb(179,179,179)" stroke-linejoin="round" d="M 10092,20874 L 10092,20724"/>
 <path fill="none" stroke="rgb(179,179,179)" stroke-linejoin="round" d="M 12197,20874 L 12197,20724"/>
 <path fill="none" stroke="rgb(179,179,179)" stroke-linejoin="round" d="M 12197,20874 L 12197,20724"/>
 <path fill="none" stroke="rgb(179,179,179)" stroke-linejoin="round" d="M 14302,20874 L 14302,20724"/>
 <path fill="none" stroke="rgb(179,179,179)" stroke-linejoin="round" d="M 14302,20874 L 14302,20724"/>
 <path fill="none" stroke="rgb(179,179,179)" stroke-linejoin="round" d="M 16407,20874 L 16407,20724"/>
 <path fill="none" stroke="rgb(179,179,179)" stroke-linejoin="round" d="M 16407,20874 L 16407,20724"/>
 <path fill="none" stroke="rgb(179,179,179)" stroke-linejoin="round" d="M 18512,20874 L 18512,20724"/>
 <path fill="none" stroke="rgb(179,179,179)" stroke-linejoin="round" d="M 18512,20874 L 18512,20724"/>
 <path fill="none" stroke="rgb(179,179,179)" stroke-linejoin="round" d="M 20617,20874 L 20617,20724"/>
 <path fill="none" stroke="rgb(179,179,179)" stroke-linejoin="round" d="M 20617,20874 L 20617,20724"/>
 <path fill="none" stroke="rgb(179,179,179)" stroke-linejoin="round" d="M 22722,20874 L 22722,20724"/>
 <path fill="none" stroke="rgb(179,179,179)" stroke-linejoin="round" d="M 22722,20874 L 22722,20724"/>
 <path fill="none" stroke="rgb(179,179,179)" stroke-linejoin="round" d="M 24826,20874 L 24826,20724"/>
 <path fill="none" stroke="rgb(179,179,179)" stroke-linejoin="round" d="M 24826,20874 L 24826,20724"/>
 <path fill="none" stroke="rgb(179,179,179)" stroke-linejoin="round" d="M 26931,20874 L 26931,20724"/>
 <path fill="none" stroke="rgb(179,179,179)" stroke-linejoin="round" d="M 26931,20874 L 26931,20724"/>
 <path fill="none" stroke="rgb(179,179,179)" stroke-linejoin="round" d="M 29036,20874 L 29036,20724"/>
 <path fill="none" stroke="rgb(179,179,179)" stroke-linejoin="round" d="M 29036,20874 L 29036,20724"/>
 <path fill="none" stroke="rgb(179,179,179)" stroke-linejoin="round" d="M 31141,20874 L 31141,20724"/>
 <path fill="none" stroke="rgb(179,179,179)" stroke-linejoin="round" d="M 31141,20874 L 31141,20724"/>
 <path fill="none" stroke="rgb(179,179,179)" stroke-linejoin="round" d="M 33246,20874 L 33246,20724"/>
 <path fill="none" stroke="rgb(179,179,179)" stroke-linejoin="round" d="M 33246,20874 L 33246,20724"/>
 <path fill="none" stroke="rgb(179,179,179)" stroke-linejoin="round" d="M 35351,20874 L 35351,20724"/>
 <path fill="none" stroke="rgb(179,179,179)" stroke-linejoin="round" d="M 35351,20874 L 35351,20724"/>
 <path fill="none" stroke="rgb(179,179,179)" stroke-linejoin="round" d="M 37456,20874 L 37456,20724"/>
 <path fill="none" stroke="rgb(179,179,179)" stroke-linejoin="round" d="M 37456,20874 L 37456,20724"/>
 <path fill="none" stroke="rgb(179,179,179)" stroke-linejoin="round" d="M 39561,20874 L 39561,20724"/>
 <path fill="none" stroke="rgb(179,179,179)" stroke-linejoin="round" d="M 39561,20874 L 39561,20724"/>
 <path fill="none" stroke="rgb(179,179,179)" stroke-linejoin="round" d="M 41666,20874 L 41666,20724"/>
 <path fill="none" stroke="rgb(179,179,179)" stroke-linejoin="round" d="M 41666,20874 L 41666,20724"/>
 <path fill="none" stroke="rgb(179,179,179)" stroke-linejoin="round" d="M 43771,20874 L 43771,20724"/>
 <path fill="none" stroke="rgb(179,179,179)" stroke-linejoin="round" d="M 43771,20874 L 43771,20724"/>
 <path fill="none" stroke="rgb(179,179,179)" stroke-linejoin="round" d="M 45876,20874 L 45876,20724"/>
 <path fill="none" stroke="rgb(179,179,179)" stroke-linejoin="round" d="M 45876,20874 L 45876,20724"/>
 <path fill="none" stroke="rgb(179,179,179)" stroke-linejoin="round" d="M 1672,20724 L 45876,20724"/>
 <path fill="none" stroke="rgb(179,179,179)" stroke-linejoin="round" d="M 1522,20724 L 1672,20724"/>
 <path fill="none" stroke="rgb(179,179,179)" stroke-linejoin="round" d="M 1522,20724 L 1672,20724"/>
 <path fill="none" stroke="rgb(179,179,179)" stroke-linejoin="round" d="M 1522,18714 L 1672,18714"/>
 <path fill="none" stroke="rgb(179,179,179)" stroke-linejoin="round" d="M 1522,18714 L 1672,18714"/>
 <path fill="none" stroke="rgb(179,179,179)" stroke-linejoin="round" d="M 1522,16705 L 1672,16705"/>
 <path fill="none" stroke="rgb(179,179,179)" stroke-linejoin="round" d="M 1522,16705 L 1672,16705"/>
 <path fill="none" stroke="rgb(179,179,179)" stroke-linejoin="round" d="M 1522,14696 L 1672,14696"/>
 <path fill="none" stroke="rgb(179,179,179)" stroke-linejoin="round" d="M 1522,14696 L 1672,14696"/>
 <path fill="none" stroke="rgb(179,179,179)" stroke-linejoin="round" d="M 1522,12687 L 1672,12687"/>
 <path fill="none" stroke="rgb(179,179,179)" stroke-linejoin="round" d="M 1522,12687 L 1672,12687"/>
 <path fill="none" stroke="rgb(179,179,179)" stroke-linejoin="round" d="M 1522,10679 L 1672,10679"/>
 <path fill="none" stroke="rgb(179,179,179)" stroke-linejoin="round" d="M 1522,10679 L 1672,10679"/>
 <path fill="none" stroke="rgb(179,179,179)" stroke-linejoin="round" d="M 1522,8670 L 1672,8670"/>
 <path fill="none" stroke="rgb(179,179,179)" stroke-linejoin="round" d="M 1522,8670 L 1672,8670"/>
 <path fill="none" stroke="rgb(179,179,179)" stroke-linejoin="round" d="M 1522,6661 L 1672,6661"/>
 <path fill="none" stroke="rgb(179,179,179)" stroke-linejoin="round" d="M 1522,6661 L 1672,6661"/>
 <path fill="none" stroke="rgb(179,179,179)" stroke-linejoin="round" d="M 1522,4652 L 1672,4652"/>
 <path fill="none" stroke="rgb(179,179,179)" stroke-linejoin="round" d="M 1522,4652 L 1672,4652"/>
 <path fill="none" stroke="rgb(179,179,179)" stroke-linejoin="round" d="M 1522,2643 L 1672,2643"/>
 <path fill="none" stroke="rgb(179,179,179)" stroke-linejoin="round" d="M 1522,2643 L 1672,2643"/>
 <path fill="none" stroke="rgb(179,179,179)" stroke-linejoin="round" d="M 1522,634 L 1672,634"/>
 <path fill="none" stroke="rgb(179,179,179)" stroke-linejoin="round" d="M 1522,634 L 1672,634"/>
 <path fill="none" stroke="rgb(179,179,179)" stroke-linejoin="round" d="M 1672,20724 L 1672,634"/>
 <path fill="none" stroke="rgb(0,69,134)" stroke-linejoin="round" d="M 1672,634 L 1694,1787 1715,2172 1736,2316 1757,2364 1778,2700 1799,2844 1820,2893 1841,3037 1862,3181 1883,3517 1904,3902 1925,4142 1946,4238 1967,4383 1988,4671 2009,4767 2051,4911 2072,5007 2093,5055 2115,5104 2157,5200 2178,5440 2199,5536 2220,5824 2241,6017 2262,6113 2283,6257 2304,6449 2325,6497 2346,6545 2388,6738 2409,6786 2430,6978 2451,7026 2472,7074 2493,7218 2514,7266 2536,7363 2557,7699 2578,7747 2599,7795 2620,7987 2641,8132 2662,8372 2683,8468 2704,8612 2725,8660 2746,8756 2767,8853 2788,8901 2809,9045 2830,9141 2851,9189 2872,9285 2893,9381 2957,9429 2978,9477 2999,9525 3020,9574 3062,9670 3104,9718 3125,9814 3167,9862 3188,9910 3209,9958 3230,10006 3251,10054 3272,10150 3314,10294 3335,10391 3356,10439 3378,10487 3399,10535 3420,10631 3462,10775 3483,10918 3504,10966 3525,11014 3546,11063 3567,11111 3588,11159 3609,11207 3651,11255 3693,11351 3756,11591 3820,11639 3841,11687 3862,11880 3904,11928 3925,11976 3946,12072 3967,12120 3988,12168 4009,12216 4030,12264 4051,12312 4072,12456 4135,12504 4156,12553 4177,12649 4220,12697 4241,12745 4346,12793 4367,12841 4388,12889 4409,12937 4430,12985 4451,13033 4472,13081 4493,13129 4598,13177 4619,13273 4641,13322 4683,13370 4704,13418 4725,13466 4746,13514 4767,13562 4893,13610 4914,13658 4935,13706 4956,13754 4977,13802 4998,13850 5083,13994 5146,14043 5188,14091 5272,14283 5335,14331 5398,14427 5419,14475 5440,14571 5461,14619 5525,14667 5567,14763 5588,14812 5630,14860 5651,14908 5672,14956 5714,15052 5735,15100 5756,15148 5777,15196 5798,15292 5819,15340 5861,15436 5904,15725 5988,15773 6051,15821 6093,15965 6114,16013 6135,16061 6177,16109 6240,16205 6261,16253 6303,16302 6325,16350 6409,16398 6514,16446 6556,16494 6640,16542 6809,16590 6872,16638 6893,16686 6914,16734 6935,16782 6956,16878 6998,16926 7019,16974 7082,17023 7124,17119 7145,17167 7209,17215 7230,17311 7356,17359 7377,17455 7545,17551 7609,17599 7630,17695 7651,17743 7798,17792 7840,17888 7903,17984 8030,18080 8072,18128 8135,18176 8261,18224 8324,18272 8514,18320 8535,18368 8556,18416 8640,18464 8808,18513 9040,18561 9145,18657 9272,18705 9440,18753 9798,18801 9840,18849 9924,18897 9966,18945 10135,18993 10177,19041 10429,19137 10471,19185 10724,19233 10829,19282 11082,19330 11208,19378 11482,19426 11671,19474 11924,19522 12071,19570 12197,19666 12282,19714 12345,19762 13061,19810 13545,19858 14155,19906 14450,19954 14787,20003 15081,20051 15271,20099 15965,20147 16113,20195 16576,20243 16723,20291 16997,20339 17944,20387 18534,20435 24427,20483 26995,20531 31310,20579 43182,20627 44656,20675"/>
 <text class="TextShape"><tspan class="TextParagraph" font-family="Liberation Sans, sans-serif" font-size="353px" font-weight="400"><tspan class="TextPosition" x="1394" y="21292"><tspan fill="rgb(0,0,0)" stroke="none">200</tspan></tspan></tspan></text>
 <text class="TextShape"><tspan class="TextParagraph" font-family="Liberation Sans, sans-serif" font-size="353px" font-weight="400"><tspan class="TextPosition" x="3499" y="21292"><tspan fill="rgb(0,0,0)" stroke="none">400</tspan></tspan></tspan></text>
 <text class="TextShape"><tspan class="TextParagraph" font-family="Liberation Sans, sans-serif" font-size="353px" font-weight="400"><tspan class="TextPosition" x="5604" y="21292"><tspan fill="rgb(0,0,0)" stroke="none">600</tspan></tspan></tspan></text>
 <text class="TextShape"><tspan class="TextParagraph" font-family="Liberation Sans, sans-serif" font-size="353px" font-weight="400"><tspan class="TextPosition" x="7709" y="21292"><tspan fill="rgb(0,0,0)" stroke="none">800</tspan></tspan></tspan></text>
 <text class="TextShape"><tspan class="TextParagraph" font-family="Liberation Sans, sans-serif" font-size="353px" font-weight="400"><tspan class="TextPosition" x="9721" y="21292"><tspan fill="rgb(0,0,0)" stroke="none">1000</tspan></tspan></tspan></text>
 <text class="TextShape"><tspan class="TextParagraph" font-family="Liberation Sans, sans-serif" font-size="353px" font-weight="400"><tspan class="TextPosition" x="11826" y="21292"><tspan fill="rgb(0,0,0)" stroke="none">1200</tspan></tspan></tspan></text>
 <text class="TextShape"><tspan class="TextParagraph" font-family="Liberation Sans, sans-serif" font-size="353px" font-weight="400"><tspan class="TextPosition" x="13931" y="21292"><tspan fill="rgb(0,0,0)" stroke="none">1400</tspan></tspan></tspan></text>
 <text class="TextShape"><tspan class="TextParagraph" font-family="Liberation Sans, sans-serif" font-size="353px" font-weight="400"><tspan class="TextPosition" x="16036" y="21292"><tspan fill="rgb(0,0,0)" stroke="none">1600</tspan></tspan></tspan></text>
 <text class="TextShape"><tspan class="TextParagraph" font-family="Liberation Sans, sans-serif" font-size="353px" font-weight="400"><tspan class="TextPosition" x="18141" y="21292"><tspan fill="rgb(0,0,0)" stroke="none">1800</tspan></tspan></tspan></text>
 <text class="TextShape"><tspan class="TextParagraph" font-family="Liberation Sans, sans-serif" font-size="353px" font-weight="400"><tspan class="TextPosition" x="20246" y="21292"><tspan fill="rgb(0,0,0)" stroke="none">2000</tspan></tspan></tspan></text>
 <text class="TextShape"><tspan class="TextParagraph" font-family="Liberation Sans, sans-serif" font-size="353px" font-weight="400"><tspan class="TextPosition" x="22351" y="21292"><tspan fill="rgb(0,0,0)" stroke="none">2200</tspan></tspan></tspan></text>
 <text class="TextShape"><tspan class="TextParagraph" font-family="Liberation Sans, sans-serif" font-size="353px" font-weight="400"><tspan class="TextPosition" x="24456" y="21292"><tspan fill="rgb(0,0,0)" stroke="none">2400</tspan></tspan></tspan></text>
 <text class="TextShape"><tspan class="TextParagraph" font-family="Liberation Sans, sans-serif" font-size="353px" font-weight="400"><tspan class="TextPosition" x="26561" y="21292"><tspan fill="rgb(0,0,0)" stroke="none">2600</tspan></tspan></tspan></text>
 <text class="TextShape"><tspan class="TextParagraph" font-family="Liberation Sans, sans-serif" font-size="353px" font-weight="400"><tspan class="TextPosition" x="28666" y="21292"><tspan fill="rgb(0,0,0)" stroke="none">2800</tspan></tspan></tspan></text>
 <text class="TextShape"><tspan class="TextParagraph" font-family="Liberation Sans, sans-serif" font-size="353px" font-weight="400"><tspan class="TextPosition" x="30771" y="21292"><tspan fill="rgb(0,0,0)" stroke="none">3000</tspan></tspan></tspan></text>
 <text class="TextShape"><tspan class="TextParagraph" font-family="Liberation Sans, sans-serif" font-size="353px" font-weight="400"><tspan class="TextPosition" x="32876" y="21292"><tspan fill="rgb(0,0,0)" stroke="none">3200</tspan></tspan></tspan></text>
 <text class="TextShape"><tspan class="TextParagraph" font-family="Liberation Sans, sans-serif" font-size="353px" font-weight="400"><tspan class="TextPosition" x="34981" y="21292"><tspan fill="rgb(0,0,0)" stroke="none">3400</tspan></tspan></tspan></text>
 <text class="TextShape"><tspan class="TextParagraph" font-family="Liberation Sans, sans-serif" font-size="353px" font-weight="400"><tspan class="TextPosition" x="37086" y="21292"><tspan fill="rgb(0,0,0)" stroke="none">3600</tspan></tspan></tspan></text>
 <text class="TextShape"><tspan class="TextParagraph" font-family="Liberation Sans, sans-serif" font-size="353px" font-weight="400"><tspan class="TextPosition" x="39191" y="21292"><tspan fill="rgb(0,0,0)" stroke="none">3800</tspan></tspan></tspan></text>
 <text class="TextShape"><tspan class="TextParagraph" font-family="Liberation Sans, sans-serif" font-size="353px" font-weight="400"><tspan class="TextPosition" x="41296" y="21292"><tspan fill="rgb(0,0,0)" stroke="none">4000</tspan></tspan></tspan></text>
 <text class="TextShape"><tspan class="TextParagraph" font-family="Liberation Sans, sans-serif" font-size="353px" font-weight="400"><tspan class="TextPosition" x="43401" y="21292"><tspan fill="rgb(0,0,0)" stroke="none">4200</tspan></tspan></tspan></text>
 <text class="TextShape"><tspan class="TextParagraph" font-family="Liberation Sans, sans-serif" font-size="353px" font-weight="400"><tspan class="TextPosition" x="45506" y="21292"><tspan fill="rgb(0,0,0)" stroke="none">4400</tspan></tspan></tspan></text>
 <text class="TextShape"><tspan class="TextParagraph" font-family="Liberation Sans, sans-serif" font-size="353px" font-weight="400"><tspan class="TextPosition" x="1237" y="20845"><tspan fill="rgb(0,0,0)" stroke="none">0</tspan></tspan></tspan></text>
 <text class="TextShape"><tspan class="TextParagraph" font-family="Liberation Sans, sans-serif" font-size="353px" font-weight="400"><tspan class="TextPosition" x="946" y="18835"><tspan fill="rgb(0,0,0)" stroke="none">0,1</tspan></tspan></tspan></text>
 <text class="TextShape"><tspan class="TextParagraph" font-family="Liberation Sans, sans-serif" font-size="353px" font-weight="400"><tspan class="TextPosition" x="946" y="16826"><tspan fill="rgb(0,0,0)" stroke="none">0,2</tspan></tspan></tspan></text>
 <text class="TextShape"><tspan class="TextParagraph" font-family="Liberation Sans, sans-serif" font-size="353px" font-weight="400"><tspan class="TextPosition" x="946" y="14817"><tspan fill="rgb(0,0,0)" stroke="none">0,3</tspan></tspan></tspan></text>
 <text class="TextShape"><tspan class="TextParagraph" font-family="Liberation Sans, sans-serif" font-size="353px" font-weight="400"><tspan class="TextPosition" x="946" y="12808"><tspan fill="rgb(0,0,0)" stroke="none">0,4</tspan></tspan></tspan></text>
 <text class="TextShape"><tspan class="TextParagraph" font-family="Liberation Sans, sans-serif" font-size="353px" font-weight="400"><tspan class="TextPosition" x="946" y="10799"><tspan fill="rgb(0,0,0)" stroke="none">0,5</tspan></tspan></tspan></text>
 <text class="TextShape"><tspan class="TextParagraph" font-family="Liberation Sans, sans-serif" font-size="353px" font-weight="400"><tspan class="TextPosition" x="946" y="8790"><tspan fill="rgb(0,0,0)" stroke="none">0,6</tspan></tspan></tspan></text>
 <text class="TextShape"><tspan class="TextParagraph" font-family="Liberation Sans, sans-serif" font-size="353px" font-weight="400"><tspan class="TextPosition" x="946" y="6781"><tspan fill="rgb(0,0,0)" stroke="none">0,7</tspan></tspan></tspan></text>
 <text class="TextShape"><tspan class="TextParagraph" font-family="Liberation Sans, sans-serif" font-size="353px" font-weight="400"><tspan class="TextPosition" x="946" y="4772"><tspan fill="rgb(0,0,0)" stroke="none">0,8</tspan></tspan></tspan></text>
 <text class="TextShape"><tspan class="TextParagraph" font-family="Liberation Sans, sans-serif" font-size="353px" font-weight="400"><tspan class="TextPosition" x="946" y="2763"><tspan fill="rgb(0,0,0)" stroke="none">0,9</tspan></tspan></tspan></text>
 <text class="TextShape"><tspan class="TextParagraph" font-family="Liberation Sans, sans-serif" font-size="353px" font-weight="400"><tspan class="TextPosition" x="1237" y="754"><tspan fill="rgb(0,0,0)" stroke="none">1</tspan></tspan></tspan></text>
</svg>