<?xml version="1.0" encoding="UTF-8"?>
<!DOCTYPE svg PUBLIC "-//W3C//DTD SVG 1.1//EN" "http://www.w3.org/Graphics/SVG/1.1/DTD/svg11.dtd">
<svg width="499mm" height="190mm" viewBox="0 0 49900 19000" version="1.1" xmlns="http://www.w3.org/2000/svg" xmlns:xlink="http://www.w3.org/1999/xlink" stroke-width="28.222" stroke-linejoin="round" xml:space="preserve">
 <path fill="rgb(255,255,255)" stroke="none" d="M 24932,18966 L 0,18966 0,0 49863,0 49863,18966 24932,18966 Z"/>
 <path fill="none" stroke="rgb(179,179,179)" stroke-linejoin="round" d="M 23578,17940 L 1804,17940 1804,578 45351,578 45351,17940 23578,17940 Z"/>
 <path fill="none" stroke="rgb(179,179,179)" stroke-linejoin="round" d="M 1804,577 L 1804,17939"/>
 <path fill="none" stroke="rgb(179,179,179)" stroke-linejoin="round" d="M 3697,577 L 3697,17939"/>
 <path fill="none" stroke="rgb(179,179,179)" stroke-linejoin="round" d="M 5590,577 L 5590,17939"/>
 <path fill="none" stroke="rgb(179,179,179)" stroke-linejoin="round" d="M 7484,577 L 7484,17939"/>
 <path fill="none" stroke="rgb(179,179,179)" stroke-linejoin="round" d="M 9377,577 L 9377,17939"/>
 <path fill="none" stroke="rgb(179,179,179)" stroke-linejoin="round" d="M 11270,577 L 11270,17939"/>
 <path fill="none" stroke="rgb(179,179,179)" stroke-linejoin="round" d="M 13164,577 L 13164,17939"/>
 <path fill="none" stroke="rgb(179,179,179)" stroke-linejoin="round" d="M 15057,577 L 15057,17939"/>
 <path fill="none" stroke="rgb(179,179,179)" stroke-linejoin="round" d="M 16951,577 L 16951,17939"/>
 <path fill="none" stroke="rgb(179,179,179)" stroke-linejoin="round" d="M 18844,577 L 18844,17939"/>
 <path fill="none" stroke="rgb(179,179,179)" stroke-linejoin="round" d="M 20737,577 L 20737,17939"/>
 <path fill="none" stroke="rgb(179,179,179)" stroke-linejoin="round" d="M 22631,577 L 22631,17939"/>
 <path fill="none" stroke="rgb(179,179,179)" stroke-linejoin="round" d="M 24524,577 L 24524,17939"/>
 <path fill="none" stroke="rgb(179,179,179)" stroke-linejoin="round" d="M 26417,577 L 26417,17939"/>
 <path fill="none" stroke="rgb(179,179,179)" stroke-linejoin="round" d="M 28310,577 L 28310,17939"/>
 <path fill="none" stroke="rgb(179,179,179)" stroke-linejoin="round" d="M 30203,577 L 30203,17939"/>
 <path fill="none" stroke="rgb(179,179,179)" stroke-linejoin="round" d="M 32097,577 L 32097,17939"/>
 <path fill="none" stroke="rgb(179,179,179)" stroke-linejoin="round" d="M 33990,577 L 33990,17939"/>
 <path fill="none" stroke="rgb(179,179,179)" stroke-linejoin="round" d="M 35884,577 L 35884,17939"/>
 <path fill="none" stroke="rgb(179,179,179)" stroke-linejoin="round" d="M 37777,577 L 37777,17939"/>
 <path fill="none" stroke="rgb(179,179,179)" stroke-linejoin="round" d="M 39670,577 L 39670,17939"/>
 <path fill="none" stroke="rgb(179,179,179)" stroke-linejoin="round" d="M 41564,577 L 41564,17939"/>
 <path fill="none" stroke="rgb(179,179,179)" stroke-linejoin="round" d="M 43457,577 L 43457,17939"/>
 <path fill="none" stroke="rgb(179,179,179)" stroke-linejoin="round" d="M 45351,577 L 45351,17939"/>
 <path fill="none" stroke="rgb(179,179,179)" stroke-linejoin="round" d="M 45351,17939 L 1804,17939"/>
 <path fill="none" stroke="rgb(179,179,179)" stroke-linejoin="round" d="M 45351,16492 L 1804,16492"/>
 <path fill="none" stroke="rgb(179,179,179)" stroke-linejoin="round" d="M 45351,15045 L 1804,15045"/>
 <path fill="none" stroke="rgb(179,179,179)" stroke-linejoin="round" d="M 45351,13598 L 1804,13598"/>
 <path fill="none" stroke="rgb(179,179,179)" stroke-linejoin="round" d="M 45351,12151 L 1804,12151"/>
 <path fill="none" stroke="rgb(179,179,179)" stroke-linejoin="round" d="M 45351,10704 L 1804,10704"/>
 <path fill="none" stroke="rgb(179,179,179)" stroke-linejoin="round" d="M 45351,9258 L 1804,9258"/>
 <path fill="none" stroke="rgb(179,179,179)" stroke-linejoin="round" d="M 45351,7811 L 1804,7811"/>
 <path fill="none" stroke="rgb(179,179,179)" stroke-linejoin="round" d="M 45351,6364 L 1804,6364"/>
 <path fill="none" stroke="rgb(179,179,179)" stroke-linejoin="round" d="M 45351,4917 L 1804,4917"/>
 <path fill="none" stroke="rgb(179,179,179)" stroke-linejoin="round" d="M 45351,3470 L 1804,3470"/>
 <path fill="none" stroke="rgb(179,179,179)" stroke-linejoin="round" d="M 45351,2023 L 1804,2023"/>
 <path fill="none" stroke="rgb(179,179,179)" stroke-linejoin="round" d="M 45351,577 L 1804,577"/>
 <path fill="none" stroke="rgb(221,221,221)" stroke-linejoin="round" d="M 45351,17215 L 1804,17215"/>
 <path fill="none" stroke="rgb(221,221,221)" stroke-linejoin="round" d="M 45351,15768 L 1804,15768"/>
 <path fill="none" stroke="rgb(221,221,221)" stroke-linejoin="round" d="M 45351,14321 L 1804,14321"/>
 <path fill="none" stroke="rgb(221,221,221)" stroke-linejoin="round" d="M 45351,12874 L 1804,12874"/>
 <path fill="none" stroke="rgb(221,221,221)" stroke-linejoin="round" d="M 45351,11427 L 1804,11427"/>
 <path fill="none" stroke="rgb(221,221,221)" stroke-linejoin="round" d="M 45351,9980 L 1804,9980"/>
 <path fill="none" stroke="rgb(221,221,221)" stroke-linejoin="round" d="M 45351,8535 L 1804,8535"/>
 <path fill="none" stroke="rgb(221,221,221)" stroke-linejoin="round" d="M 45351,7088 L 1804,7088"/>
 <path fill="none" stroke="rgb(221,221,221)" stroke-linejoin="round" d="M 45351,5641 L 1804,5641"/>
 <path fill="none" stroke="rgb(221,221,221)" stroke-linejoin="round" d="M 45351,4194 L 1804,4194"/>
 <path fill="none" stroke="rgb(221,221,221)" stroke-linejoin="round" d="M 45351,2747 L 1804,2747"/>
 <path fill="none" stroke="rgb(221,221,221)" stroke-linejoin="round" d="M 45351,1300 L 1804,1300"/>
 <path fill="none" stroke="rgb(179,179,179)" stroke-linejoin="round" d="M 1804,18089 L 1804,17939"/>
 <path fill="none" stroke="rgb(179,179,179)" stroke-linejoin="round" d="M 1804,18089 L 1804,17939"/>
 <path fill="none" stroke="rgb(179,179,179)" stroke-linejoin="round" d="M 3697,18089 L 3697,17939"/>
 <path fill="none" stroke="rgb(179,179,179)" stroke-linejoin="round" d="M 3697,18089 L 3697,17939"/>
 <path fill="none" stroke="rgb(179,179,179)" stroke-linejoin="round" d="M 5590,18089 L 5590,17939"/>
 <path fill="none" stroke="rgb(179,179,179)" stroke-linejoin="round" d="M 5590,18089 L 5590,17939"/>
 <path fill="none" stroke="rgb(179,179,179)" stroke-linejoin="round" d="M 7484,18089 L 7484,17939"/>
 <path fill="none" stroke="rgb(179,179,179)" stroke-linejoin="round" d="M 7484,18089 L 7484,17939"/>
 <path fill="none" stroke="rgb(179,179,179)" stroke-linejoin="round" d="M 9377,18089 L 9377,17939"/>
 <path fill="none" stroke="rgb(179,179,179)" stroke-linejoin="round" d="M 9377,18089 L 9377,17939"/>
 <path fill="none" stroke="rgb(179,179,179)" stroke-linejoin="round" d="M 11270,18089 L 11270,17939"/>
 <path fill="none" stroke="rgb(179,179,179)" stroke-linejoin="round" d="M 11270,18089 L 11270,17939"/>
 <path fill="none" stroke="rgb(179,179,179)" stroke-linejoin="round" d="M 13164,18089 L 13164,17939"/>
 <path fill="none" stroke="rgb(179,179,179)" stroke-linejoin="round" d="M 13164,18089 L 13164,17939"/>
 <path fill="none" stroke="rgb(179,179,179)" stroke-linejoin="round" d="M 15057,18089 L 15057,17939"/>
 <path fill="none" stroke="rgb(179,179,179)" stroke-linejoin="round" d="M 15057,18089 L 15057,17939"/>
 <path fill="none" stroke="rgb(179,179,179)" stroke-linejoin="round" d="M 16951,18089 L 16951,17939"/>
 <path fill="none" stroke="rgb(179,179,179)" stroke-linejoin="round" d="M 16951,18089 L 16951,17939"/>
 <path fill="none" stroke="rgb(179,179,179)" stroke-linejoin="round" d="M 18844,18089 L 18844,17939"/>
 <path fill="none" stroke="rgb(179,179,179)" stroke-linejoin="round" d="M 18844,18089 L 18844,17939"/>
 <path fill="none" stroke="rgb(179,179,179)" stroke-linejoin="round" d="M 20737,18089 L 20737,17939"/>
 <path fill="none" stroke="rgb(179,179,179)" stroke-linejoin="round" d="M 20737,18089 L 20737,17939"/>
 <path fill="none" stroke="rgb(179,179,179)" stroke-linejoin="round" d="M 22631,18089 L 22631,17939"/>
 <path fill="none" stroke="rgb(179,179,179)" stroke-linejoin="round" d="M 22631,18089 L 22631,17939"/>
 <path fill="none" stroke="rgb(179,179,179)" stroke-linejoin="round" d="M 24524,18089 L 24524,17939"/>
 <path fill="none" stroke="rgb(179,179,179)" stroke-linejoin="round" d="M 24524,18089 L 24524,17939"/>
 <path fill="none" stroke="rgb(179,179,179)" stroke-linejoin="round" d="M 26417,18089 L 26417,17939"/>
 <path fill="none" stroke="rgb(179,179,179)" stroke-linejoin="round" d="M 26417,18089 L 26417,17939"/>
 <path fill="none" stroke="rgb(179,179,179)" stroke-linejoin="round" d="M 28310,18089 L 28310,17939"/>
 <path fill="none" stroke="rgb(179,179,179)" stroke-linejoin="round" d="M 28310,18089 L 28310,17939"/>
 <path fill="none" stroke="rgb(179,179,179)" stroke-linejoin="round" d="M 30203,18089 L 30203,17939"/>
 <path fill="none" stroke="rgb(179,179,179)" stroke-linejoin="round" d="M 30203,18089 L 30203,17939"/>
 <path fill="none" stroke="rgb(179,179,179)" stroke-linejoin="round" d="M 32097,18089 L 32097,17939"/>
 <path fill="none" stroke="rgb(179,179,179)" stroke-linejoin="round" d="M 32097,18089 L 32097,17939"/>
 <path fill="none" stroke="rgb(179,179,179)" stroke-linejoin="round" d="M 33990,18089 L 33990,17939"/>
 <path fill="none" stroke="rgb(179,179,179)" stroke-linejoin="round" d="M 33990,18089 L 33990,17939"/>
 <path fill="none" stroke="rgb(179,179,179)" stroke-linejoin="round" d="M 35884,18089 L 35884,17939"/>
 <path fill="none" stroke="rgb(179,179,179)" stroke-linejoin="round" d="M 35884,18089 L 35884,17939"/>
 <path fill="none" stroke="rgb(179,179,179)" stroke-linejoin="round" d="M 37777,18089 L 37777,17939"/>
 <path fill="none" stroke="rgb(179,179,179)" stroke-linejoin="round" d="M 37777,18089 L 37777,17939"/>
 <path fill="none" stroke="rgb(179,179,179)" stroke-linejoin="round" d="M 39670,18089 L 39670,17939"/>
 <path fill="none" stroke="rgb(179,179,179)" stroke-linejoin="round" d="M 39670,18089 L 39670,17939"/>
 <path fill="none" stroke="rgb(179,179,179)" stroke-linejoin="round" d="M 41564,18089 L 41564,17939"/>
 <path fill="none" stroke="rgb(179,179,179)" stroke-linejoin="round" d="M 41564,18089 L 41564,17939"/>
 <path fill="none" stroke="rgb(179,179,179)" stroke-linejoin="round" d="M 43457,18089 L 43457,17939"/>
 <path fill="none" stroke="rgb(179,179,179)" stroke-linejoin="round" d="M 43457,18089 L 43457,17939"/>
 <path fill="none" stroke="rgb(179,179,179)" stroke-linejoin="round" d="M 45351,18089 L 45351,17939"/>
 <path fill="none" stroke="rgb(179,179,179)" stroke-linejoin="round" d="M 45351,18089 L 45351,17939"/>
 <path fill="none" stroke="rgb(179,179,179)" stroke-linejoin="round" d="M 1804,17939 L 45351,17939"/>
 <path fill="none" stroke="rgb(179,179,179)" stroke-linejoin="round" d="M 1654,17939 L 1804,17939"/>
 <path fill="none" stroke="rgb(179,179,179)" stroke-linejoin="round" d="M 1654,17939 L 1804,17939"/>
 <path fill="none" stroke="rgb(179,179,179)" stroke-linejoin="round" d="M 1654,16492 L 1804,16492"/>
 <path fill="none" stroke="rgb(179,179,179)" stroke-linejoin="round" d="M 1654,16492 L 1804,16492"/>
 <path fill="none" stroke="rgb(179,179,179)" stroke-linejoin="round" d="M 1654,15045 L 1804,15045"/>
 <path fill="none" stroke="rgb(179,179,179)" stroke-linejoin="round" d="M 1654,15045 L 1804,15045"/>
 <path fill="none" stroke="rgb(179,179,179)" stroke-linejoin="round" d="M 1654,13598 L 1804,13598"/>
 <path fill="none" stroke="rgb(179,179,179)" stroke-linejoin="round" d="M 1654,13598 L 1804,13598"/>
 <path fill="none" stroke="rgb(179,179,179)" stroke-linejoin="round" d="M 1654,12151 L 1804,12151"/>
 <path fill="none" stroke="rgb(179,179,179)" stroke-linejoin="round" d="M 1654,12151 L 1804,12151"/>
 <path fill="none" stroke="rgb(179,179,179)" stroke-linejoin="round" d="M 1654,10704 L 1804,10704"/>
 <path fill="none" stroke="rgb(179,179,179)" stroke-linejoin="round" d="M 1654,10704 L 1804,10704"/>
 <path fill="none" stroke="rgb(179,179,179)" stroke-linejoin="round" d="M 1654,9258 L 1804,9258"/>
 <path fill="none" stroke="rgb(179,179,179)" stroke-linejoin="round" d="M 1654,9258 L 1804,9258"/>
 <path fill="none" stroke="rgb(179,179,179)" stroke-linejoin="round" d="M 1654,7811 L 1804,7811"/>
 <path fill="none" stroke="rgb(179,179,179)" stroke-linejoin="round" d="M 1654,7811 L 1804,7811"/>
 <path fill="none" stroke="rgb(179,179,179)" stroke-linejoin="round" d="M 1654,6364 L 1804,6364"/>
 <path fill="none" stroke="rgb(179,179,179)" stroke-linejoin="round" d="M 1654,6364 L 1804,6364"/>
 <path fill="none" stroke="rgb(179,179,179)" stroke-linejoin="round" d="M 1654,4917 L 1804,4917"/>
 <path fill="none" stroke="rgb(179,179,179)" stroke-linejoin="round" d="M 1654,4917 L 1804,4917"/>
 <path fill="none" stroke="rgb(179,179,179)" stroke-linejoin="round" d="M 1654,3470 L 1804,3470"/>
 <path fill="none" stroke="rgb(179,179,179)" stroke-linejoin="round" d="M 1654,3470 L 1804,3470"/>
 <path fill="none" stroke="rgb(179,179,179)" stroke-linejoin="round" d="M 1654,2023 L 1804,2023"/>
 <path fill="none" stroke="rgb(179,179,179)" stroke-linejoin="round" d="M 1654,2023 L 1804,2023"/>
 <path fill="none" stroke="rgb(179,179,179)" stroke-linejoin="round" d="M 1654,577 L 1804,577"/>
 <path fill="none" stroke="rgb(179,179,179)" stroke-linejoin="round" d="M 1654,577 L 1804,577"/>
 <path fill="none" stroke="rgb(179,179,179)" stroke-linejoin="round" d="M 1804,17939 L 1804,577"/>
 <path fill="none" stroke="rgb(0,69,134)" stroke-width="51" stroke-linejoin="round" d="M 1804,12050 L 3697,8375 5590,10892 7484,10762 9377,9395 11270,6451 13164,9698 15057,11160 16951,14003 18844,12607 20737,13742 22631,14755 24524,13865 26417,13185 28310,8484 30203,3970 32097,7399 33990,4613 35646,577"/>
 <path fill="none" stroke="rgb(0,69,134)" stroke-width="51" stroke-linejoin="round" d="M 36122,577 L 37777,4599 39670,2602 41564,6306 43457,2306 45139,577"/>
 <path fill="none" stroke="rgb(255,66,14)" stroke-width="51" stroke-linejoin="round" d="M 1804,6531 L 3697,8766 5590,7811 7484,5387 9377,5626 11270,9244 13164,11312 15057,14365 16951,12592 18844,11688 20737,11478 22631,12361 24524,14104 26417,11898 28310,9330 30203,7420 32097,2204 33990,7478 35884,7797 37777,5424 39670,2993 41191,577"/>
 <path fill="none" stroke="rgb(255,66,14)" stroke-width="51" stroke-linejoin="round" d="M 41730,577 L 43457,6748 45351,10053"/>
 <path fill="none" stroke="rgb(255,211,32)" stroke-width="51" stroke-linejoin="round" d="M 1804,9510 L 3697,7963 5590,7326 7484,5026 9377,9901 11270,7956 13164,8310 15057,13525 16951,14459 18844,11992 20737,10226 22631,12093 24524,12021 26417,10176 28310,7073 30203,3622 32097,5098 33990,3174 35884,8339 37777,5192 39670,8108 41564,8527 43457,7015 45351,6046"/>
 <path fill="none" stroke="rgb(87,157,28)" stroke-width="51" stroke-linejoin="round" d="M 1804,8043 L 3697,5916 5590,5756 7484,1481 9377,1466 11270,8014 13164,2284 15057,13005 16951,11348 18844,13446 20737,10487 22631,14784 24524,13931 26417,11478 28310,9381 30203,9352 32097,1329 33990,2790 35884,6111 37777,7833 39670,6364 41564,4093 43457,2812 45351,6335"/>
 <path fill="none" stroke="rgb(126,0,33)" stroke-width="51" stroke-linejoin="round" d="M 1804,7710 L 3697,9843 5590,9727 7484,5973 9377,3405 11270,5105 13164,5728 15057,6248 16951,4910 18844,15826 20737,15689 22631,14300 24524,12708 26417,9792 28310,7594 30203,4650 31831,577"/>
 <path fill="none" stroke="rgb(126,0,33)" stroke-width="51" stroke-linejoin="round" d="M 32418,577 L 33990,3839 35884,4946 37777,4953 39670,3130 41564,2436 43457,8506 45351,7131"/>
 <path fill="none" stroke="rgb(131,202,255)" stroke-width="51" stroke-linejoin="round" d="M 1804,6191 L 3697,10878 5590,11746 7484,7572 9377,8730 11270,12925 13164,9424 15057,11572 16951,16007 18844,15291 20737,14719 22631,13952 24524,13627 26417,14075 28310,10906 30203,10176 32097,8412 33990,11384 35884,10747 37777,9698 39670,6560 41564,3962 43457,11833 45351,8694"/>
 <path fill="none" stroke="rgb(49,64,4)" stroke-width="51" stroke-linejoin="round" d="M 1804,13822 L 3697,13033 5590,9648 7484,5460 9377,5952 11270,10400 13164,12932 15057,14466 16951,13873 18844,13815 20737,14177 22631,14401 24524,14676 26417,10972 28310,11406 30203,9691 32097,9461 33990,9561 35884,8882 37777,11261 39670,7797 41564,8346 43457,9706 45351,9432"/>
 <text class="TextShape"><tspan class="TextParagraph" font-family="Liberation Sans, sans-serif" font-size="353px" font-weight="400"><tspan class="TextPosition" x="1711" y="18507"><tspan fill="rgb(0,0,0)" stroke="none">1</tspan></tspan></tspan></text>
 <text class="TextShape"><tspan class="TextParagraph" font-family="Liberation Sans, sans-serif" font-size="353px" font-weight="400"><tspan class="TextPosition" x="3604" y="18507"><tspan fill="rgb(0,0,0)" stroke="none">2</tspan></tspan></tspan></text>
 <text class="TextShape"><tspan class="TextParagraph" font-family="Liberation Sans, sans-serif" font-size="353px" font-weight="400"><tspan class="TextPosition" x="5497" y="18507"><tspan fill="rgb(0,0,0)" stroke="none">3</tspan></tspan></tspan></text>
 <text class="TextShape"><tspan class="TextParagraph" font-family="Liberation Sans, sans-serif" font-size="353px" font-weight="400"><tspan class="TextPosition" x="7391" y="18507"><tspan fill="rgb(0,0,0)" stroke="none">4</tspan></tspan></tspan></text>
 <text class="TextShape"><tspan class="TextParagraph" font-family="Liberation Sans, sans-serif" font-size="353px" font-weight="400"><tspan class="TextPosition" x="9284" y="18507"><tspan fill="rgb(0,0,0)" stroke="none">5</tspan></tspan></tspan></text>
 <text class="TextShape"><tspan class="TextParagraph" font-family="Liberation Sans, sans-serif" font-size="353px" font-weight="400"><tspan class="TextPosition" x="11177" y="18507"><tspan fill="rgb(0,0,0)" stroke="none">6</tspan></tspan></tspan></text>
 <text class="TextShape"><tspan class="TextParagraph" font-family="Liberation Sans, sans-serif" font-size="353px" font-weight="400"><tspan class="TextPosition" x="13071" y="18507"><tspan fill="rgb(0,0,0)" stroke="none">7</tspan></tspan></tspan></text>
 <text class="TextShape"><tspan class="TextParagraph" font-family="Liberation Sans, sans-serif" font-size="353px" font-weight="400"><tspan class="TextPosition" x="14964" y="18507"><tspan fill="rgb(0,0,0)" stroke="none">8</tspan></tspan></tspan></text>
 <text class="TextShape"><tspan class="TextParagraph" font-family="Liberation Sans, sans-serif" font-size="353px" font-weight="400"><tspan class="TextPosition" x="16858" y="18507"><tspan fill="rgb(0,0,0)" stroke="none">9</tspan></tspan></tspan></text>
 <text class="TextShape"><tspan class="TextParagraph" font-family="Liberation Sans, sans-serif" font-size="353px" font-weight="400"><tspan class="TextPosition" x="18659" y="18507"><tspan fill="rgb(0,0,0)" stroke="none">10</tspan></tspan></tspan></text>
 <text class="TextShape"><tspan class="TextParagraph" font-family="Liberation Sans, sans-serif" font-size="353px" font-weight="400"><tspan class="TextPosition" x="20552" y="18507"><tspan fill="rgb(0,0,0)" stroke="none">11</tspan></tspan></tspan></text>
 <text class="TextShape"><tspan class="TextParagraph" font-family="Liberation Sans, sans-serif" font-size="353px" font-weight="400"><tspan class="TextPosition" x="22446" y="18507"><tspan fill="rgb(0,0,0)" stroke="none">12</tspan></tspan></tspan></text>
 <text class="TextShape"><tspan class="TextParagraph" font-family="Liberation Sans, sans-serif" font-size="353px" font-weight="400"><tspan class="TextPosition" x="24339" y="18507"><tspan fill="rgb(0,0,0)" stroke="none">13</tspan></tspan></tspan></text>
 <text class="TextShape"><tspan class="TextParagraph" font-family="Liberation Sans, sans-serif" font-size="353px" font-weight="400"><tspan class="TextPosition" x="26233" y="18507"><tspan fill="rgb(0,0,0)" stroke="none">14</tspan></tspan></tspan></text>
 <text class="TextShape"><tspan class="TextParagraph" font-family="Liberation Sans, sans-serif" font-size="353px" font-weight="400"><tspan class="TextPosition" x="28126" y="18507"><tspan fill="rgb(0,0,0)" stroke="none">15</tspan></tspan></tspan></text>
 <text class="TextShape"><tspan class="TextParagraph" font-family="Liberation Sans, sans-serif" font-size="353px" font-weight="400"><tspan class="TextPosition" x="30019" y="18507"><tspan fill="rgb(0,0,0)" stroke="none">16</tspan></tspan></tspan></text>
 <text class="TextShape"><tspan class="TextParagraph" font-family="Liberation Sans, sans-serif" font-size="353px" font-weight="400"><tspan class="TextPosition" x="31913" y="18507"><tspan fill="rgb(0,0,0)" stroke="none">17</tspan></tspan></tspan></text>
 <text class="TextShape"><tspan class="TextParagraph" font-family="Liberation Sans, sans-serif" font-size="353px" font-weight="400"><tspan class="TextPosition" x="33806" y="18507"><tspan fill="rgb(0,0,0)" stroke="none">18</tspan></tspan></tspan></text>
 <text class="TextShape"><tspan class="TextParagraph" font-family="Liberation Sans, sans-serif" font-size="353px" font-weight="400"><tspan class="TextPosition" x="35700" y="18507"><tspan fill="rgb(0,0,0)" stroke="none">19</tspan></tspan></tspan></text>
 <text class="TextShape"><tspan class="TextParagraph" font-family="Liberation Sans, sans-serif" font-size="353px" font-weight="400"><tspan class="TextPosition" x="37593" y="18507"><tspan fill="rgb(0,0,0)" stroke="none">20</tspan></tspan></tspan></text>
 <text class="TextShape"><tspan class="TextParagraph" font-family="Liberation Sans, sans-serif" font-size="353px" font-weight="400"><tspan class="TextPosition" x="39486" y="18507"><tspan fill="rgb(0,0,0)" stroke="none">21</tspan></tspan></tspan></text>
 <text class="TextShape"><tspan class="TextParagraph" font-family="Liberation Sans, sans-serif" font-size="353px" font-weight="400"><tspan class="TextPosition" x="41380" y="18507"><tspan fill="rgb(0,0,0)" stroke="none">22</tspan></tspan></tspan></text>
 <text class="TextShape"><tspan class="TextParagraph" font-family="Liberation Sans, sans-serif" font-size="353px" font-weight="400"><tspan class="TextPosition" x="43273" y="18507"><tspan fill="rgb(0,0,0)" stroke="none">23</tspan></tspan></tspan></text>
 <text class="TextShape"><tspan class="TextParagraph" font-family="Liberation Sans, sans-serif" font-size="353px" font-weight="400"><tspan class="TextPosition" x="45167" y="18507"><tspan fill="rgb(0,0,0)" stroke="none">24</tspan></tspan></tspan></text>
 <text class="TextShape"><tspan class="TextParagraph" font-family="Liberation Sans, sans-serif" font-size="353px" font-weight="400"><tspan class="TextPosition" x="1369" y="18060"><tspan fill="rgb(0,0,0)" stroke="none">0</tspan></tspan></tspan></text>
 <text class="TextShape"><tspan class="TextParagraph" font-family="Liberation Sans, sans-serif" font-size="353px" font-weight="400"><tspan class="TextPosition" x="998" y="16613"><tspan fill="rgb(0,0,0)" stroke="none">200</tspan></tspan></tspan></text>
 <text class="TextShape"><tspan class="TextParagraph" font-family="Liberation Sans, sans-serif" font-size="353px" font-weight="400"><tspan class="TextPosition" x="998" y="15166"><tspan fill="rgb(0,0,0)" stroke="none">400</tspan></tspan></tspan></text>
 <text class="TextShape"><tspan class="TextParagraph" font-family="Liberation Sans, sans-serif" font-size="353px" font-weight="400"><tspan class="TextPosition" x="998" y="13719"><tspan fill="rgb(0,0,0)" stroke="none">600</tspan></tspan></tspan></text>
 <text class="TextShape"><tspan class="TextParagraph" font-family="Liberation Sans, sans-serif" font-size="353px" font-weight="400"><tspan class="TextPosition" x="998" y="12272"><tspan fill="rgb(0,0,0)" stroke="none">800</tspan></tspan></tspan></text>
 <text class="TextShape"><tspan class="TextParagraph" font-family="Liberation Sans, sans-serif" font-size="353px" font-weight="400"><tspan class="TextPosition" x="813" y="10825"><tspan fill="rgb(0,0,0)" stroke="none">1000</tspan></tspan></tspan></text>
 <text class="TextShape"><tspan class="TextParagraph" font-family="Liberation Sans, sans-serif" font-size="353px" font-weight="400"><tspan class="TextPosition" x="813" y="9378"><tspan fill="rgb(0,0,0)" stroke="none">1200</tspan></tspan></tspan></text>
 <text class="TextShape"><tspan class="TextParagraph" font-family="Liberation Sans, sans-serif" font-size="353px" font-weight="400"><tspan class="TextPosition" x="813" y="7931"><tspan fill="rgb(0,0,0)" stroke="none">1400</tspan></tspan></tspan></text>
 <text class="TextShape"><tspan class="TextParagraph" font-family="Liberation Sans, sans-serif" font-size="353px" font-weight="400"><tspan class="TextPosition" x="813" y="6484"><tspan fill="rgb(0,0,0)" stroke="none">1600</tspan></tspan></tspan></text>
 <text class="TextShape"><tspan class="TextParagraph" font-family="Liberation Sans, sans-serif" font-size="353px" font-weight="400"><tspan class="TextPosition" x="813" y="5037"><tspan fill="rgb(0,0,0)" stroke="none">1800</tspan></tspan></tspan></text>
 <text class="TextShape"><tspan class="TextParagraph" font-family="Liberation Sans, sans-serif" font-size="353px" font-weight="400"><tspan class="TextPosition" x="813" y="3590"><tspan fill="rgb(0,0,0)" stroke="none">2000</tspan></tspan></tspan></text>
 <text class="TextShape"><tspan class="TextParagraph" font-family="Liberation Sans, sans-serif" font-size="353px" font-weight="400"><tspan class="TextPosition" x="813" y="2143"><tspan fill="rgb(0,0,0)" stroke="none">2200</tspan></tspan></tspan></text>
 <text class="TextShape"><tspan class="TextParagraph" font-family="Liberation Sans, sans-serif" font-size="353px" font-weight="400"><tspan class="TextPosition" x="813" y="697"><tspan fill="rgb(0,0,0)" stroke="none">2400</tspan></tspan></tspan></text>
 <path fill="none" stroke="rgb(0,69,134)" stroke-width="51" stroke-linejoin="round" d="M 46836,7988 L 47636,7988"/>
 <path fill="none" stroke="rgb(255,66,14)" stroke-width="51" stroke-linejoin="round" d="M 46836,8486 L 47636,8486"/>
 <path fill="none" stroke="rgb(255,211,32)" stroke-width="51" stroke-linejoin="round" d="M 46836,8984 L 47636,8984"/>
 <path fill="none" stroke="rgb(87,157,28)" stroke-width="51" stroke-linejoin="round" d="M 46836,9482 L 47636,9482"/>
 <path fill="none" stroke="rgb(126,0,33)" stroke-width="51" stroke-linejoin="round" d="M 46836,9979 L 47636,9979"/>
 <path fill="none" stroke="rgb(131,202,255)" stroke-width="51" stroke-linejoin="round" d="M 46836,10477 L 47636,10477"/>
 <path fill="none" stroke="rgb(49,64,4)" stroke-width="51" stroke-linejoin="round" d="M 46836,10975 L 47636,10975"/>
 <text class="TextShape"><tspan class="TextParagraph" font-family="Liberation Sans, sans-serif" font-size="353px" font-weight="400"><tspan class="TextPosition" x="47736" y="8108"><tspan fill="rgb(0,0,0)" stroke="none">Monday</tspan></tspan></tspan></text>
 <text class="TextShape"><tspan class="TextParagraph" font-family="Liberation Sans, sans-serif" font-size="353px" font-weight="400"><tspan class="TextPosition" x="47736" y="8606"><tspan fill="rgb(0,0,0)" stroke="none">Tuesday</tspan></tspan></tspan></text>
 <text class="TextShape"><tspan class="TextParagraph" font-family="Liberation Sans, sans-serif" font-size="353px" font-weight="400"><tspan class="TextPosition" x="47736" y="9104"><tspan fill="rgb(0,0,0)" stroke="none">Wednesday</tspan></tspan></tspan></text>
 <text class="TextShape"><tspan class="TextParagraph" font-family="Liberation Sans, sans-serif" font-size="353px" font-weight="400"><tspan class="TextPosition" x="47736" y="9601"><tspan fill="rgb(0,0,0)" stroke="none">Thursday</tspan></tspan></tspan></text>
 <text class="TextShape"><tspan class="TextParagraph" font-family="Liberation Sans, sans-serif" font-size="353px" font-weight="400"><tspan class="TextPosition" x="47736" y="10099"><tspan fill="rgb(0,0,0)" stroke="none">Friday</tspan></tspan></tspan></text>
 <text class="TextShape"><tspan class="TextParagraph" font-family="Liberation Sans, sans-serif" font-size="353px" font-weight="400"><tspan class="TextPosition" x="47736" y="10597"><tspan fill="rgb(0,0,0)" stroke="none">Saturday</tspan></tspan></tspan></text>
 <text class="TextShape"><tspan class="TextParagraph" font-family="Liberation Sans, sans-serif" font-size="353px" font-weight="400"><tspan class="TextPosition" x="47736" y="11095"><tspan fill="rgb(0,0,0)" stroke="none">Sunday</tspan></tspan></tspan></text>
</svg>